M48
METRIC,TZ
T1C0.400
T2C0.800
T3C1.000
%
G90
G05
T1
X55900Y-86700
X63550Y-97700
X65150Y-100600
X68892Y-69300
X71750Y-101400
X72150Y-87950
X72200Y-90300
X72250Y-83050
X72300Y-85500
X72500Y-94300
X77950Y-101200
X82750Y-90450
X83700Y-96950
X83800Y-93050
X83950Y-80400
X84440Y-102433
X86100Y-78150
X86250Y-75500
X90800Y-98500
X91550Y-96700
X92000Y-94850
X92900Y-93000
X93300Y-80600
X94500Y-44150
X96600Y-41650
X101000Y-67300
X101250Y-73450
X103685Y-67000
X104450Y-74100
X106800Y-41650
X108600Y-48900
X110700Y-71400
X110700Y-80050
X110750Y-74850
X110950Y-36150
X112672Y-63175
X116550Y-80500
X116600Y-78350
X119150Y-57300
X121750Y-85000
X125250Y-35350
X126950Y-56850
T2
X66170Y-72000
X67730Y-80565
X67730Y-83105
X67730Y-85645
X67730Y-88185
X67730Y-90725
X67730Y-93265
X67730Y-95805
X67730Y-98345
X67730Y-100885
X67730Y-103425
X75350Y-80565
X75350Y-83105
X75350Y-85645
X75350Y-88185
X75350Y-90725
X75350Y-93265
X75350Y-95805
X75350Y-98345
X75350Y-100885
X75350Y-103425
X76330Y-72000
X77597Y-62050
X77670Y-46380
X77670Y-54000
X78220Y-33850
X78220Y-41470
X80210Y-46380
X80210Y-54000
X80225Y-70300
X80225Y-72840
X80225Y-75380
X80225Y-77920
X80225Y-80460
X80225Y-83000
X80225Y-85540
X80225Y-88080
X80225Y-90620
X80225Y-93160
X80225Y-95700
X80225Y-98240
X80225Y-100780
X80225Y-103320
X80760Y-33850
X80760Y-41470
X82597Y-62050
X82750Y-46380
X82750Y-54000
X83300Y-33850
X83300Y-41470
X85290Y-46380
X85290Y-54000
X85840Y-33850
X85840Y-41470
X87150Y-56620
X87150Y-66780
X87830Y-46380
X87830Y-54000
X88380Y-33850
X88380Y-41470
X90370Y-46380
X90370Y-54000
X90920Y-33850
X90920Y-41470
X92147Y-61900
X92910Y-46380
X92910Y-54000
X93460Y-33850
X93460Y-41470
X95450Y-46380
X95450Y-54000
X95465Y-70300
X95465Y-72840
X95465Y-75380
X95465Y-77920
X95465Y-80460
X95465Y-83000
X95465Y-85540
X95465Y-88080
X95465Y-90620
X95465Y-93160
X95465Y-95700
X95465Y-98240
X95465Y-100780
X95465Y-103320
X95947Y-61900
X99125Y-70400
X99125Y-72940
X99125Y-75480
X99125Y-78020
X99125Y-80560
X99125Y-83100
X99125Y-85640
X99125Y-88180
X99125Y-90720
X99125Y-93260
X99125Y-95800
X99125Y-98340
X99125Y-100880
X99125Y-103420
X100415Y-46450
X100415Y-54070
X100510Y-57130
X100510Y-64750
X101580Y-34040
X101580Y-41660
X102955Y-46450
X102955Y-54070
X103050Y-57130
X103050Y-64750
X105495Y-46450
X105495Y-54070
X105590Y-57130
X105590Y-64750
X108035Y-46450
X108035Y-54070
X108130Y-57130
X108130Y-64750
X110575Y-46450
X110575Y-54070
X110670Y-57130
X110670Y-64750
X113115Y-46450
X113115Y-54070
X113210Y-57130
X113210Y-64750
X114365Y-70400
X114365Y-72940
X114365Y-75480
X114365Y-78020
X114365Y-80560
X114365Y-83100
X114365Y-85640
X114365Y-88180
X114365Y-90720
X114365Y-93260
X114365Y-95800
X114365Y-98340
X114365Y-100880
X114365Y-103420
X115655Y-46450
X115655Y-54070
X115750Y-57130
X115750Y-64750
X116820Y-34040
X116820Y-41660
X118195Y-46450
X118195Y-54070
X118500Y-82870
X118500Y-85410
X118500Y-87950
X118500Y-90490
X118500Y-93030
X118500Y-95570
X118500Y-98110
X118500Y-100650
X118500Y-103190
X120735Y-46450
X120735Y-54070
X123275Y-46450
X123275Y-54070
T3
X59610Y-68650
X59610Y-71190
X59610Y-73730
X59610Y-76270
X59610Y-78810
X59610Y-81350
X59610Y-83890
X59610Y-86430
X59610Y-88970
X59610Y-91510
X59610Y-94050
X59610Y-96590
X59610Y-99130
X59610Y-101670
X59610Y-104210
X62150Y-68650
X62150Y-71190
X62150Y-73730
X62150Y-76270
X62150Y-78810
X62150Y-81350
X62150Y-83890
X62150Y-86430
X62150Y-88970
X62150Y-91510
X62150Y-94050
X62150Y-96590
X62150Y-99130
X62150Y-101670
X62150Y-104210
X124860Y-62360
X124860Y-64900
X124860Y-67440
X124860Y-69980
X124860Y-72520
X124860Y-75060
X124860Y-77600
X124860Y-80140
X124860Y-82680
X124860Y-85220
X124860Y-87760
X124860Y-90300
X124860Y-92840
X124860Y-95380
X124860Y-97920
X124860Y-100460
X124860Y-103000
X127400Y-62360
X127400Y-64900
X127400Y-67440
X127400Y-69980
X127400Y-72520
X127400Y-75060
X127400Y-77600
X127400Y-80140
X127400Y-82680
X127400Y-85220
X127400Y-87760
X127400Y-90300
X127400Y-92840
X127400Y-95380
X127400Y-97920
X127400Y-100460
X127400Y-103000
M30
