  0
SECTION
  2
HEADER
  9
$ANGBASE
  50
0.0
  9
$ANGDIR
  70
1
  9
$MEASUREMENT
  70
1
  0
ENDSEC
  0
SECTION
  2
TABLES
  0
TABLE
  2
LTYPE
  70
4
  0
LTYPE
  5
40F
  2
CONTINUOUS
  70
0
  3
Solid line
  72
65
  73
0
  40
0.0
  0
LTYPE
  5
410
  2
DASHDOT
 70
0
  3
Dash Dot ____ _ ____ _
 72
65
 73
4
 40
2.0
 49
1.25
 49
-0.25
 49
0.25
 49
-0.25
  0
LTYPE
  5
411
  2
DASHED
 70
0
  3
Dashed __ __ __ __ __
 72
65
 73
2
 40
0.75
 49
0.5
 49
-0.25
  0
LTYPE
  5
43B
  2
DOTTED
 70
0
  3
Dotted .  .  .  .
 72
65
 73
2
 40
0.2
 49
0.0
 49
-0.2
  0
ENDTAB
  0
TABLE
  2
STYLE
  70
4
  0
STYLE
  2
KICAD
  70
0
  40
0
  41
1
  42
1
  50
0
  71
0
  3
isocp.shx
  0
STYLE
  2
KICADB
  70
0
  40
0
  41
1
  42
1
  50
0
  71
0
  3
isocp.shx
  0
STYLE
  2
KICADI
  70
0
  40
0
  41
1
  42
1
  50
15
  71
0
  3
isocp.shx
  0
STYLE
  2
KICADBI
  70
0
  40
0
  41
1
  42
1
  50
15
  71
0
  3
isocp.shx
  0
ENDTAB
  0
TABLE
  2
LAYER
  70
1
  0
LAYER
  2
BLACK
  70
0
  62
7
  6
CONTINUOUS
  0
ENDTAB
  0
ENDSEC
  0
SECTION
  2
ENTITIES
0
LINE
8
BLACK
6
CONTINUOUS
10
48.
20
-66.8999999999999915
11
73.
21
-66.8999999999999915
0
LINE
8
BLACK
6
CONTINUOUS
10
73.
20
-66.8999999999999915
11
73.
21
-30.
0
LINE
8
BLACK
6
CONTINUOUS
10
48.
20
-106.
11
48.
21
-66.8999999999999915
0
LINE
8
BLACK
6
CONTINUOUS
10
48.
20
-106.
11
130.
21
-105.9499999999999886
0
LINE
8
BLACK
6
CONTINUOUS
10
130.
20
-30.
11
130.
21
-105.9499999999999886
0
LINE
8
BLACK
6
CONTINUOUS
10
73.
20
-30.
11
130.
21
-30.
0
LINE
8
BLACK
6
CONTINUOUS
10
50.5577679999999958
20
-109.1648379999999889
11
50.5577679999999958
21
-107.1648379999999889
0
LINE
8
BLACK
6
CONTINUOUS
10
50.5577679999999958
20
-107.1648379999999889
11
51.0339579999999984
21
-107.1648379999999889
0
LINE
8
BLACK
6
CONTINUOUS
10
51.0339579999999984
20
-107.1648379999999889
11
51.3196729999999945
21
-107.260075999999998
0
LINE
8
BLACK
6
CONTINUOUS
10
51.3196729999999945
20
-107.260075999999998
11
51.5101489999999984
21
-107.4505520000000018
0
LINE
8
BLACK
6
CONTINUOUS
10
51.5101489999999984
20
-107.4505520000000018
11
51.6053870000000003
21
-107.6410279999999915
0
LINE
8
BLACK
6
CONTINUOUS
10
51.6053870000000003
20
-107.6410279999999915
11
51.7006249999999952
21
-108.0219799999999992
0
LINE
8
BLACK
6
CONTINUOUS
10
51.7006249999999952
20
-108.0219799999999992
11
51.7006249999999952
21
-108.3076949999999954
0
LINE
8
BLACK
6
CONTINUOUS
10
51.7006249999999952
20
-108.3076949999999954
11
51.6053870000000003
21
-108.6886469999999889
0
LINE
8
BLACK
6
CONTINUOUS
10
51.6053870000000003
20
-108.6886469999999889
11
51.5101489999999984
21
-108.8791229999999928
0
LINE
8
BLACK
6
CONTINUOUS
10
51.5101489999999984
20
-108.8791229999999928
11
51.3196729999999945
21
-109.0695999999999941
0
LINE
8
BLACK
6
CONTINUOUS
10
51.3196729999999945
20
-109.0695999999999941
11
51.0339579999999984
21
-109.1648379999999889
0
LINE
8
BLACK
6
CONTINUOUS
10
51.0339579999999984
20
-109.1648379999999889
11
50.5577679999999958
21
-109.1648379999999889
0
LINE
8
BLACK
6
CONTINUOUS
10
52.5577679999999958
20
-109.1648379999999889
11
52.5577679999999958
21
-107.8315039999999954
0
LINE
8
BLACK
6
CONTINUOUS
10
52.5577679999999958
20
-108.2124570000000006
11
52.6530059999999978
21
-108.0219799999999992
0
LINE
8
BLACK
6
CONTINUOUS
10
52.6530059999999978
20
-108.0219799999999992
11
52.7482439999999997
21
-107.9267419999999902
0
LINE
8
BLACK
6
CONTINUOUS
10
52.7482439999999997
20
-107.9267419999999902
11
52.9387199999999964
21
-107.8315039999999954
0
LINE
8
BLACK
6
CONTINUOUS
10
52.9387199999999964
20
-107.8315039999999954
11
53.1291969999999978
21
-107.8315039999999954
0
LINE
8
BLACK
6
CONTINUOUS
10
53.7958629999999971
20
-109.1648379999999889
11
53.7958629999999971
21
-107.8315039999999954
0
LINE
8
BLACK
6
CONTINUOUS
10
53.7958629999999971
20
-107.1648379999999889
11
53.7006249999999952
21
-107.260075999999998
0
LINE
8
BLACK
6
CONTINUOUS
10
53.7006249999999952
20
-107.260075999999998
11
53.7958629999999971
21
-107.3553139999999928
0
LINE
8
BLACK
6
CONTINUOUS
10
53.7958629999999971
20
-107.3553139999999928
11
53.891100999999999
21
-107.260075999999998
0
LINE
8
BLACK
6
CONTINUOUS
10
53.891100999999999
20
-107.260075999999998
11
53.7958629999999971
21
-107.1648379999999889
0
LINE
8
BLACK
6
CONTINUOUS
10
53.7958629999999971
20
-107.1648379999999889
11
53.7958629999999971
21
-107.3553139999999928
0
LINE
8
BLACK
6
CONTINUOUS
10
55.0339579999999984
20
-109.1648379999999889
11
54.8434819999999945
21
-109.0695999999999941
0
LINE
8
BLACK
6
CONTINUOUS
10
54.8434819999999945
20
-109.0695999999999941
11
54.7482439999999997
21
-108.8791229999999928
0
LINE
8
BLACK
6
CONTINUOUS
10
54.7482439999999997
20
-108.8791229999999928
11
54.7482439999999997
21
-107.1648379999999889
0
LINE
8
BLACK
6
CONTINUOUS
10
56.0815769999999958
20
-109.1648379999999889
11
55.891100999999999
21
-109.0695999999999941
0
LINE
8
BLACK
6
CONTINUOUS
10
55.891100999999999
20
-109.0695999999999941
11
55.7958629999999971
21
-108.8791229999999928
0
LINE
8
BLACK
6
CONTINUOUS
10
55.7958629999999971
20
-108.8791229999999928
11
55.7958629999999971
21
-107.1648379999999889
0
LINE
8
BLACK
6
CONTINUOUS
10
58.3672919999999991
20
-109.1648379999999889
11
58.3672919999999991
21
-107.1648379999999889
0
LINE
8
BLACK
6
CONTINUOUS
10
58.3672919999999991
20
-107.1648379999999889
11
59.0339589999999959
21
-108.5934089999999941
0
LINE
8
BLACK
6
CONTINUOUS
10
59.0339589999999959
20
-108.5934089999999941
11
59.7006249999999952
21
-107.1648379999999889
0
LINE
8
BLACK
6
CONTINUOUS
10
59.7006249999999952
20
-107.1648379999999889
11
59.7006249999999952
21
-109.1648379999999889
0
LINE
8
BLACK
6
CONTINUOUS
10
61.5101489999999984
20
-109.1648379999999889
11
61.5101489999999984
21
-108.1172189999999915
0
LINE
8
BLACK
6
CONTINUOUS
10
61.5101489999999984
20
-108.1172189999999915
11
61.4149109999999965
21
-107.9267419999999902
0
LINE
8
BLACK
6
CONTINUOUS
10
61.4149109999999965
20
-107.9267419999999902
11
61.2244349999999997
21
-107.8315039999999954
0
LINE
8
BLACK
6
CONTINUOUS
10
61.2244349999999997
20
-107.8315039999999954
11
60.8434819999999945
21
-107.8315039999999954
0
LINE
8
BLACK
6
CONTINUOUS
10
60.8434819999999945
20
-107.8315039999999954
11
60.6530059999999978
21
-107.9267419999999902
0
LINE
8
BLACK
6
CONTINUOUS
10
61.5101489999999984
20
-109.0695999999999941
11
61.3196729999999945
21
-109.1648379999999889
0
LINE
8
BLACK
6
CONTINUOUS
10
61.3196729999999945
20
-109.1648379999999889
11
60.8434819999999945
21
-109.1648379999999889
0
LINE
8
BLACK
6
CONTINUOUS
10
60.8434819999999945
20
-109.1648379999999889
11
60.6530059999999978
21
-109.0695999999999941
0
LINE
8
BLACK
6
CONTINUOUS
10
60.6530059999999978
20
-109.0695999999999941
11
60.5577679999999958
21
-108.8791229999999928
0
LINE
8
BLACK
6
CONTINUOUS
10
60.5577679999999958
20
-108.8791229999999928
11
60.5577679999999958
21
-108.6886469999999889
0
LINE
8
BLACK
6
CONTINUOUS
10
60.5577679999999958
20
-108.6886469999999889
11
60.6530059999999978
21
-108.4981709999999993
0
LINE
8
BLACK
6
CONTINUOUS
10
60.6530059999999978
20
-108.4981709999999993
11
60.8434819999999945
21
-108.4029329999999902
0
LINE
8
BLACK
6
CONTINUOUS
10
60.8434819999999945
20
-108.4029329999999902
11
61.3196729999999945
21
-108.4029329999999902
0
LINE
8
BLACK
6
CONTINUOUS
10
61.3196729999999945
20
-108.4029329999999902
11
61.5101489999999984
21
-108.3076949999999954
0
LINE
8
BLACK
6
CONTINUOUS
10
62.4625299999999939
20
-107.8315039999999954
11
62.4625299999999939
21
-109.8315039999999954
0
LINE
8
BLACK
6
CONTINUOUS
10
62.4625299999999939
20
-107.9267419999999902
11
62.6530059999999978
21
-107.8315039999999954
0
LINE
8
BLACK
6
CONTINUOUS
10
62.6530059999999978
20
-107.8315039999999954
11
63.0339589999999959
21
-107.8315039999999954
0
LINE
8
BLACK
6
CONTINUOUS
10
63.0339589999999959
20
-107.8315039999999954
11
63.2244349999999997
21
-107.9267419999999902
0
LINE
8
BLACK
6
CONTINUOUS
10
63.2244349999999997
20
-107.9267419999999902
11
63.3196729999999945
21
-108.0219799999999992
0
LINE
8
BLACK
6
CONTINUOUS
10
63.3196729999999945
20
-108.0219799999999992
11
63.4149109999999965
21
-108.2124570000000006
0
LINE
8
BLACK
6
CONTINUOUS
10
63.4149109999999965
20
-108.2124570000000006
11
63.4149109999999965
21
-108.7838849999999979
0
LINE
8
BLACK
6
CONTINUOUS
10
63.4149109999999965
20
-108.7838849999999979
11
63.3196729999999945
21
-108.9743610000000018
0
LINE
8
BLACK
6
CONTINUOUS
10
63.3196729999999945
20
-108.9743610000000018
11
63.2244349999999997
21
-109.0695999999999941
0
LINE
8
BLACK
6
CONTINUOUS
10
63.2244349999999997
20
-109.0695999999999941
11
63.0339589999999959
21
-109.1648379999999889
0
LINE
8
BLACK
6
CONTINUOUS
10
63.0339589999999959
20
-109.1648379999999889
11
62.6530059999999978
21
-109.1648379999999889
0
LINE
8
BLACK
6
CONTINUOUS
10
62.6530059999999978
20
-109.1648379999999889
11
62.4625299999999939
21
-109.0695999999999941
0
LINE
8
BLACK
6
CONTINUOUS
10
64.2720539999999971
20
-108.9743610000000018
11
64.367291999999992
21
-109.0695999999999941
0
LINE
8
BLACK
6
CONTINUOUS
10
64.367291999999992
20
-109.0695999999999941
11
64.2720539999999971
21
-109.1648379999999889
0
LINE
8
BLACK
6
CONTINUOUS
10
64.2720539999999971
20
-109.1648379999999889
11
64.1768160000000023
21
-109.0695999999999941
0
LINE
8
BLACK
6
CONTINUOUS
10
64.1768160000000023
20
-109.0695999999999941
11
64.2720539999999971
21
-108.9743610000000018
0
LINE
8
BLACK
6
CONTINUOUS
10
64.2720539999999971
20
-108.9743610000000018
11
64.2720539999999971
21
-109.1648379999999889
0
LINE
8
BLACK
6
CONTINUOUS
10
64.2720539999999971
20
-107.9267419999999902
11
64.367291999999992
21
-108.0219799999999992
0
LINE
8
BLACK
6
CONTINUOUS
10
64.367291999999992
20
-108.0219799999999992
11
64.2720539999999971
21
-108.1172189999999915
0
LINE
8
BLACK
6
CONTINUOUS
10
64.2720539999999971
20
-108.1172189999999915
11
64.1768160000000023
21
-108.0219799999999992
0
LINE
8
BLACK
6
CONTINUOUS
10
64.1768160000000023
20
-108.0219799999999992
11
64.2720539999999971
21
-107.9267419999999902
0
LINE
8
BLACK
6
CONTINUOUS
10
64.2720539999999971
20
-107.9267419999999902
11
64.2720539999999971
21
-108.1172189999999915
  0
ENDSEC
  0
EOF
