%TF.GenerationSoftware,KiCad,Pcbnew,8.0.3*%
%TF.CreationDate,2024-07-15T19:17:30+01:00*%
%TF.ProjectId,OPD-Computer-One-Disk-Interface,4f50442d-436f-46d7-9075-7465722d4f6e,rev?*%
%TF.SameCoordinates,Original*%
%TF.FileFunction,Soldermask,Bot*%
%TF.FilePolarity,Negative*%
%FSLAX46Y46*%
G04 Gerber Fmt 4.6, Leading zero omitted, Abs format (unit mm)*
G04 Created by KiCad (PCBNEW 8.0.3) date 2024-07-15 19:17:30*
%MOMM*%
%LPD*%
G01*
G04 APERTURE LIST*
G04 Aperture macros list*
%AMRoundRect*
0 Rectangle with rounded corners*
0 $1 Rounding radius*
0 $2 $3 $4 $5 $6 $7 $8 $9 X,Y pos of 4 corners*
0 Add a 4 corners polygon primitive as box body*
4,1,4,$2,$3,$4,$5,$6,$7,$8,$9,$2,$3,0*
0 Add four circle primitives for the rounded corners*
1,1,$1+$1,$2,$3*
1,1,$1+$1,$4,$5*
1,1,$1+$1,$6,$7*
1,1,$1+$1,$8,$9*
0 Add four rect primitives between the rounded corners*
20,1,$1+$1,$2,$3,$4,$5,0*
20,1,$1+$1,$4,$5,$6,$7,0*
20,1,$1+$1,$6,$7,$8,$9,0*
20,1,$1+$1,$8,$9,$2,$3,0*%
G04 Aperture macros list end*
%ADD10R,1.600000X1.600000*%
%ADD11O,1.600000X1.600000*%
%ADD12R,1.700000X1.700000*%
%ADD13O,1.700000X1.700000*%
%ADD14C,1.600000*%
%ADD15RoundRect,0.250000X0.475000X-0.337500X0.475000X0.337500X-0.475000X0.337500X-0.475000X-0.337500X0*%
%ADD16RoundRect,0.250000X0.337500X0.475000X-0.337500X0.475000X-0.337500X-0.475000X0.337500X-0.475000X0*%
%ADD17RoundRect,0.250000X-0.337500X-0.475000X0.337500X-0.475000X0.337500X0.475000X-0.337500X0.475000X0*%
G04 APERTURE END LIST*
D10*
%TO.C,IC1*%
X99125000Y-70400000D03*
D11*
X99125000Y-72940000D03*
X99125000Y-75480000D03*
X99125000Y-78020000D03*
X99125000Y-80560000D03*
X99125000Y-83100000D03*
X99125000Y-85640000D03*
X99125000Y-88180000D03*
X99125000Y-90720000D03*
X99125000Y-93260000D03*
X99125000Y-95800000D03*
X99125000Y-98340000D03*
X99125000Y-100880000D03*
X99125000Y-103420000D03*
X114365000Y-103420000D03*
X114365000Y-100880000D03*
X114365000Y-98340000D03*
X114365000Y-95800000D03*
X114365000Y-93260000D03*
X114365000Y-90720000D03*
X114365000Y-88180000D03*
X114365000Y-85640000D03*
X114365000Y-83100000D03*
X114365000Y-80560000D03*
X114365000Y-78020000D03*
X114365000Y-75480000D03*
X114365000Y-72940000D03*
X114365000Y-70400000D03*
%TD*%
D10*
%TO.C,IC6*%
X115750000Y-57130000D03*
D11*
X113210000Y-57130000D03*
X110670000Y-57130000D03*
X108130000Y-57130000D03*
X105590000Y-57130000D03*
X103050000Y-57130000D03*
X100510000Y-57130000D03*
X100510000Y-64750000D03*
X103050000Y-64750000D03*
X105590000Y-64750000D03*
X108130000Y-64750000D03*
X110670000Y-64750000D03*
X113210000Y-64750000D03*
X115750000Y-64750000D03*
%TD*%
D10*
%TO.C,IC7*%
X93460000Y-33850000D03*
D11*
X90920000Y-33850000D03*
X88380000Y-33850000D03*
X85840000Y-33850000D03*
X83300000Y-33850000D03*
X80760000Y-33850000D03*
X78220000Y-33850000D03*
X78220000Y-41470000D03*
X80760000Y-41470000D03*
X83300000Y-41470000D03*
X85840000Y-41470000D03*
X88380000Y-41470000D03*
X90920000Y-41470000D03*
X93460000Y-41470000D03*
%TD*%
D12*
%TO.C,J1*%
X62150000Y-68650000D03*
D13*
X59610000Y-68650000D03*
X62150000Y-71190000D03*
X59610000Y-71190000D03*
X62150000Y-73730000D03*
X59610000Y-73730000D03*
X62150000Y-76270000D03*
X59610000Y-76270000D03*
X62150000Y-78810000D03*
X59610000Y-78810000D03*
X62150000Y-81350000D03*
X59610000Y-81350000D03*
X62150000Y-83890000D03*
X59610000Y-83890000D03*
X62150000Y-86430000D03*
X59610000Y-86430000D03*
X62150000Y-88970000D03*
X59610000Y-88970000D03*
X62150000Y-91510000D03*
X59610000Y-91510000D03*
X62150000Y-94050000D03*
X59610000Y-94050000D03*
X62150000Y-96590000D03*
X59610000Y-96590000D03*
X62150000Y-99130000D03*
X59610000Y-99130000D03*
X62150000Y-101670000D03*
X59610000Y-101670000D03*
X62150000Y-104210000D03*
X59610000Y-104210000D03*
%TD*%
D10*
%TO.C,IC5*%
X123275000Y-46450000D03*
D11*
X120735000Y-46450000D03*
X118195000Y-46450000D03*
X115655000Y-46450000D03*
X113115000Y-46450000D03*
X110575000Y-46450000D03*
X108035000Y-46450000D03*
X105495000Y-46450000D03*
X102955000Y-46450000D03*
X100415000Y-46450000D03*
X100415000Y-54070000D03*
X102955000Y-54070000D03*
X105495000Y-54070000D03*
X108035000Y-54070000D03*
X110575000Y-54070000D03*
X113115000Y-54070000D03*
X115655000Y-54070000D03*
X118195000Y-54070000D03*
X120735000Y-54070000D03*
X123275000Y-54070000D03*
%TD*%
D10*
%TO.C,X1*%
X116820000Y-34040000D03*
D14*
X101580000Y-34040000D03*
X101580000Y-41660000D03*
X116820000Y-41660000D03*
%TD*%
D10*
%TO.C,IC3*%
X75350000Y-103425000D03*
D11*
X75350000Y-100885000D03*
X75350000Y-98345000D03*
X75350000Y-95805000D03*
X75350000Y-93265000D03*
X75350000Y-90725000D03*
X75350000Y-88185000D03*
X75350000Y-85645000D03*
X75350000Y-83105000D03*
X75350000Y-80565000D03*
X67730000Y-80565000D03*
X67730000Y-83105000D03*
X67730000Y-85645000D03*
X67730000Y-88185000D03*
X67730000Y-90725000D03*
X67730000Y-93265000D03*
X67730000Y-95805000D03*
X67730000Y-98345000D03*
X67730000Y-100885000D03*
X67730000Y-103425000D03*
%TD*%
D10*
%TO.C,C2*%
X77597300Y-62050000D03*
D14*
X82597300Y-62050000D03*
%TD*%
D10*
%TO.C,C1*%
X92147300Y-61900000D03*
D14*
X95947300Y-61900000D03*
%TD*%
%TO.C,R2*%
X66170000Y-72000000D03*
D11*
X76330000Y-72000000D03*
%TD*%
D14*
%TO.C,R1*%
X87150000Y-66780000D03*
D11*
X87150000Y-56620000D03*
%TD*%
D10*
%TO.C,RN1*%
X118500000Y-82870000D03*
D11*
X118500000Y-85410000D03*
X118500000Y-87950000D03*
X118500000Y-90490000D03*
X118500000Y-93030000D03*
X118500000Y-95570000D03*
X118500000Y-98110000D03*
X118500000Y-100650000D03*
X118500000Y-103190000D03*
%TD*%
D10*
%TO.C,IC4*%
X95450000Y-46380000D03*
D11*
X92910000Y-46380000D03*
X90370000Y-46380000D03*
X87830000Y-46380000D03*
X85290000Y-46380000D03*
X82750000Y-46380000D03*
X80210000Y-46380000D03*
X77670000Y-46380000D03*
X77670000Y-54000000D03*
X80210000Y-54000000D03*
X82750000Y-54000000D03*
X85290000Y-54000000D03*
X87830000Y-54000000D03*
X90370000Y-54000000D03*
X92910000Y-54000000D03*
X95450000Y-54000000D03*
%TD*%
D12*
%TO.C,J2*%
X124860000Y-62360000D03*
D13*
X127400000Y-62360000D03*
X124860000Y-64900000D03*
X127400000Y-64900000D03*
X124860000Y-67440000D03*
X127400000Y-67440000D03*
X124860000Y-69980000D03*
X127400000Y-69980000D03*
X124860000Y-72520000D03*
X127400000Y-72520000D03*
X124860000Y-75060000D03*
X127400000Y-75060000D03*
X124860000Y-77600000D03*
X127400000Y-77600000D03*
X124860000Y-80140000D03*
X127400000Y-80140000D03*
X124860000Y-82680000D03*
X127400000Y-82680000D03*
X124860000Y-85220000D03*
X127400000Y-85220000D03*
X124860000Y-87760000D03*
X127400000Y-87760000D03*
X124860000Y-90300000D03*
X127400000Y-90300000D03*
X124860000Y-92840000D03*
X127400000Y-92840000D03*
X124860000Y-95380000D03*
X127400000Y-95380000D03*
X124860000Y-97920000D03*
X127400000Y-97920000D03*
X124860000Y-100460000D03*
X127400000Y-100460000D03*
X124860000Y-103000000D03*
X127400000Y-103000000D03*
%TD*%
D10*
%TO.C,IC2*%
X80225000Y-70300000D03*
D11*
X80225000Y-72840000D03*
X80225000Y-75380000D03*
X80225000Y-77920000D03*
X80225000Y-80460000D03*
X80225000Y-83000000D03*
X80225000Y-85540000D03*
X80225000Y-88080000D03*
X80225000Y-90620000D03*
X80225000Y-93160000D03*
X80225000Y-95700000D03*
X80225000Y-98240000D03*
X80225000Y-100780000D03*
X80225000Y-103320000D03*
X95465000Y-103320000D03*
X95465000Y-100780000D03*
X95465000Y-98240000D03*
X95465000Y-95700000D03*
X95465000Y-93160000D03*
X95465000Y-90620000D03*
X95465000Y-88080000D03*
X95465000Y-85540000D03*
X95465000Y-83000000D03*
X95465000Y-80460000D03*
X95465000Y-77920000D03*
X95465000Y-75380000D03*
X95465000Y-72840000D03*
X95465000Y-70300000D03*
%TD*%
D15*
%TO.C,CD7*%
X93300000Y-38800000D03*
X93300000Y-36725000D03*
%TD*%
%TO.C,CD6*%
X115650000Y-62100000D03*
X115650000Y-60025000D03*
%TD*%
%TO.C,CD4*%
X95450000Y-51287500D03*
X95450000Y-49212500D03*
%TD*%
%TO.C,CD5*%
X123200000Y-51400000D03*
X123200000Y-49325000D03*
%TD*%
D16*
%TO.C,CD2*%
X92787500Y-70450000D03*
X90712500Y-70450000D03*
%TD*%
%TO.C,CD1*%
X111387500Y-103250000D03*
X109312500Y-103250000D03*
%TD*%
D17*
%TO.C,CD3*%
X70562500Y-103350000D03*
X72637500Y-103350000D03*
%TD*%
M02*
