  0
SECTION
  2
HEADER
  9
$ANGBASE
  50
0.0
  9
$ANGDIR
  70
1
  9
$MEASUREMENT
  70
1
  0
ENDSEC
  0
SECTION
  2
TABLES
  0
TABLE
  2
LTYPE
  70
4
  0
LTYPE
  5
40F
  2
CONTINUOUS
  70
0
  3
Solid line
  72
65
  73
0
  40
0.0
  0
LTYPE
  5
410
  2
DASHDOT
 70
0
  3
Dash Dot ____ _ ____ _
 72
65
 73
4
 40
2.0
 49
1.25
 49
-0.25
 49
0.25
 49
-0.25
  0
LTYPE
  5
411
  2
DASHED
 70
0
  3
Dashed __ __ __ __ __
 72
65
 73
2
 40
0.75
 49
0.5
 49
-0.25
  0
LTYPE
  5
43B
  2
DOTTED
 70
0
  3
Dotted .  .  .  .
 72
65
 73
2
 40
0.2
 49
0.0
 49
-0.2
  0
ENDTAB
  0
TABLE
  2
STYLE
  70
4
  0
STYLE
  2
KICAD
  70
0
  40
0
  41
1
  42
1
  50
0
  71
0
  3
isocp.shx
  0
STYLE
  2
KICADB
  70
0
  40
0
  41
1
  42
1
  50
0
  71
0
  3
isocp.shx
  0
STYLE
  2
KICADI
  70
0
  40
0
  41
1
  42
1
  50
15
  71
0
  3
isocp.shx
  0
STYLE
  2
KICADBI
  70
0
  40
0
  41
1
  42
1
  50
15
  71
0
  3
isocp.shx
  0
ENDTAB
  0
TABLE
  2
LAYER
  70
1
  0
LAYER
  2
BLACK
  70
0
  62
7
  6
CONTINUOUS
  0
ENDTAB
  0
ENDSEC
  0
SECTION
  2
ENTITIES
0
LINE
8
BLACK
6
CONTINUOUS
10
48.
20
-66.8999999999999915
11
73.
21
-66.8999999999999915
0
LINE
8
BLACK
6
CONTINUOUS
10
73.
20
-66.8999999999999915
11
73.
21
-30.
0
LINE
8
BLACK
6
CONTINUOUS
10
48.
20
-106.
11
48.
21
-66.8999999999999915
0
LINE
8
BLACK
6
CONTINUOUS
10
48.
20
-106.
11
130.
21
-105.9499999999999886
0
LINE
8
BLACK
6
CONTINUOUS
10
130.
20
-30.
11
130.
21
-105.9499999999999886
0
LINE
8
BLACK
6
CONTINUOUS
10
73.
20
-30.
11
130.
21
-30.
0
LINE
8
BLACK
6
CONTINUOUS
10
55.6999999999999957
20
-86.5
11
56.0999999999999943
21
-86.8999999999999915
0
LINE
8
BLACK
6
CONTINUOUS
10
56.0999999999999943
20
-86.5
11
55.6999999999999957
21
-86.8999999999999915
0
LINE
8
BLACK
6
CONTINUOUS
10
63.3499999999999943
20
-97.5
11
63.75
21
-97.8999999999999915
0
LINE
8
BLACK
6
CONTINUOUS
10
63.75
20
-97.5
11
63.3499999999999943
21
-97.8999999999999915
0
LINE
8
BLACK
6
CONTINUOUS
10
64.9500000000000028
20
-100.3999999999999915
11
65.3499999999999943
21
-100.7999999999999972
0
LINE
8
BLACK
6
CONTINUOUS
10
65.3499999999999943
20
-100.3999999999999915
11
64.9500000000000028
21
-100.7999999999999972
0
LINE
8
BLACK
6
CONTINUOUS
10
68.6919999999999931
20
-69.1000999999999976
11
69.0919999999999987
21
-69.5001000000000033
0
LINE
8
BLACK
6
CONTINUOUS
10
69.0919999999999987
20
-69.1000999999999976
11
68.6919999999999931
21
-69.5001000000000033
0
LINE
8
BLACK
6
CONTINUOUS
10
71.5499999999999972
20
-101.1999999999999886
11
71.9500000000000028
21
-101.5999999999999943
0
LINE
8
BLACK
6
CONTINUOUS
10
71.9500000000000028
20
-101.1999999999999886
11
71.5499999999999972
21
-101.5999999999999943
0
LINE
8
BLACK
6
CONTINUOUS
10
71.9500000000000028
20
-87.75
11
72.3499999999999943
21
-88.1499999999999915
0
LINE
8
BLACK
6
CONTINUOUS
10
72.3499999999999943
20
-87.75
11
71.9500000000000028
21
-88.1499999999999915
0
LINE
8
BLACK
6
CONTINUOUS
10
72.
20
-90.0999999999999943
11
72.3999999999999915
21
-90.5
0
LINE
8
BLACK
6
CONTINUOUS
10
72.3999999999999915
20
-90.0999999999999943
11
72.
21
-90.5
0
LINE
8
BLACK
6
CONTINUOUS
10
72.0499999999999972
20
-82.8499999999999943
11
72.4500000000000028
21
-83.25
0
LINE
8
BLACK
6
CONTINUOUS
10
72.4500000000000028
20
-82.8499999999999943
11
72.0499999999999972
21
-83.25
0
LINE
8
BLACK
6
CONTINUOUS
10
72.0999999999999943
20
-85.2999999999999972
11
72.5
21
-85.7000000000000028
0
LINE
8
BLACK
6
CONTINUOUS
10
72.5
20
-85.2999999999999972
11
72.0999999999999943
21
-85.7000000000000028
0
LINE
8
BLACK
6
CONTINUOUS
10
72.2999999999999972
20
-94.0999999999999943
11
72.7000000000000028
21
-94.5
0
LINE
8
BLACK
6
CONTINUOUS
10
72.7000000000000028
20
-94.0999999999999943
11
72.2999999999999972
21
-94.5
0
LINE
8
BLACK
6
CONTINUOUS
10
77.75
20
-101.
11
78.1499999999999915
21
-101.3999999999999915
0
LINE
8
BLACK
6
CONTINUOUS
10
78.1499999999999915
20
-101.
11
77.75
21
-101.3999999999999915
0
LINE
8
BLACK
6
CONTINUOUS
10
82.5499999999999972
20
-90.25
11
82.9500000000000028
21
-90.6499999999999915
0
LINE
8
BLACK
6
CONTINUOUS
10
82.9500000000000028
20
-90.25
11
82.5499999999999972
21
-90.6499999999999915
0
LINE
8
BLACK
6
CONTINUOUS
10
83.5
20
-96.75
11
83.8999999999999915
21
-97.1499999999999915
0
LINE
8
BLACK
6
CONTINUOUS
10
83.8999999999999915
20
-96.75
11
83.5
21
-97.1499999999999915
0
LINE
8
BLACK
6
CONTINUOUS
10
83.5999999999999943
20
-92.8499999999999943
11
84.
21
-93.25
0
LINE
8
BLACK
6
CONTINUOUS
10
84.
20
-92.8499999999999943
11
83.5999999999999943
21
-93.25
0
LINE
8
BLACK
6
CONTINUOUS
10
83.75
20
-80.2000000000000028
11
84.1499999999999915
21
-80.5999999999999943
0
LINE
8
BLACK
6
CONTINUOUS
10
84.1499999999999915
20
-80.2000000000000028
11
83.75
21
-80.5999999999999943
0
LINE
8
BLACK
6
CONTINUOUS
10
84.2402999999999906
20
-102.2326999999999941
11
84.6402999999999963
21
-102.6326999999999998
0
LINE
8
BLACK
6
CONTINUOUS
10
84.6402999999999963
20
-102.2326999999999941
11
84.2402999999999906
21
-102.6326999999999998
0
LINE
8
BLACK
6
CONTINUOUS
10
85.8999999999999915
20
-77.9500000000000028
11
86.2999999999999972
21
-78.3499999999999943
0
LINE
8
BLACK
6
CONTINUOUS
10
86.2999999999999972
20
-77.9500000000000028
11
85.8999999999999915
21
-78.3499999999999943
0
LINE
8
BLACK
6
CONTINUOUS
10
86.0499999999999972
20
-75.2999999999999972
11
86.4500000000000028
21
-75.7000000000000028
0
LINE
8
BLACK
6
CONTINUOUS
10
86.4500000000000028
20
-75.2999999999999972
11
86.0499999999999972
21
-75.7000000000000028
0
LINE
8
BLACK
6
CONTINUOUS
10
90.5999999999999943
20
-98.2999999999999972
11
91.
21
-98.6999999999999886
0
LINE
8
BLACK
6
CONTINUOUS
10
91.
20
-98.2999999999999972
11
90.5999999999999943
21
-98.6999999999999886
0
LINE
8
BLACK
6
CONTINUOUS
10
91.3499999999999943
20
-96.5
11
91.75
21
-96.8999999999999915
0
LINE
8
BLACK
6
CONTINUOUS
10
91.75
20
-96.5
11
91.3499999999999943
21
-96.8999999999999915
0
LINE
8
BLACK
6
CONTINUOUS
10
91.7999999999999972
20
-94.6499999999999915
11
92.2000000000000028
21
-95.0499999999999972
0
LINE
8
BLACK
6
CONTINUOUS
10
92.2000000000000028
20
-94.6499999999999915
11
91.7999999999999972
21
-95.0499999999999972
0
LINE
8
BLACK
6
CONTINUOUS
10
92.7000000000000028
20
-92.7999999999999972
11
93.0999999999999943
21
-93.2000000000000028
0
LINE
8
BLACK
6
CONTINUOUS
10
93.0999999999999943
20
-92.7999999999999972
11
92.7000000000000028
21
-93.2000000000000028
0
LINE
8
BLACK
6
CONTINUOUS
10
93.0999999999999943
20
-80.3999999999999915
11
93.5
21
-80.7999999999999972
0
LINE
8
BLACK
6
CONTINUOUS
10
93.5
20
-80.3999999999999915
11
93.0999999999999943
21
-80.7999999999999972
0
LINE
8
BLACK
6
CONTINUOUS
10
94.2999999999999972
20
-43.9499999999999957
11
94.6999999999999886
21
-44.3500000000000014
0
LINE
8
BLACK
6
CONTINUOUS
10
94.6999999999999886
20
-43.9499999999999957
11
94.2999999999999972
21
-44.3500000000000014
0
LINE
8
BLACK
6
CONTINUOUS
10
96.3999999999999915
20
-41.4499999999999957
11
96.7999999999999972
21
-41.8500000000000014
0
LINE
8
BLACK
6
CONTINUOUS
10
96.7999999999999972
20
-41.4499999999999957
11
96.3999999999999915
21
-41.8500000000000014
0
LINE
8
BLACK
6
CONTINUOUS
10
100.7999999999999972
20
-67.0999999999999943
11
101.1999999999999886
21
-67.5
0
LINE
8
BLACK
6
CONTINUOUS
10
101.1999999999999886
20
-67.0999999999999943
11
100.7999999999999972
21
-67.5
0
LINE
8
BLACK
6
CONTINUOUS
10
101.0499999999999972
20
-73.25
11
101.4499999999999886
21
-73.6499999999999915
0
LINE
8
BLACK
6
CONTINUOUS
10
101.4499999999999886
20
-73.25
11
101.0499999999999972
21
-73.6499999999999915
0
LINE
8
BLACK
6
CONTINUOUS
10
103.4849999999999994
20
-66.7999999999999972
11
103.8849999999999909
21
-67.2000000000000028
0
LINE
8
BLACK
6
CONTINUOUS
10
103.8849999999999909
20
-66.7999999999999972
11
103.4849999999999994
21
-67.2000000000000028
0
LINE
8
BLACK
6
CONTINUOUS
10
104.25
20
-73.8999999999999915
11
104.6499999999999915
21
-74.2999999999999972
0
LINE
8
BLACK
6
CONTINUOUS
10
104.6499999999999915
20
-73.8999999999999915
11
104.25
21
-74.2999999999999972
0
LINE
8
BLACK
6
CONTINUOUS
10
106.5999999999999943
20
-41.4499999999999957
11
107.
21
-41.8500000000000014
0
LINE
8
BLACK
6
CONTINUOUS
10
107.
20
-41.4499999999999957
11
106.5999999999999943
21
-41.8500000000000014
0
LINE
8
BLACK
6
CONTINUOUS
10
108.3999999999999915
20
-48.6999999999999957
11
108.7999999999999972
21
-49.0999999999999943
0
LINE
8
BLACK
6
CONTINUOUS
10
108.7999999999999972
20
-48.6999999999999957
11
108.3999999999999915
21
-49.0999999999999943
0
LINE
8
BLACK
6
CONTINUOUS
10
110.5
20
-71.2000000000000028
11
110.8999999999999915
21
-71.5999999999999943
0
LINE
8
BLACK
6
CONTINUOUS
10
110.8999999999999915
20
-71.2000000000000028
11
110.5
21
-71.5999999999999943
0
LINE
8
BLACK
6
CONTINUOUS
10
110.5
20
-79.8499999999999943
11
110.8999999999999915
21
-80.25
0
LINE
8
BLACK
6
CONTINUOUS
10
110.8999999999999915
20
-79.8499999999999943
11
110.5
21
-80.25
0
LINE
8
BLACK
6
CONTINUOUS
10
110.5499999999999972
20
-74.6499999999999915
11
110.9499999999999886
21
-75.0499999999999972
0
LINE
8
BLACK
6
CONTINUOUS
10
110.9499999999999886
20
-74.6499999999999915
11
110.5499999999999972
21
-75.0499999999999972
0
LINE
8
BLACK
6
CONTINUOUS
10
110.75
20
-35.9499999999999957
11
111.1499999999999915
21
-36.3500000000000014
0
LINE
8
BLACK
6
CONTINUOUS
10
111.1499999999999915
20
-35.9499999999999957
11
110.75
21
-36.3500000000000014
0
LINE
8
BLACK
6
CONTINUOUS
10
112.4722000000000008
20
-62.9746999999999986
11
112.8721999999999923
21
-63.3746999999999971
0
LINE
8
BLACK
6
CONTINUOUS
10
112.8721999999999923
20
-62.9746999999999986
11
112.4722000000000008
21
-63.3746999999999971
0
LINE
8
BLACK
6
CONTINUOUS
10
116.3499999999999943
20
-80.2999999999999972
11
116.75
21
-80.7000000000000028
0
LINE
8
BLACK
6
CONTINUOUS
10
116.75
20
-80.2999999999999972
11
116.3499999999999943
21
-80.7000000000000028
0
LINE
8
BLACK
6
CONTINUOUS
10
116.3999999999999915
20
-78.1499999999999915
11
116.7999999999999972
21
-78.5499999999999972
0
LINE
8
BLACK
6
CONTINUOUS
10
116.7999999999999972
20
-78.1499999999999915
11
116.3999999999999915
21
-78.5499999999999972
0
LINE
8
BLACK
6
CONTINUOUS
10
118.9499999999999886
20
-57.0999999999999943
11
119.3499999999999943
21
-57.5
0
LINE
8
BLACK
6
CONTINUOUS
10
119.3499999999999943
20
-57.0999999999999943
11
118.9499999999999886
21
-57.5
0
LINE
8
BLACK
6
CONTINUOUS
10
121.5499999999999972
20
-84.7999999999999972
11
121.9499999999999886
21
-85.2000000000000028
0
LINE
8
BLACK
6
CONTINUOUS
10
121.9499999999999886
20
-84.7999999999999972
11
121.5499999999999972
21
-85.2000000000000028
0
LINE
8
BLACK
6
CONTINUOUS
10
125.0499999999999972
20
-35.1499999999999986
11
125.4499999999999886
21
-35.5499999999999972
0
LINE
8
BLACK
6
CONTINUOUS
10
125.4499999999999886
20
-35.1499999999999986
11
125.0499999999999972
21
-35.5499999999999972
0
LINE
8
BLACK
6
CONTINUOUS
10
126.75
20
-56.6499999999999986
11
127.1499999999999915
21
-57.0499999999999972
0
LINE
8
BLACK
6
CONTINUOUS
10
127.1499999999999915
20
-56.6499999999999986
11
126.75
21
-57.0499999999999972
0
CIRCLE
8
BLACK
10
66.1700000000000017
20
-72.
40
0.4
0
CIRCLE
8
BLACK
10
67.730000000000004
20
-80.5649999999999977
40
0.4
0
CIRCLE
8
BLACK
10
67.730000000000004
20
-83.1049999999999898
40
0.4
0
CIRCLE
8
BLACK
10
67.730000000000004
20
-85.644999999999996
40
0.4
0
CIRCLE
8
BLACK
10
67.730000000000004
20
-88.1850000000000023
40
0.4
0
CIRCLE
8
BLACK
10
67.730000000000004
20
-90.7249999999999943
40
0.4
0
CIRCLE
8
BLACK
10
67.730000000000004
20
-93.2650000000000006
40
0.4
0
CIRCLE
8
BLACK
10
67.730000000000004
20
-95.8049999999999926
40
0.4
0
CIRCLE
8
BLACK
10
67.730000000000004
20
-98.3449999999999989
40
0.4
0
CIRCLE
8
BLACK
10
67.730000000000004
20
-100.8849999999999909
40
0.4
0
CIRCLE
8
BLACK
10
67.730000000000004
20
-103.4249999999999972
40
0.4
0
CIRCLE
8
BLACK
10
75.3499999999999943
20
-80.5649999999999977
40
0.4
0
CIRCLE
8
BLACK
10
75.3499999999999943
20
-83.1049999999999898
40
0.4
0
CIRCLE
8
BLACK
10
75.3499999999999943
20
-85.644999999999996
40
0.4
0
CIRCLE
8
BLACK
10
75.3499999999999943
20
-88.1850000000000023
40
0.4
0
CIRCLE
8
BLACK
10
75.3499999999999943
20
-90.7249999999999943
40
0.4
0
CIRCLE
8
BLACK
10
75.3499999999999943
20
-93.2650000000000006
40
0.4
0
CIRCLE
8
BLACK
10
75.3499999999999943
20
-95.8049999999999926
40
0.4
0
CIRCLE
8
BLACK
10
75.3499999999999943
20
-98.3449999999999989
40
0.4
0
CIRCLE
8
BLACK
10
75.3499999999999943
20
-100.8849999999999909
40
0.4
0
CIRCLE
8
BLACK
10
75.3499999999999943
20
-103.4249999999999972
40
0.4
0
CIRCLE
8
BLACK
10
76.3299999999999983
20
-72.
40
0.4
0
CIRCLE
8
BLACK
10
77.59729999999999
20
-62.0499999999999972
40
0.4
0
CIRCLE
8
BLACK
10
77.6700000000000017
20
-46.3799999999999955
40
0.4
0
CIRCLE
8
BLACK
10
77.6700000000000017
20
-54.
40
0.4
0
CIRCLE
8
BLACK
10
78.2199999999999989
20
-33.8500000000000014
40
0.4
0
CIRCLE
8
BLACK
10
78.2199999999999989
20
-41.4699999999999989
40
0.4
0
CIRCLE
8
BLACK
10
80.2099999999999937
20
-46.3799999999999955
40
0.4
0
CIRCLE
8
BLACK
10
80.2099999999999937
20
-54.
40
0.4
0
CIRCLE
8
BLACK
10
80.2249999999999943
20
-70.2999999999999972
40
0.4
0
CIRCLE
8
BLACK
10
80.2249999999999943
20
-72.8400000000000034
40
0.4
0
CIRCLE
8
BLACK
10
80.2249999999999943
20
-75.3799999999999955
40
0.4
0
CIRCLE
8
BLACK
10
80.2249999999999943
20
-77.9200000000000017
40
0.4
0
CIRCLE
8
BLACK
10
80.2249999999999943
20
-80.4599999999999937
40
0.4
0
CIRCLE
8
BLACK
10
80.2249999999999943
20
-83.
40
0.4
0
CIRCLE
8
BLACK
10
80.2249999999999943
20
-85.539999999999992
40
0.4
0
CIRCLE
8
BLACK
10
80.2249999999999943
20
-88.0799999999999983
40
0.4
0
CIRCLE
8
BLACK
10
80.2249999999999943
20
-90.6199999999999903
40
0.4
0
CIRCLE
8
BLACK
10
80.2249999999999943
20
-93.1599999999999966
40
0.4
0
CIRCLE
8
BLACK
10
80.2249999999999943
20
-95.6999999999999886
40
0.4
0
CIRCLE
8
BLACK
10
80.2249999999999943
20
-98.2399999999999949
40
0.4
0
CIRCLE
8
BLACK
10
80.2249999999999943
20
-100.7800000000000011
40
0.4
0
CIRCLE
8
BLACK
10
80.2249999999999943
20
-103.3199999999999932
40
0.4
0
CIRCLE
8
BLACK
10
80.7599999999999909
20
-33.8500000000000014
40
0.4
0
CIRCLE
8
BLACK
10
80.7599999999999909
20
-41.4699999999999989
40
0.4
0
CIRCLE
8
BLACK
10
82.59729999999999
20
-62.0499999999999972
40
0.4
0
CIRCLE
8
BLACK
10
82.75
20
-46.3799999999999955
40
0.4
0
CIRCLE
8
BLACK
10
82.75
20
-54.
40
0.4
0
CIRCLE
8
BLACK
10
83.2999999999999972
20
-33.8500000000000014
40
0.4
0
CIRCLE
8
BLACK
10
83.2999999999999972
20
-41.4699999999999989
40
0.4
0
CIRCLE
8
BLACK
10
85.289999999999992
20
-46.3799999999999955
40
0.4
0
CIRCLE
8
BLACK
10
85.289999999999992
20
-54.
40
0.4
0
CIRCLE
8
BLACK
10
85.8399999999999892
20
-33.8500000000000014
40
0.4
0
CIRCLE
8
BLACK
10
85.8399999999999892
20
-41.4699999999999989
40
0.4
0
CIRCLE
8
BLACK
10
87.1499999999999915
20
-56.6199999999999974
40
0.4
0
CIRCLE
8
BLACK
10
87.1499999999999915
20
-66.7800000000000011
40
0.4
0
CIRCLE
8
BLACK
10
87.8299999999999983
20
-46.3799999999999955
40
0.4
0
CIRCLE
8
BLACK
10
87.8299999999999983
20
-54.
40
0.4
0
CIRCLE
8
BLACK
10
88.3799999999999955
20
-33.8500000000000014
40
0.4
0
CIRCLE
8
BLACK
10
88.3799999999999955
20
-41.4699999999999989
40
0.4
0
CIRCLE
8
BLACK
10
90.3699999999999903
20
-46.3799999999999955
40
0.4
0
CIRCLE
8
BLACK
10
90.3699999999999903
20
-54.
40
0.4
0
CIRCLE
8
BLACK
10
90.9200000000000017
20
-33.8500000000000014
40
0.4
0
CIRCLE
8
BLACK
10
90.9200000000000017
20
-41.4699999999999989
40
0.4
0
CIRCLE
8
BLACK
10
92.1473000000000013
20
-61.8999999999999986
40
0.4
0
CIRCLE
8
BLACK
10
92.9099999999999966
20
-46.3799999999999955
40
0.4
0
CIRCLE
8
BLACK
10
92.9099999999999966
20
-54.
40
0.4
0
CIRCLE
8
BLACK
10
93.4599999999999937
20
-33.8500000000000014
40
0.4
0
CIRCLE
8
BLACK
10
93.4599999999999937
20
-41.4699999999999989
40
0.4
0
CIRCLE
8
BLACK
10
95.4499999999999886
20
-46.3799999999999955
40
0.4
0
CIRCLE
8
BLACK
10
95.4499999999999886
20
-54.
40
0.4
0
CIRCLE
8
BLACK
10
95.4649999999999892
20
-70.2999999999999972
40
0.4
0
CIRCLE
8
BLACK
10
95.4649999999999892
20
-72.8400000000000034
40
0.4
0
CIRCLE
8
BLACK
10
95.4649999999999892
20
-75.3799999999999955
40
0.4
0
CIRCLE
8
BLACK
10
95.4649999999999892
20
-77.9200000000000017
40
0.4
0
CIRCLE
8
BLACK
10
95.4649999999999892
20
-80.4599999999999937
40
0.4
0
CIRCLE
8
BLACK
10
95.4649999999999892
20
-83.
40
0.4
0
CIRCLE
8
BLACK
10
95.4649999999999892
20
-85.539999999999992
40
0.4
0
CIRCLE
8
BLACK
10
95.4649999999999892
20
-88.0799999999999983
40
0.4
0
CIRCLE
8
BLACK
10
95.4649999999999892
20
-90.6199999999999903
40
0.4
0
CIRCLE
8
BLACK
10
95.4649999999999892
20
-93.1599999999999966
40
0.4
0
CIRCLE
8
BLACK
10
95.4649999999999892
20
-95.6999999999999886
40
0.4
0
CIRCLE
8
BLACK
10
95.4649999999999892
20
-98.2399999999999949
40
0.4
0
CIRCLE
8
BLACK
10
95.4649999999999892
20
-100.7800000000000011
40
0.4
0
CIRCLE
8
BLACK
10
95.4649999999999892
20
-103.3199999999999932
40
0.4
0
CIRCLE
8
BLACK
10
95.9472999999999985
20
-61.8999999999999986
40
0.4
0
CIRCLE
8
BLACK
10
99.125
20
-70.3999999999999915
40
0.4
0
CIRCLE
8
BLACK
10
99.125
20
-72.9399999999999977
40
0.4
0
CIRCLE
8
BLACK
10
99.125
20
-75.4799999999999898
40
0.4
0
CIRCLE
8
BLACK
10
99.125
20
-78.019999999999996
40
0.4
0
CIRCLE
8
BLACK
10
99.125
20
-80.5600000000000023
40
0.4
0
CIRCLE
8
BLACK
10
99.125
20
-83.0999999999999943
40
0.4
0
CIRCLE
8
BLACK
10
99.125
20
-85.6400000000000006
40
0.4
0
CIRCLE
8
BLACK
10
99.125
20
-88.1799999999999926
40
0.4
0
CIRCLE
8
BLACK
10
99.125
20
-90.7199999999999989
40
0.4
0
CIRCLE
8
BLACK
10
99.125
20
-93.2599999999999909
40
0.4
0
CIRCLE
8
BLACK
10
99.125
20
-95.7999999999999972
40
0.4
0
CIRCLE
8
BLACK
10
99.125
20
-98.3399999999999892
40
0.4
0
CIRCLE
8
BLACK
10
99.125
20
-100.8799999999999955
40
0.4
0
CIRCLE
8
BLACK
10
99.125
20
-103.4200000000000017
40
0.4
0
CIRCLE
8
BLACK
10
100.414999999999992
20
-46.4499999999999957
40
0.4
0
CIRCLE
8
BLACK
10
100.414999999999992
20
-54.0700000000000003
40
0.4
0
CIRCLE
8
BLACK
10
100.5099999999999909
20
-57.1299999999999955
40
0.4
0
CIRCLE
8
BLACK
10
100.5099999999999909
20
-64.75
40
0.4
0
CIRCLE
8
BLACK
10
101.5799999999999983
20
-34.0399999999999991
40
0.4
0
CIRCLE
8
BLACK
10
101.5799999999999983
20
-41.6599999999999966
40
0.4
0
CIRCLE
8
BLACK
10
102.9549999999999983
20
-46.4499999999999957
40
0.4
0
CIRCLE
8
BLACK
10
102.9549999999999983
20
-54.0700000000000003
40
0.4
0
CIRCLE
8
BLACK
10
103.0499999999999972
20
-57.1299999999999955
40
0.4
0
CIRCLE
8
BLACK
10
103.0499999999999972
20
-64.75
40
0.4
0
CIRCLE
8
BLACK
10
105.4949999999999903
20
-46.4499999999999957
40
0.4
0
CIRCLE
8
BLACK
10
105.4949999999999903
20
-54.0700000000000003
40
0.4
0
CIRCLE
8
BLACK
10
105.5899999999999892
20
-57.1299999999999955
40
0.4
0
CIRCLE
8
BLACK
10
105.5899999999999892
20
-64.75
40
0.4
0
CIRCLE
8
BLACK
10
108.0349999999999966
20
-46.4499999999999957
40
0.4
0
CIRCLE
8
BLACK
10
108.0349999999999966
20
-54.0700000000000003
40
0.4
0
CIRCLE
8
BLACK
10
108.1299999999999955
20
-57.1299999999999955
40
0.4
0
CIRCLE
8
BLACK
10
108.1299999999999955
20
-64.75
40
0.4
0
CIRCLE
8
BLACK
10
110.5749999999999886
20
-46.4499999999999957
40
0.4
0
CIRCLE
8
BLACK
10
110.5749999999999886
20
-54.0700000000000003
40
0.4
0
CIRCLE
8
BLACK
10
110.6700000000000017
20
-57.1299999999999955
40
0.4
0
CIRCLE
8
BLACK
10
110.6700000000000017
20
-64.75
40
0.4
0
CIRCLE
8
BLACK
10
113.1149999999999949
20
-46.4499999999999957
40
0.4
0
CIRCLE
8
BLACK
10
113.1149999999999949
20
-54.0700000000000003
40
0.4
0
CIRCLE
8
BLACK
10
113.2099999999999937
20
-57.1299999999999955
40
0.4
0
CIRCLE
8
BLACK
10
113.2099999999999937
20
-64.75
40
0.4
0
CIRCLE
8
BLACK
10
114.3649999999999949
20
-70.3999999999999915
40
0.4
0
CIRCLE
8
BLACK
10
114.3649999999999949
20
-72.9399999999999977
40
0.4
0
CIRCLE
8
BLACK
10
114.3649999999999949
20
-75.4799999999999898
40
0.4
0
CIRCLE
8
BLACK
10
114.3649999999999949
20
-78.019999999999996
40
0.4
0
CIRCLE
8
BLACK
10
114.3649999999999949
20
-80.5600000000000023
40
0.4
0
CIRCLE
8
BLACK
10
114.3649999999999949
20
-83.0999999999999943
40
0.4
0
CIRCLE
8
BLACK
10
114.3649999999999949
20
-85.6400000000000006
40
0.4
0
CIRCLE
8
BLACK
10
114.3649999999999949
20
-88.1799999999999926
40
0.4
0
CIRCLE
8
BLACK
10
114.3649999999999949
20
-90.7199999999999989
40
0.4
0
CIRCLE
8
BLACK
10
114.3649999999999949
20
-93.2599999999999909
40
0.4
0
CIRCLE
8
BLACK
10
114.3649999999999949
20
-95.7999999999999972
40
0.4
0
CIRCLE
8
BLACK
10
114.3649999999999949
20
-98.3399999999999892
40
0.4
0
CIRCLE
8
BLACK
10
114.3649999999999949
20
-100.8799999999999955
40
0.4
0
CIRCLE
8
BLACK
10
114.3649999999999949
20
-103.4200000000000017
40
0.4
0
CIRCLE
8
BLACK
10
115.6550000000000011
20
-46.4499999999999957
40
0.4
0
CIRCLE
8
BLACK
10
115.6550000000000011
20
-54.0700000000000003
40
0.4
0
CIRCLE
8
BLACK
10
115.75
20
-57.1299999999999955
40
0.4
0
CIRCLE
8
BLACK
10
115.75
20
-64.75
40
0.4
0
CIRCLE
8
BLACK
10
116.8199999999999932
20
-34.0399999999999991
40
0.4
0
CIRCLE
8
BLACK
10
116.8199999999999932
20
-41.6599999999999966
40
0.4
0
CIRCLE
8
BLACK
10
118.1949999999999932
20
-46.4499999999999957
40
0.4
0
CIRCLE
8
BLACK
10
118.1949999999999932
20
-54.0700000000000003
40
0.4
0
CIRCLE
8
BLACK
10
118.5
20
-82.8699999999999903
40
0.4
0
CIRCLE
8
BLACK
10
118.5
20
-85.4099999999999966
40
0.4
0
CIRCLE
8
BLACK
10
118.5
20
-87.9500000000000028
40
0.4
0
CIRCLE
8
BLACK
10
118.5
20
-90.4899999999999949
40
0.4
0
CIRCLE
8
BLACK
10
118.5
20
-93.0300000000000011
40
0.4
0
CIRCLE
8
BLACK
10
118.5
20
-95.5699999999999932
40
0.4
0
CIRCLE
8
BLACK
10
118.5
20
-98.1099999999999994
40
0.4
0
CIRCLE
8
BLACK
10
118.5
20
-100.6499999999999915
40
0.4
0
CIRCLE
8
BLACK
10
118.5
20
-103.1899999999999977
40
0.4
0
CIRCLE
8
BLACK
10
120.7349999999999994
20
-46.4499999999999957
40
0.4
0
CIRCLE
8
BLACK
10
120.7349999999999994
20
-54.0700000000000003
40
0.4
0
CIRCLE
8
BLACK
10
123.2749999999999915
20
-46.4499999999999957
40
0.4
0
CIRCLE
8
BLACK
10
123.2749999999999915
20
-54.0700000000000003
40
0.4
0
LINE
8
BLACK
6
CONTINUOUS
10
59.6099999999999994
20
-68.1499999999999915
11
59.6099999999999994
21
-69.1499999999999915
0
LINE
8
BLACK
6
CONTINUOUS
10
59.1099999999999994
20
-68.6499999999999915
11
60.1099999999999994
21
-68.6499999999999915
0
LINE
8
BLACK
6
CONTINUOUS
10
59.6099999999999994
20
-70.6899999999999977
11
59.6099999999999994
21
-71.6899999999999977
0
LINE
8
BLACK
6
CONTINUOUS
10
59.1099999999999994
20
-71.1899999999999977
11
60.1099999999999994
21
-71.1899999999999977
0
LINE
8
BLACK
6
CONTINUOUS
10
59.6099999999999994
20
-73.2299999999999898
11
59.6099999999999994
21
-74.2299999999999898
0
LINE
8
BLACK
6
CONTINUOUS
10
59.1099999999999994
20
-73.7299999999999898
11
60.1099999999999994
21
-73.7299999999999898
0
LINE
8
BLACK
6
CONTINUOUS
10
59.6099999999999994
20
-75.769999999999996
11
59.6099999999999994
21
-76.769999999999996
0
LINE
8
BLACK
6
CONTINUOUS
10
59.1099999999999994
20
-76.269999999999996
11
60.1099999999999994
21
-76.269999999999996
0
LINE
8
BLACK
6
CONTINUOUS
10
59.6099999999999994
20
-78.3100000000000023
11
59.6099999999999994
21
-79.3100000000000023
0
LINE
8
BLACK
6
CONTINUOUS
10
59.1099999999999994
20
-78.8100000000000023
11
60.1099999999999994
21
-78.8100000000000023
0
LINE
8
BLACK
6
CONTINUOUS
10
59.6099999999999994
20
-80.8499999999999943
11
59.6099999999999994
21
-81.8499999999999943
0
LINE
8
BLACK
6
CONTINUOUS
10
59.1099999999999994
20
-81.3499999999999943
11
60.1099999999999994
21
-81.3499999999999943
0
LINE
8
BLACK
6
CONTINUOUS
10
59.6099999999999994
20
-83.3900000000000006
11
59.6099999999999994
21
-84.3900000000000006
0
LINE
8
BLACK
6
CONTINUOUS
10
59.1099999999999994
20
-83.8900000000000006
11
60.1099999999999994
21
-83.8900000000000006
0
LINE
8
BLACK
6
CONTINUOUS
10
59.6099999999999994
20
-85.9299999999999926
11
59.6099999999999994
21
-86.9299999999999926
0
LINE
8
BLACK
6
CONTINUOUS
10
59.1099999999999994
20
-86.4299999999999926
11
60.1099999999999994
21
-86.4299999999999926
0
LINE
8
BLACK
6
CONTINUOUS
10
59.6099999999999994
20
-88.4699999999999989
11
59.6099999999999994
21
-89.4699999999999989
0
LINE
8
BLACK
6
CONTINUOUS
10
59.1099999999999994
20
-88.9699999999999989
11
60.1099999999999994
21
-88.9699999999999989
0
LINE
8
BLACK
6
CONTINUOUS
10
59.6099999999999994
20
-91.0099999999999909
11
59.6099999999999994
21
-92.0099999999999909
0
LINE
8
BLACK
6
CONTINUOUS
10
59.1099999999999994
20
-91.5099999999999909
11
60.1099999999999994
21
-91.5099999999999909
0
LINE
8
BLACK
6
CONTINUOUS
10
59.6099999999999994
20
-93.5499999999999972
11
59.6099999999999994
21
-94.5499999999999972
0
LINE
8
BLACK
6
CONTINUOUS
10
59.1099999999999994
20
-94.0499999999999972
11
60.1099999999999994
21
-94.0499999999999972
0
LINE
8
BLACK
6
CONTINUOUS
10
59.6099999999999994
20
-96.0899999999999892
11
59.6099999999999994
21
-97.0899999999999892
0
LINE
8
BLACK
6
CONTINUOUS
10
59.1099999999999994
20
-96.5899999999999892
11
60.1099999999999994
21
-96.5899999999999892
0
LINE
8
BLACK
6
CONTINUOUS
10
59.6099999999999994
20
-98.6299999999999955
11
59.6099999999999994
21
-99.6299999999999955
0
LINE
8
BLACK
6
CONTINUOUS
10
59.1099999999999994
20
-99.1299999999999955
11
60.1099999999999994
21
-99.1299999999999955
0
LINE
8
BLACK
6
CONTINUOUS
10
59.6099999999999994
20
-101.1700000000000017
11
59.6099999999999994
21
-102.1700000000000017
0
LINE
8
BLACK
6
CONTINUOUS
10
59.1099999999999994
20
-101.6700000000000017
11
60.1099999999999994
21
-101.6700000000000017
0
LINE
8
BLACK
6
CONTINUOUS
10
59.6099999999999994
20
-103.7099999999999937
11
59.6099999999999994
21
-104.7099999999999937
0
LINE
8
BLACK
6
CONTINUOUS
10
59.1099999999999994
20
-104.2099999999999937
11
60.1099999999999994
21
-104.2099999999999937
0
LINE
8
BLACK
6
CONTINUOUS
10
62.1499999999999986
20
-68.1499999999999915
11
62.1499999999999986
21
-69.1499999999999915
0
LINE
8
BLACK
6
CONTINUOUS
10
61.6499999999999986
20
-68.6499999999999915
11
62.6499999999999986
21
-68.6499999999999915
0
LINE
8
BLACK
6
CONTINUOUS
10
62.1499999999999986
20
-70.6899999999999977
11
62.1499999999999986
21
-71.6899999999999977
0
LINE
8
BLACK
6
CONTINUOUS
10
61.6499999999999986
20
-71.1899999999999977
11
62.6499999999999986
21
-71.1899999999999977
0
LINE
8
BLACK
6
CONTINUOUS
10
62.1499999999999986
20
-73.2299999999999898
11
62.1499999999999986
21
-74.2299999999999898
0
LINE
8
BLACK
6
CONTINUOUS
10
61.6499999999999986
20
-73.7299999999999898
11
62.6499999999999986
21
-73.7299999999999898
0
LINE
8
BLACK
6
CONTINUOUS
10
62.1499999999999986
20
-75.769999999999996
11
62.1499999999999986
21
-76.769999999999996
0
LINE
8
BLACK
6
CONTINUOUS
10
61.6499999999999986
20
-76.269999999999996
11
62.6499999999999986
21
-76.269999999999996
0
LINE
8
BLACK
6
CONTINUOUS
10
62.1499999999999986
20
-78.3100000000000023
11
62.1499999999999986
21
-79.3100000000000023
0
LINE
8
BLACK
6
CONTINUOUS
10
61.6499999999999986
20
-78.8100000000000023
11
62.6499999999999986
21
-78.8100000000000023
0
LINE
8
BLACK
6
CONTINUOUS
10
62.1499999999999986
20
-80.8499999999999943
11
62.1499999999999986
21
-81.8499999999999943
0
LINE
8
BLACK
6
CONTINUOUS
10
61.6499999999999986
20
-81.3499999999999943
11
62.6499999999999986
21
-81.3499999999999943
0
LINE
8
BLACK
6
CONTINUOUS
10
62.1499999999999986
20
-83.3900000000000006
11
62.1499999999999986
21
-84.3900000000000006
0
LINE
8
BLACK
6
CONTINUOUS
10
61.6499999999999986
20
-83.8900000000000006
11
62.6499999999999986
21
-83.8900000000000006
0
LINE
8
BLACK
6
CONTINUOUS
10
62.1499999999999986
20
-85.9299999999999926
11
62.1499999999999986
21
-86.9299999999999926
0
LINE
8
BLACK
6
CONTINUOUS
10
61.6499999999999986
20
-86.4299999999999926
11
62.6499999999999986
21
-86.4299999999999926
0
LINE
8
BLACK
6
CONTINUOUS
10
62.1499999999999986
20
-88.4699999999999989
11
62.1499999999999986
21
-89.4699999999999989
0
LINE
8
BLACK
6
CONTINUOUS
10
61.6499999999999986
20
-88.9699999999999989
11
62.6499999999999986
21
-88.9699999999999989
0
LINE
8
BLACK
6
CONTINUOUS
10
62.1499999999999986
20
-91.0099999999999909
11
62.1499999999999986
21
-92.0099999999999909
0
LINE
8
BLACK
6
CONTINUOUS
10
61.6499999999999986
20
-91.5099999999999909
11
62.6499999999999986
21
-91.5099999999999909
0
LINE
8
BLACK
6
CONTINUOUS
10
62.1499999999999986
20
-93.5499999999999972
11
62.1499999999999986
21
-94.5499999999999972
0
LINE
8
BLACK
6
CONTINUOUS
10
61.6499999999999986
20
-94.0499999999999972
11
62.6499999999999986
21
-94.0499999999999972
0
LINE
8
BLACK
6
CONTINUOUS
10
62.1499999999999986
20
-96.0899999999999892
11
62.1499999999999986
21
-97.0899999999999892
0
LINE
8
BLACK
6
CONTINUOUS
10
61.6499999999999986
20
-96.5899999999999892
11
62.6499999999999986
21
-96.5899999999999892
0
LINE
8
BLACK
6
CONTINUOUS
10
62.1499999999999986
20
-98.6299999999999955
11
62.1499999999999986
21
-99.6299999999999955
0
LINE
8
BLACK
6
CONTINUOUS
10
61.6499999999999986
20
-99.1299999999999955
11
62.6499999999999986
21
-99.1299999999999955
0
LINE
8
BLACK
6
CONTINUOUS
10
62.1499999999999986
20
-101.1700000000000017
11
62.1499999999999986
21
-102.1700000000000017
0
LINE
8
BLACK
6
CONTINUOUS
10
61.6499999999999986
20
-101.6700000000000017
11
62.6499999999999986
21
-101.6700000000000017
0
LINE
8
BLACK
6
CONTINUOUS
10
62.1499999999999986
20
-103.7099999999999937
11
62.1499999999999986
21
-104.7099999999999937
0
LINE
8
BLACK
6
CONTINUOUS
10
61.6499999999999986
20
-104.2099999999999937
11
62.6499999999999986
21
-104.2099999999999937
0
LINE
8
BLACK
6
CONTINUOUS
10
124.8599999999999994
20
-61.8599999999999994
11
124.8599999999999994
21
-62.8599999999999994
0
LINE
8
BLACK
6
CONTINUOUS
10
124.3599999999999994
20
-62.3599999999999994
11
125.3599999999999994
21
-62.3599999999999994
0
LINE
8
BLACK
6
CONTINUOUS
10
124.8599999999999994
20
-64.3999999999999915
11
124.8599999999999994
21
-65.3999999999999915
0
LINE
8
BLACK
6
CONTINUOUS
10
124.3599999999999994
20
-64.8999999999999915
11
125.3599999999999994
21
-64.8999999999999915
0
LINE
8
BLACK
6
CONTINUOUS
10
124.8599999999999994
20
-66.9399999999999977
11
124.8599999999999994
21
-67.9399999999999977
0
LINE
8
BLACK
6
CONTINUOUS
10
124.3599999999999994
20
-67.4399999999999977
11
125.3599999999999994
21
-67.4399999999999977
0
LINE
8
BLACK
6
CONTINUOUS
10
124.8599999999999994
20
-69.4799999999999898
11
124.8599999999999994
21
-70.4799999999999898
0
LINE
8
BLACK
6
CONTINUOUS
10
124.3599999999999994
20
-69.9799999999999898
11
125.3599999999999994
21
-69.9799999999999898
0
LINE
8
BLACK
6
CONTINUOUS
10
124.8599999999999994
20
-72.019999999999996
11
124.8599999999999994
21
-73.019999999999996
0
LINE
8
BLACK
6
CONTINUOUS
10
124.3599999999999994
20
-72.519999999999996
11
125.3599999999999994
21
-72.519999999999996
0
LINE
8
BLACK
6
CONTINUOUS
10
124.8599999999999994
20
-74.5600000000000023
11
124.8599999999999994
21
-75.5600000000000023
0
LINE
8
BLACK
6
CONTINUOUS
10
124.3599999999999994
20
-75.0600000000000023
11
125.3599999999999994
21
-75.0600000000000023
0
LINE
8
BLACK
6
CONTINUOUS
10
124.8599999999999994
20
-77.0999999999999943
11
124.8599999999999994
21
-78.0999999999999943
0
LINE
8
BLACK
6
CONTINUOUS
10
124.3599999999999994
20
-77.5999999999999943
11
125.3599999999999994
21
-77.5999999999999943
0
LINE
8
BLACK
6
CONTINUOUS
10
124.8599999999999994
20
-79.6400000000000006
11
124.8599999999999994
21
-80.6400000000000006
0
LINE
8
BLACK
6
CONTINUOUS
10
124.3599999999999994
20
-80.1400000000000006
11
125.3599999999999994
21
-80.1400000000000006
0
LINE
8
BLACK
6
CONTINUOUS
10
124.8599999999999994
20
-82.1799999999999926
11
124.8599999999999994
21
-83.1799999999999926
0
LINE
8
BLACK
6
CONTINUOUS
10
124.3599999999999994
20
-82.6799999999999926
11
125.3599999999999994
21
-82.6799999999999926
0
LINE
8
BLACK
6
CONTINUOUS
10
124.8599999999999994
20
-84.7199999999999989
11
124.8599999999999994
21
-85.7199999999999989
0
LINE
8
BLACK
6
CONTINUOUS
10
124.3599999999999994
20
-85.2199999999999989
11
125.3599999999999994
21
-85.2199999999999989
0
LINE
8
BLACK
6
CONTINUOUS
10
124.8599999999999994
20
-87.2599999999999909
11
124.8599999999999994
21
-88.2599999999999909
0
LINE
8
BLACK
6
CONTINUOUS
10
124.3599999999999994
20
-87.7599999999999909
11
125.3599999999999994
21
-87.7599999999999909
0
LINE
8
BLACK
6
CONTINUOUS
10
124.8599999999999994
20
-89.7999999999999972
11
124.8599999999999994
21
-90.7999999999999972
0
LINE
8
BLACK
6
CONTINUOUS
10
124.3599999999999994
20
-90.2999999999999972
11
125.3599999999999994
21
-90.2999999999999972
0
LINE
8
BLACK
6
CONTINUOUS
10
124.8599999999999994
20
-92.3399999999999892
11
124.8599999999999994
21
-93.3399999999999892
0
LINE
8
BLACK
6
CONTINUOUS
10
124.3599999999999994
20
-92.8399999999999892
11
125.3599999999999994
21
-92.8399999999999892
0
LINE
8
BLACK
6
CONTINUOUS
10
124.8599999999999994
20
-94.8799999999999955
11
124.8599999999999994
21
-95.8799999999999955
0
LINE
8
BLACK
6
CONTINUOUS
10
124.3599999999999994
20
-95.3799999999999955
11
125.3599999999999994
21
-95.3799999999999955
0
LINE
8
BLACK
6
CONTINUOUS
10
124.8599999999999994
20
-97.4200000000000017
11
124.8599999999999994
21
-98.4200000000000017
0
LINE
8
BLACK
6
CONTINUOUS
10
124.3599999999999994
20
-97.9200000000000017
11
125.3599999999999994
21
-97.9200000000000017
0
LINE
8
BLACK
6
CONTINUOUS
10
124.8599999999999994
20
-99.9599999999999937
11
124.8599999999999994
21
-100.9599999999999937
0
LINE
8
BLACK
6
CONTINUOUS
10
124.3599999999999994
20
-100.4599999999999937
11
125.3599999999999994
21
-100.4599999999999937
0
LINE
8
BLACK
6
CONTINUOUS
10
124.8599999999999994
20
-102.5
11
124.8599999999999994
21
-103.5
0
LINE
8
BLACK
6
CONTINUOUS
10
124.3599999999999994
20
-103.
11
125.3599999999999994
21
-103.
0
LINE
8
BLACK
6
CONTINUOUS
10
127.3999999999999915
20
-61.8599999999999994
11
127.3999999999999915
21
-62.8599999999999994
0
LINE
8
BLACK
6
CONTINUOUS
10
126.8999999999999915
20
-62.3599999999999994
11
127.8999999999999915
21
-62.3599999999999994
0
LINE
8
BLACK
6
CONTINUOUS
10
127.3999999999999915
20
-64.3999999999999915
11
127.3999999999999915
21
-65.3999999999999915
0
LINE
8
BLACK
6
CONTINUOUS
10
126.8999999999999915
20
-64.8999999999999915
11
127.8999999999999915
21
-64.8999999999999915
0
LINE
8
BLACK
6
CONTINUOUS
10
127.3999999999999915
20
-66.9399999999999977
11
127.3999999999999915
21
-67.9399999999999977
0
LINE
8
BLACK
6
CONTINUOUS
10
126.8999999999999915
20
-67.4399999999999977
11
127.8999999999999915
21
-67.4399999999999977
0
LINE
8
BLACK
6
CONTINUOUS
10
127.3999999999999915
20
-69.4799999999999898
11
127.3999999999999915
21
-70.4799999999999898
0
LINE
8
BLACK
6
CONTINUOUS
10
126.8999999999999915
20
-69.9799999999999898
11
127.8999999999999915
21
-69.9799999999999898
0
LINE
8
BLACK
6
CONTINUOUS
10
127.3999999999999915
20
-72.019999999999996
11
127.3999999999999915
21
-73.019999999999996
0
LINE
8
BLACK
6
CONTINUOUS
10
126.8999999999999915
20
-72.519999999999996
11
127.8999999999999915
21
-72.519999999999996
0
LINE
8
BLACK
6
CONTINUOUS
10
127.3999999999999915
20
-74.5600000000000023
11
127.3999999999999915
21
-75.5600000000000023
0
LINE
8
BLACK
6
CONTINUOUS
10
126.8999999999999915
20
-75.0600000000000023
11
127.8999999999999915
21
-75.0600000000000023
0
LINE
8
BLACK
6
CONTINUOUS
10
127.3999999999999915
20
-77.0999999999999943
11
127.3999999999999915
21
-78.0999999999999943
0
LINE
8
BLACK
6
CONTINUOUS
10
126.8999999999999915
20
-77.5999999999999943
11
127.8999999999999915
21
-77.5999999999999943
0
LINE
8
BLACK
6
CONTINUOUS
10
127.3999999999999915
20
-79.6400000000000006
11
127.3999999999999915
21
-80.6400000000000006
0
LINE
8
BLACK
6
CONTINUOUS
10
126.8999999999999915
20
-80.1400000000000006
11
127.8999999999999915
21
-80.1400000000000006
0
LINE
8
BLACK
6
CONTINUOUS
10
127.3999999999999915
20
-82.1799999999999926
11
127.3999999999999915
21
-83.1799999999999926
0
LINE
8
BLACK
6
CONTINUOUS
10
126.8999999999999915
20
-82.6799999999999926
11
127.8999999999999915
21
-82.6799999999999926
0
LINE
8
BLACK
6
CONTINUOUS
10
127.3999999999999915
20
-84.7199999999999989
11
127.3999999999999915
21
-85.7199999999999989
0
LINE
8
BLACK
6
CONTINUOUS
10
126.8999999999999915
20
-85.2199999999999989
11
127.8999999999999915
21
-85.2199999999999989
0
LINE
8
BLACK
6
CONTINUOUS
10
127.3999999999999915
20
-87.2599999999999909
11
127.3999999999999915
21
-88.2599999999999909
0
LINE
8
BLACK
6
CONTINUOUS
10
126.8999999999999915
20
-87.7599999999999909
11
127.8999999999999915
21
-87.7599999999999909
0
LINE
8
BLACK
6
CONTINUOUS
10
127.3999999999999915
20
-89.7999999999999972
11
127.3999999999999915
21
-90.7999999999999972
0
LINE
8
BLACK
6
CONTINUOUS
10
126.8999999999999915
20
-90.2999999999999972
11
127.8999999999999915
21
-90.2999999999999972
0
LINE
8
BLACK
6
CONTINUOUS
10
127.3999999999999915
20
-92.3399999999999892
11
127.3999999999999915
21
-93.3399999999999892
0
LINE
8
BLACK
6
CONTINUOUS
10
126.8999999999999915
20
-92.8399999999999892
11
127.8999999999999915
21
-92.8399999999999892
0
LINE
8
BLACK
6
CONTINUOUS
10
127.3999999999999915
20
-94.8799999999999955
11
127.3999999999999915
21
-95.8799999999999955
0
LINE
8
BLACK
6
CONTINUOUS
10
126.8999999999999915
20
-95.3799999999999955
11
127.8999999999999915
21
-95.3799999999999955
0
LINE
8
BLACK
6
CONTINUOUS
10
127.3999999999999915
20
-97.4200000000000017
11
127.3999999999999915
21
-98.4200000000000017
0
LINE
8
BLACK
6
CONTINUOUS
10
126.8999999999999915
20
-97.9200000000000017
11
127.8999999999999915
21
-97.9200000000000017
0
LINE
8
BLACK
6
CONTINUOUS
10
127.3999999999999915
20
-99.9599999999999937
11
127.3999999999999915
21
-100.9599999999999937
0
LINE
8
BLACK
6
CONTINUOUS
10
126.8999999999999915
20
-100.4599999999999937
11
127.8999999999999915
21
-100.4599999999999937
0
LINE
8
BLACK
6
CONTINUOUS
10
127.3999999999999915
20
-102.5
11
127.3999999999999915
21
-103.5
0
LINE
8
BLACK
6
CONTINUOUS
10
126.8999999999999915
20
-103.
11
127.8999999999999915
21
-103.
0
LINE
8
BLACK
6
CONTINUOUS
10
50.5577679999999958
20
-109.1648379999999889
11
50.5577679999999958
21
-107.1648379999999889
0
LINE
8
BLACK
6
CONTINUOUS
10
50.5577679999999958
20
-107.1648379999999889
11
51.0339579999999984
21
-107.1648379999999889
0
LINE
8
BLACK
6
CONTINUOUS
10
51.0339579999999984
20
-107.1648379999999889
11
51.3196729999999945
21
-107.260075999999998
0
LINE
8
BLACK
6
CONTINUOUS
10
51.3196729999999945
20
-107.260075999999998
11
51.5101489999999984
21
-107.4505520000000018
0
LINE
8
BLACK
6
CONTINUOUS
10
51.5101489999999984
20
-107.4505520000000018
11
51.6053870000000003
21
-107.6410279999999915
0
LINE
8
BLACK
6
CONTINUOUS
10
51.6053870000000003
20
-107.6410279999999915
11
51.7006249999999952
21
-108.0219799999999992
0
LINE
8
BLACK
6
CONTINUOUS
10
51.7006249999999952
20
-108.0219799999999992
11
51.7006249999999952
21
-108.3076949999999954
0
LINE
8
BLACK
6
CONTINUOUS
10
51.7006249999999952
20
-108.3076949999999954
11
51.6053870000000003
21
-108.6886469999999889
0
LINE
8
BLACK
6
CONTINUOUS
10
51.6053870000000003
20
-108.6886469999999889
11
51.5101489999999984
21
-108.8791229999999928
0
LINE
8
BLACK
6
CONTINUOUS
10
51.5101489999999984
20
-108.8791229999999928
11
51.3196729999999945
21
-109.0695999999999941
0
LINE
8
BLACK
6
CONTINUOUS
10
51.3196729999999945
20
-109.0695999999999941
11
51.0339579999999984
21
-109.1648379999999889
0
LINE
8
BLACK
6
CONTINUOUS
10
51.0339579999999984
20
-109.1648379999999889
11
50.5577679999999958
21
-109.1648379999999889
0
LINE
8
BLACK
6
CONTINUOUS
10
52.5577679999999958
20
-109.1648379999999889
11
52.5577679999999958
21
-107.8315039999999954
0
LINE
8
BLACK
6
CONTINUOUS
10
52.5577679999999958
20
-108.2124570000000006
11
52.6530059999999978
21
-108.0219799999999992
0
LINE
8
BLACK
6
CONTINUOUS
10
52.6530059999999978
20
-108.0219799999999992
11
52.7482439999999997
21
-107.9267419999999902
0
LINE
8
BLACK
6
CONTINUOUS
10
52.7482439999999997
20
-107.9267419999999902
11
52.9387199999999964
21
-107.8315039999999954
0
LINE
8
BLACK
6
CONTINUOUS
10
52.9387199999999964
20
-107.8315039999999954
11
53.1291969999999978
21
-107.8315039999999954
0
LINE
8
BLACK
6
CONTINUOUS
10
53.7958629999999971
20
-109.1648379999999889
11
53.7958629999999971
21
-107.8315039999999954
0
LINE
8
BLACK
6
CONTINUOUS
10
53.7958629999999971
20
-107.1648379999999889
11
53.7006249999999952
21
-107.260075999999998
0
LINE
8
BLACK
6
CONTINUOUS
10
53.7006249999999952
20
-107.260075999999998
11
53.7958629999999971
21
-107.3553139999999928
0
LINE
8
BLACK
6
CONTINUOUS
10
53.7958629999999971
20
-107.3553139999999928
11
53.891100999999999
21
-107.260075999999998
0
LINE
8
BLACK
6
CONTINUOUS
10
53.891100999999999
20
-107.260075999999998
11
53.7958629999999971
21
-107.1648379999999889
0
LINE
8
BLACK
6
CONTINUOUS
10
53.7958629999999971
20
-107.1648379999999889
11
53.7958629999999971
21
-107.3553139999999928
0
LINE
8
BLACK
6
CONTINUOUS
10
55.0339579999999984
20
-109.1648379999999889
11
54.8434819999999945
21
-109.0695999999999941
0
LINE
8
BLACK
6
CONTINUOUS
10
54.8434819999999945
20
-109.0695999999999941
11
54.7482439999999997
21
-108.8791229999999928
0
LINE
8
BLACK
6
CONTINUOUS
10
54.7482439999999997
20
-108.8791229999999928
11
54.7482439999999997
21
-107.1648379999999889
0
LINE
8
BLACK
6
CONTINUOUS
10
56.0815769999999958
20
-109.1648379999999889
11
55.891100999999999
21
-109.0695999999999941
0
LINE
8
BLACK
6
CONTINUOUS
10
55.891100999999999
20
-109.0695999999999941
11
55.7958629999999971
21
-108.8791229999999928
0
LINE
8
BLACK
6
CONTINUOUS
10
55.7958629999999971
20
-108.8791229999999928
11
55.7958629999999971
21
-107.1648379999999889
0
LINE
8
BLACK
6
CONTINUOUS
10
58.3672919999999991
20
-109.1648379999999889
11
58.3672919999999991
21
-107.1648379999999889
0
LINE
8
BLACK
6
CONTINUOUS
10
58.3672919999999991
20
-107.1648379999999889
11
59.0339589999999959
21
-108.5934089999999941
0
LINE
8
BLACK
6
CONTINUOUS
10
59.0339589999999959
20
-108.5934089999999941
11
59.7006249999999952
21
-107.1648379999999889
0
LINE
8
BLACK
6
CONTINUOUS
10
59.7006249999999952
20
-107.1648379999999889
11
59.7006249999999952
21
-109.1648379999999889
0
LINE
8
BLACK
6
CONTINUOUS
10
61.5101489999999984
20
-109.1648379999999889
11
61.5101489999999984
21
-108.1172189999999915
0
LINE
8
BLACK
6
CONTINUOUS
10
61.5101489999999984
20
-108.1172189999999915
11
61.4149109999999965
21
-107.9267419999999902
0
LINE
8
BLACK
6
CONTINUOUS
10
61.4149109999999965
20
-107.9267419999999902
11
61.2244349999999997
21
-107.8315039999999954
0
LINE
8
BLACK
6
CONTINUOUS
10
61.2244349999999997
20
-107.8315039999999954
11
60.8434819999999945
21
-107.8315039999999954
0
LINE
8
BLACK
6
CONTINUOUS
10
60.8434819999999945
20
-107.8315039999999954
11
60.6530059999999978
21
-107.9267419999999902
0
LINE
8
BLACK
6
CONTINUOUS
10
61.5101489999999984
20
-109.0695999999999941
11
61.3196729999999945
21
-109.1648379999999889
0
LINE
8
BLACK
6
CONTINUOUS
10
61.3196729999999945
20
-109.1648379999999889
11
60.8434819999999945
21
-109.1648379999999889
0
LINE
8
BLACK
6
CONTINUOUS
10
60.8434819999999945
20
-109.1648379999999889
11
60.6530059999999978
21
-109.0695999999999941
0
LINE
8
BLACK
6
CONTINUOUS
10
60.6530059999999978
20
-109.0695999999999941
11
60.5577679999999958
21
-108.8791229999999928
0
LINE
8
BLACK
6
CONTINUOUS
10
60.5577679999999958
20
-108.8791229999999928
11
60.5577679999999958
21
-108.6886469999999889
0
LINE
8
BLACK
6
CONTINUOUS
10
60.5577679999999958
20
-108.6886469999999889
11
60.6530059999999978
21
-108.4981709999999993
0
LINE
8
BLACK
6
CONTINUOUS
10
60.6530059999999978
20
-108.4981709999999993
11
60.8434819999999945
21
-108.4029329999999902
0
LINE
8
BLACK
6
CONTINUOUS
10
60.8434819999999945
20
-108.4029329999999902
11
61.3196729999999945
21
-108.4029329999999902
0
LINE
8
BLACK
6
CONTINUOUS
10
61.3196729999999945
20
-108.4029329999999902
11
61.5101489999999984
21
-108.3076949999999954
0
LINE
8
BLACK
6
CONTINUOUS
10
62.4625299999999939
20
-107.8315039999999954
11
62.4625299999999939
21
-109.8315039999999954
0
LINE
8
BLACK
6
CONTINUOUS
10
62.4625299999999939
20
-107.9267419999999902
11
62.6530059999999978
21
-107.8315039999999954
0
LINE
8
BLACK
6
CONTINUOUS
10
62.6530059999999978
20
-107.8315039999999954
11
63.0339589999999959
21
-107.8315039999999954
0
LINE
8
BLACK
6
CONTINUOUS
10
63.0339589999999959
20
-107.8315039999999954
11
63.2244349999999997
21
-107.9267419999999902
0
LINE
8
BLACK
6
CONTINUOUS
10
63.2244349999999997
20
-107.9267419999999902
11
63.3196729999999945
21
-108.0219799999999992
0
LINE
8
BLACK
6
CONTINUOUS
10
63.3196729999999945
20
-108.0219799999999992
11
63.4149109999999965
21
-108.2124570000000006
0
LINE
8
BLACK
6
CONTINUOUS
10
63.4149109999999965
20
-108.2124570000000006
11
63.4149109999999965
21
-108.7838849999999979
0
LINE
8
BLACK
6
CONTINUOUS
10
63.4149109999999965
20
-108.7838849999999979
11
63.3196729999999945
21
-108.9743610000000018
0
LINE
8
BLACK
6
CONTINUOUS
10
63.3196729999999945
20
-108.9743610000000018
11
63.2244349999999997
21
-109.0695999999999941
0
LINE
8
BLACK
6
CONTINUOUS
10
63.2244349999999997
20
-109.0695999999999941
11
63.0339589999999959
21
-109.1648379999999889
0
LINE
8
BLACK
6
CONTINUOUS
10
63.0339589999999959
20
-109.1648379999999889
11
62.6530059999999978
21
-109.1648379999999889
0
LINE
8
BLACK
6
CONTINUOUS
10
62.6530059999999978
20
-109.1648379999999889
11
62.4625299999999939
21
-109.0695999999999941
0
LINE
8
BLACK
6
CONTINUOUS
10
64.2720539999999971
20
-108.9743610000000018
11
64.367291999999992
21
-109.0695999999999941
0
LINE
8
BLACK
6
CONTINUOUS
10
64.367291999999992
20
-109.0695999999999941
11
64.2720539999999971
21
-109.1648379999999889
0
LINE
8
BLACK
6
CONTINUOUS
10
64.2720539999999971
20
-109.1648379999999889
11
64.1768160000000023
21
-109.0695999999999941
0
LINE
8
BLACK
6
CONTINUOUS
10
64.1768160000000023
20
-109.0695999999999941
11
64.2720539999999971
21
-108.9743610000000018
0
LINE
8
BLACK
6
CONTINUOUS
10
64.2720539999999971
20
-108.9743610000000018
11
64.2720539999999971
21
-109.1648379999999889
0
LINE
8
BLACK
6
CONTINUOUS
10
64.2720539999999971
20
-107.9267419999999902
11
64.367291999999992
21
-108.0219799999999992
0
LINE
8
BLACK
6
CONTINUOUS
10
64.367291999999992
20
-108.0219799999999992
11
64.2720539999999971
21
-108.1172189999999915
0
LINE
8
BLACK
6
CONTINUOUS
10
64.2720539999999971
20
-108.1172189999999915
11
64.1768160000000023
21
-108.0219799999999992
0
LINE
8
BLACK
6
CONTINUOUS
10
64.1768160000000023
20
-108.0219799999999992
11
64.2720539999999971
21
-107.9267419999999902
0
LINE
8
BLACK
6
CONTINUOUS
10
64.2720539999999971
20
-107.9267419999999902
11
64.2720539999999971
21
-108.1172189999999915
0
LINE
8
BLACK
6
CONTINUOUS
10
47.5499999999999972
20
-112.25
11
47.9499999999999957
21
-112.6499999999999915
0
LINE
8
BLACK
6
CONTINUOUS
10
47.9499999999999957
20
-112.25
11
47.5499999999999972
21
-112.6499999999999915
0
LINE
8
BLACK
6
CONTINUOUS
10
50.9387199999999964
20
-111.3648379999999918
11
51.1291969999999978
21
-111.3648379999999918
0
LINE
8
BLACK
6
CONTINUOUS
10
51.1291969999999978
20
-111.3648379999999918
11
51.3196729999999945
21
-111.4600760000000008
0
LINE
8
BLACK
6
CONTINUOUS
10
51.3196729999999945
20
-111.4600760000000008
11
51.4149109999999965
21
-111.5553139999999956
0
LINE
8
BLACK
6
CONTINUOUS
10
51.4149109999999965
20
-111.5553139999999956
11
51.5101489999999984
21
-111.7457899999999995
0
LINE
8
BLACK
6
CONTINUOUS
10
51.5101489999999984
20
-111.7457899999999995
11
51.6053870000000003
21
-112.126741999999993
0
LINE
8
BLACK
6
CONTINUOUS
10
51.6053870000000003
20
-112.126741999999993
11
51.6053870000000003
21
-112.6029329999999931
0
LINE
8
BLACK
6
CONTINUOUS
10
51.6053870000000003
20
-112.6029329999999931
11
51.5101489999999984
21
-112.9838850000000008
0
LINE
8
BLACK
6
CONTINUOUS
10
51.5101489999999984
20
-112.9838850000000008
11
51.4149109999999965
21
-113.1743609999999904
0
LINE
8
BLACK
6
CONTINUOUS
10
51.4149109999999965
20
-113.1743609999999904
11
51.3196729999999945
21
-113.269599999999997
0
LINE
8
BLACK
6
CONTINUOUS
10
51.3196729999999945
20
-113.269599999999997
11
51.1291969999999978
21
-113.3648379999999918
0
LINE
8
BLACK
6
CONTINUOUS
10
51.1291969999999978
20
-113.3648379999999918
11
50.9387199999999964
21
-113.3648379999999918
0
LINE
8
BLACK
6
CONTINUOUS
10
50.9387199999999964
20
-113.3648379999999918
11
50.7482439999999997
21
-113.269599999999997
0
LINE
8
BLACK
6
CONTINUOUS
10
50.7482439999999997
20
-113.269599999999997
11
50.6530059999999978
21
-113.1743609999999904
0
LINE
8
BLACK
6
CONTINUOUS
10
50.6530059999999978
20
-113.1743609999999904
11
50.5577679999999958
21
-112.9838850000000008
0
LINE
8
BLACK
6
CONTINUOUS
10
50.5577679999999958
20
-112.9838850000000008
11
50.462530000000001
21
-112.6029329999999931
0
LINE
8
BLACK
6
CONTINUOUS
10
50.462530000000001
20
-112.6029329999999931
11
50.462530000000001
21
-112.126741999999993
0
LINE
8
BLACK
6
CONTINUOUS
10
50.462530000000001
20
-112.126741999999993
11
50.5577679999999958
21
-111.7457899999999995
0
LINE
8
BLACK
6
CONTINUOUS
10
50.5577679999999958
20
-111.7457899999999995
11
50.6530059999999978
21
-111.5553139999999956
0
LINE
8
BLACK
6
CONTINUOUS
10
50.6530059999999978
20
-111.5553139999999956
11
50.7482439999999997
21
-111.4600760000000008
0
LINE
8
BLACK
6
CONTINUOUS
10
50.7482439999999997
20
-111.4600760000000008
11
50.9387199999999964
21
-111.3648379999999918
0
LINE
8
BLACK
6
CONTINUOUS
10
52.462530000000001
20
-113.1743609999999904
11
52.5577679999999958
21
-113.269599999999997
0
LINE
8
BLACK
6
CONTINUOUS
10
52.5577679999999958
20
-113.269599999999997
11
52.462530000000001
21
-113.3648379999999918
0
LINE
8
BLACK
6
CONTINUOUS
10
52.462530000000001
20
-113.3648379999999918
11
52.3672919999999991
21
-113.269599999999997
0
LINE
8
BLACK
6
CONTINUOUS
10
52.3672919999999991
20
-113.269599999999997
11
52.462530000000001
21
-113.1743609999999904
0
LINE
8
BLACK
6
CONTINUOUS
10
52.462530000000001
20
-113.1743609999999904
11
52.462530000000001
21
-113.3648379999999918
0
LINE
8
BLACK
6
CONTINUOUS
10
54.2720539999999971
20
-112.0315039999999982
11
54.2720539999999971
21
-113.3648379999999918
0
LINE
8
BLACK
6
CONTINUOUS
10
53.7958629999999971
20
-111.269599999999997
11
53.3196729999999945
21
-112.6981709999999879
0
LINE
8
BLACK
6
CONTINUOUS
10
53.3196729999999945
20
-112.6981709999999879
11
54.5577679999999958
21
-112.6981709999999879
0
LINE
8
BLACK
6
CONTINUOUS
10
55.7006249999999952
20
-111.3648379999999918
11
55.8911019999999965
21
-111.3648379999999918
0
LINE
8
BLACK
6
CONTINUOUS
10
55.8911019999999965
20
-111.3648379999999918
11
56.0815780000000004
21
-111.4600760000000008
0
LINE
8
BLACK
6
CONTINUOUS
10
56.0815780000000004
20
-111.4600760000000008
11
56.1768159999999952
21
-111.5553139999999956
0
LINE
8
BLACK
6
CONTINUOUS
10
56.1768159999999952
20
-111.5553139999999956
11
56.2720539999999971
21
-111.7457899999999995
0
LINE
8
BLACK
6
CONTINUOUS
10
56.2720539999999971
20
-111.7457899999999995
11
56.3672919999999991
21
-112.126741999999993
0
LINE
8
BLACK
6
CONTINUOUS
10
56.3672919999999991
20
-112.126741999999993
11
56.3672919999999991
21
-112.6029329999999931
0
LINE
8
BLACK
6
CONTINUOUS
10
56.3672919999999991
20
-112.6029329999999931
11
56.2720539999999971
21
-112.9838850000000008
0
LINE
8
BLACK
6
CONTINUOUS
10
56.2720539999999971
20
-112.9838850000000008
11
56.1768159999999952
21
-113.1743609999999904
0
LINE
8
BLACK
6
CONTINUOUS
10
56.1768159999999952
20
-113.1743609999999904
11
56.0815780000000004
21
-113.269599999999997
0
LINE
8
BLACK
6
CONTINUOUS
10
56.0815780000000004
20
-113.269599999999997
11
55.8911019999999965
21
-113.3648379999999918
0
LINE
8
BLACK
6
CONTINUOUS
10
55.8911019999999965
20
-113.3648379999999918
11
55.7006249999999952
21
-113.3648379999999918
0
LINE
8
BLACK
6
CONTINUOUS
10
55.7006249999999952
20
-113.3648379999999918
11
55.5101489999999984
21
-113.269599999999997
0
LINE
8
BLACK
6
CONTINUOUS
10
55.5101489999999984
20
-113.269599999999997
11
55.4149109999999965
21
-113.1743609999999904
0
LINE
8
BLACK
6
CONTINUOUS
10
55.4149109999999965
20
-113.1743609999999904
11
55.3196729999999945
21
-112.9838850000000008
0
LINE
8
BLACK
6
CONTINUOUS
10
55.3196729999999945
20
-112.9838850000000008
11
55.2244349999999997
21
-112.6029329999999931
0
LINE
8
BLACK
6
CONTINUOUS
10
55.2244349999999997
20
-112.6029329999999931
11
55.2244349999999997
21
-112.126741999999993
0
LINE
8
BLACK
6
CONTINUOUS
10
55.2244349999999997
20
-112.126741999999993
11
55.3196729999999945
21
-111.7457899999999995
0
LINE
8
BLACK
6
CONTINUOUS
10
55.3196729999999945
20
-111.7457899999999995
11
55.4149109999999965
21
-111.5553139999999956
0
LINE
8
BLACK
6
CONTINUOUS
10
55.4149109999999965
20
-111.5553139999999956
11
55.5101489999999984
21
-111.4600760000000008
0
LINE
8
BLACK
6
CONTINUOUS
10
55.5101489999999984
20
-111.4600760000000008
11
55.7006249999999952
21
-111.3648379999999918
0
LINE
8
BLACK
6
CONTINUOUS
10
57.6053870000000003
20
-111.3648379999999918
11
57.7958639999999946
21
-111.3648379999999918
0
LINE
8
BLACK
6
CONTINUOUS
10
57.7958639999999946
20
-111.3648379999999918
11
57.9863399999999984
21
-111.4600760000000008
0
LINE
8
BLACK
6
CONTINUOUS
10
57.9863399999999984
20
-111.4600760000000008
11
58.0815780000000004
21
-111.5553139999999956
0
LINE
8
BLACK
6
CONTINUOUS
10
58.0815780000000004
20
-111.5553139999999956
11
58.1768159999999952
21
-111.7457899999999995
0
LINE
8
BLACK
6
CONTINUOUS
10
58.1768159999999952
20
-111.7457899999999995
11
58.2720539999999971
21
-112.126741999999993
0
LINE
8
BLACK
6
CONTINUOUS
10
58.2720539999999971
20
-112.126741999999993
11
58.2720539999999971
21
-112.6029329999999931
0
LINE
8
BLACK
6
CONTINUOUS
10
58.2720539999999971
20
-112.6029329999999931
11
58.1768159999999952
21
-112.9838850000000008
0
LINE
8
BLACK
6
CONTINUOUS
10
58.1768159999999952
20
-112.9838850000000008
11
58.0815780000000004
21
-113.1743609999999904
0
LINE
8
BLACK
6
CONTINUOUS
10
58.0815780000000004
20
-113.1743609999999904
11
57.9863399999999984
21
-113.269599999999997
0
LINE
8
BLACK
6
CONTINUOUS
10
57.9863399999999984
20
-113.269599999999997
11
57.7958639999999946
21
-113.3648379999999918
0
LINE
8
BLACK
6
CONTINUOUS
10
57.7958639999999946
20
-113.3648379999999918
11
57.6053870000000003
21
-113.3648379999999918
0
LINE
8
BLACK
6
CONTINUOUS
10
57.6053870000000003
20
-113.3648379999999918
11
57.4149109999999965
21
-113.269599999999997
0
LINE
8
BLACK
6
CONTINUOUS
10
57.4149109999999965
20
-113.269599999999997
11
57.3196729999999945
21
-113.1743609999999904
0
LINE
8
BLACK
6
CONTINUOUS
10
57.3196729999999945
20
-113.1743609999999904
11
57.2244349999999997
21
-112.9838850000000008
0
LINE
8
BLACK
6
CONTINUOUS
10
57.2244349999999997
20
-112.9838850000000008
11
57.1291969999999978
21
-112.6029329999999931
0
LINE
8
BLACK
6
CONTINUOUS
10
57.1291969999999978
20
-112.6029329999999931
11
57.1291969999999978
21
-112.126741999999993
0
LINE
8
BLACK
6
CONTINUOUS
10
57.1291969999999978
20
-112.126741999999993
11
57.2244349999999997
21
-111.7457899999999995
0
LINE
8
BLACK
6
CONTINUOUS
10
57.2244349999999997
20
-111.7457899999999995
11
57.3196729999999945
21
-111.5553139999999956
0
LINE
8
BLACK
6
CONTINUOUS
10
57.3196729999999945
20
-111.5553139999999956
11
57.4149109999999965
21
-111.4600760000000008
0
LINE
8
BLACK
6
CONTINUOUS
10
57.4149109999999965
20
-111.4600760000000008
11
57.6053870000000003
21
-111.3648379999999918
0
LINE
8
BLACK
6
CONTINUOUS
10
59.1291969999999978
20
-113.3648379999999918
11
59.1291969999999978
21
-112.0315039999999982
0
LINE
8
BLACK
6
CONTINUOUS
10
59.1291969999999978
20
-112.2219799999999879
11
59.2244349999999997
21
-112.126741999999993
0
LINE
8
BLACK
6
CONTINUOUS
10
59.2244349999999997
20
-112.126741999999993
11
59.4149109999999965
21
-112.0315039999999982
0
LINE
8
BLACK
6
CONTINUOUS
10
59.4149109999999965
20
-112.0315039999999982
11
59.7006259999999997
21
-112.0315039999999982
0
LINE
8
BLACK
6
CONTINUOUS
10
59.7006259999999997
20
-112.0315039999999982
11
59.8911019999999965
21
-112.126741999999993
0
LINE
8
BLACK
6
CONTINUOUS
10
59.8911019999999965
20
-112.126741999999993
11
59.9863399999999984
21
-112.3172189999999944
0
LINE
8
BLACK
6
CONTINUOUS
10
59.9863399999999984
20
-112.3172189999999944
11
59.9863399999999984
21
-113.3648379999999918
0
LINE
8
BLACK
6
CONTINUOUS
10
59.9863399999999984
20
-112.3172189999999944
11
60.0815780000000004
21
-112.126741999999993
0
LINE
8
BLACK
6
CONTINUOUS
10
60.0815780000000004
20
-112.126741999999993
11
60.2720539999999971
21
-112.0315039999999982
0
LINE
8
BLACK
6
CONTINUOUS
10
60.2720539999999971
20
-112.0315039999999982
11
60.5577679999999958
21
-112.0315039999999982
0
LINE
8
BLACK
6
CONTINUOUS
10
60.5577679999999958
20
-112.0315039999999982
11
60.7482449999999972
21
-112.126741999999993
0
LINE
8
BLACK
6
CONTINUOUS
10
60.7482449999999972
20
-112.126741999999993
11
60.8434829999999991
21
-112.3172189999999944
0
LINE
8
BLACK
6
CONTINUOUS
10
60.8434829999999991
20
-112.3172189999999944
11
60.8434829999999991
21
-113.3648379999999918
0
LINE
8
BLACK
6
CONTINUOUS
10
61.7958639999999946
20
-113.3648379999999918
11
61.7958639999999946
21
-112.0315039999999982
0
LINE
8
BLACK
6
CONTINUOUS
10
61.7958639999999946
20
-112.2219799999999879
11
61.8911019999999965
21
-112.126741999999993
0
LINE
8
BLACK
6
CONTINUOUS
10
61.8911019999999965
20
-112.126741999999993
11
62.0815780000000004
21
-112.0315039999999982
0
LINE
8
BLACK
6
CONTINUOUS
10
62.0815780000000004
20
-112.0315039999999982
11
62.3672929999999965
21
-112.0315039999999982
0
LINE
8
BLACK
6
CONTINUOUS
10
62.3672929999999965
20
-112.0315039999999982
11
62.5577690000000004
21
-112.126741999999993
0
LINE
8
BLACK
6
CONTINUOUS
10
62.5577690000000004
20
-112.126741999999993
11
62.6530069999999952
21
-112.3172189999999944
0
LINE
8
BLACK
6
CONTINUOUS
10
62.6530069999999952
20
-112.3172189999999944
11
62.6530069999999952
21
-113.3648379999999918
0
LINE
8
BLACK
6
CONTINUOUS
10
62.6530069999999952
20
-112.3172189999999944
11
62.7482449999999972
21
-112.126741999999993
0
LINE
8
BLACK
6
CONTINUOUS
10
62.7482449999999972
20
-112.126741999999993
11
62.9387209999999939
21
-112.0315039999999982
0
LINE
8
BLACK
6
CONTINUOUS
10
62.9387209999999939
20
-112.0315039999999982
11
63.2244349999999997
21
-112.0315039999999982
0
LINE
8
BLACK
6
CONTINUOUS
10
63.2244349999999997
20
-112.0315039999999982
11
63.414911999999994
21
-112.126741999999993
0
LINE
8
BLACK
6
CONTINUOUS
10
63.414911999999994
20
-112.126741999999993
11
63.5101499999999959
21
-112.3172189999999944
0
LINE
8
BLACK
6
CONTINUOUS
10
63.5101499999999959
20
-112.3172189999999944
11
63.5101499999999959
21
-113.3648379999999918
0
LINE
8
BLACK
6
CONTINUOUS
10
67.4149120000000011
20
-111.269599999999997
11
65.7006269999999972
21
-113.8410279999999943
0
LINE
8
BLACK
6
CONTINUOUS
10
69.9863409999999959
20
-111.3648379999999918
11
70.1768179999999973
21
-111.3648379999999918
0
LINE
8
BLACK
6
CONTINUOUS
10
70.1768179999999973
20
-111.3648379999999918
11
70.3672940000000011
21
-111.4600760000000008
0
LINE
8
BLACK
6
CONTINUOUS
10
70.3672940000000011
20
-111.4600760000000008
11
70.4625319999999959
21
-111.5553139999999956
0
LINE
8
BLACK
6
CONTINUOUS
10
70.4625319999999959
20
-111.5553139999999956
11
70.5577699999999908
21
-111.7457899999999995
0
LINE
8
BLACK
6
CONTINUOUS
10
70.5577699999999908
20
-111.7457899999999995
11
70.6530079999999998
21
-112.126741999999993
0
LINE
8
BLACK
6
CONTINUOUS
10
70.6530079999999998
20
-112.126741999999993
11
70.6530079999999998
21
-112.6029329999999931
0
LINE
8
BLACK
6
CONTINUOUS
10
70.6530079999999998
20
-112.6029329999999931
11
70.5577699999999908
21
-112.9838850000000008
0
LINE
8
BLACK
6
CONTINUOUS
10
70.5577699999999908
20
-112.9838850000000008
11
70.4625319999999959
21
-113.1743609999999904
0
LINE
8
BLACK
6
CONTINUOUS
10
70.4625319999999959
20
-113.1743609999999904
11
70.3672940000000011
21
-113.269599999999997
0
LINE
8
BLACK
6
CONTINUOUS
10
70.3672940000000011
20
-113.269599999999997
11
70.1768179999999973
21
-113.3648379999999918
0
LINE
8
BLACK
6
CONTINUOUS
10
70.1768179999999973
20
-113.3648379999999918
11
69.9863409999999959
21
-113.3648379999999918
0
LINE
8
BLACK
6
CONTINUOUS
10
69.9863409999999959
20
-113.3648379999999918
11
69.7958649999999921
21
-113.269599999999997
0
LINE
8
BLACK
6
CONTINUOUS
10
69.7958649999999921
20
-113.269599999999997
11
69.7006269999999972
21
-113.1743609999999904
0
LINE
8
BLACK
6
CONTINUOUS
10
69.7006269999999972
20
-113.1743609999999904
11
69.6053890000000024
21
-112.9838850000000008
0
LINE
8
BLACK
6
CONTINUOUS
10
69.6053890000000024
20
-112.9838850000000008
11
69.5101509999999934
21
-112.6029329999999931
0
LINE
8
BLACK
6
CONTINUOUS
10
69.5101509999999934
20
-112.6029329999999931
11
69.5101509999999934
21
-112.126741999999993
0
LINE
8
BLACK
6
CONTINUOUS
10
69.5101509999999934
20
-112.126741999999993
11
69.6053890000000024
21
-111.7457899999999995
0
LINE
8
BLACK
6
CONTINUOUS
10
69.6053890000000024
20
-111.7457899999999995
11
69.7006269999999972
21
-111.5553139999999956
0
LINE
8
BLACK
6
CONTINUOUS
10
69.7006269999999972
20
-111.5553139999999956
11
69.7958649999999921
21
-111.4600760000000008
0
LINE
8
BLACK
6
CONTINUOUS
10
69.7958649999999921
20
-111.4600760000000008
11
69.9863409999999959
21
-111.3648379999999918
0
LINE
8
BLACK
6
CONTINUOUS
10
71.5101509999999934
20
-113.1743609999999904
11
71.6053890000000024
21
-113.269599999999997
0
LINE
8
BLACK
6
CONTINUOUS
10
71.6053890000000024
20
-113.269599999999997
11
71.5101509999999934
21
-113.3648379999999918
0
LINE
8
BLACK
6
CONTINUOUS
10
71.5101509999999934
20
-113.3648379999999918
11
71.4149129999999985
21
-113.269599999999997
0
LINE
8
BLACK
6
CONTINUOUS
10
71.4149129999999985
20
-113.269599999999997
11
71.5101509999999934
21
-113.1743609999999904
0
LINE
8
BLACK
6
CONTINUOUS
10
71.5101509999999934
20
-113.1743609999999904
11
71.5101509999999934
21
-113.3648379999999918
0
LINE
8
BLACK
6
CONTINUOUS
10
72.8434840000000037
20
-111.3648379999999918
11
73.0339609999999908
21
-111.3648379999999918
0
LINE
8
BLACK
6
CONTINUOUS
10
73.0339609999999908
20
-111.3648379999999918
11
73.2244369999999947
21
-111.4600760000000008
0
LINE
8
BLACK
6
CONTINUOUS
10
73.2244369999999947
20
-111.4600760000000008
11
73.3196750000000037
21
-111.5553139999999956
0
LINE
8
BLACK
6
CONTINUOUS
10
73.3196750000000037
20
-111.5553139999999956
11
73.4149129999999985
21
-111.7457899999999995
0
LINE
8
BLACK
6
CONTINUOUS
10
73.4149129999999985
20
-111.7457899999999995
11
73.5101509999999934
21
-112.126741999999993
0
LINE
8
BLACK
6
CONTINUOUS
10
73.5101509999999934
20
-112.126741999999993
11
73.5101509999999934
21
-112.6029329999999931
0
LINE
8
BLACK
6
CONTINUOUS
10
73.5101509999999934
20
-112.6029329999999931
11
73.4149129999999985
21
-112.9838850000000008
0
LINE
8
BLACK
6
CONTINUOUS
10
73.4149129999999985
20
-112.9838850000000008
11
73.3196750000000037
21
-113.1743609999999904
0
LINE
8
BLACK
6
CONTINUOUS
10
73.3196750000000037
20
-113.1743609999999904
11
73.2244369999999947
21
-113.269599999999997
0
LINE
8
BLACK
6
CONTINUOUS
10
73.2244369999999947
20
-113.269599999999997
11
73.0339609999999908
21
-113.3648379999999918
0
LINE
8
BLACK
6
CONTINUOUS
10
73.0339609999999908
20
-113.3648379999999918
11
72.8434840000000037
21
-113.3648379999999918
0
LINE
8
BLACK
6
CONTINUOUS
10
72.8434840000000037
20
-113.3648379999999918
11
72.6530079999999998
21
-113.269599999999997
0
LINE
8
BLACK
6
CONTINUOUS
10
72.6530079999999998
20
-113.269599999999997
11
72.5577699999999908
21
-113.1743609999999904
0
LINE
8
BLACK
6
CONTINUOUS
10
72.5577699999999908
20
-113.1743609999999904
11
72.4625319999999959
21
-112.9838850000000008
0
LINE
8
BLACK
6
CONTINUOUS
10
72.4625319999999959
20
-112.9838850000000008
11
72.3672940000000011
21
-112.6029329999999931
0
LINE
8
BLACK
6
CONTINUOUS
10
72.3672940000000011
20
-112.6029329999999931
11
72.3672940000000011
21
-112.126741999999993
0
LINE
8
BLACK
6
CONTINUOUS
10
72.3672940000000011
20
-112.126741999999993
11
72.4625319999999959
21
-111.7457899999999995
0
LINE
8
BLACK
6
CONTINUOUS
10
72.4625319999999959
20
-111.7457899999999995
11
72.5577699999999908
21
-111.5553139999999956
0
LINE
8
BLACK
6
CONTINUOUS
10
72.5577699999999908
20
-111.5553139999999956
11
72.6530079999999998
21
-111.4600760000000008
0
LINE
8
BLACK
6
CONTINUOUS
10
72.6530079999999998
20
-111.4600760000000008
11
72.8434840000000037
21
-111.3648379999999918
0
LINE
8
BLACK
6
CONTINUOUS
10
75.4149129999999985
20
-113.3648379999999918
11
74.2720559999999921
21
-113.3648379999999918
0
LINE
8
BLACK
6
CONTINUOUS
10
74.8434840000000037
20
-113.3648379999999918
11
74.8434840000000037
21
-111.3648379999999918
0
LINE
8
BLACK
6
CONTINUOUS
10
74.8434840000000037
20
-111.3648379999999918
11
74.6530079999999998
21
-111.6505519999999905
0
LINE
8
BLACK
6
CONTINUOUS
10
74.6530079999999998
20
-111.6505519999999905
11
74.4625319999999959
21
-111.8410279999999943
0
LINE
8
BLACK
6
CONTINUOUS
10
74.4625319999999959
20
-111.8410279999999943
11
74.2720559999999921
21
-111.9362659999999892
0
LINE
8
BLACK
6
CONTINUOUS
10
77.2244369999999947
20
-111.3648379999999918
11
76.2720559999999921
21
-111.3648379999999918
0
LINE
8
BLACK
6
CONTINUOUS
10
76.2720559999999921
20
-111.3648379999999918
11
76.1768179999999973
21
-112.3172189999999944
0
LINE
8
BLACK
6
CONTINUOUS
10
76.1768179999999973
20
-112.3172189999999944
11
76.2720559999999921
21
-112.2219799999999879
0
LINE
8
BLACK
6
CONTINUOUS
10
76.2720559999999921
20
-112.2219799999999879
11
76.4625319999999959
21
-112.126741999999993
0
LINE
8
BLACK
6
CONTINUOUS
10
76.4625319999999959
20
-112.126741999999993
11
76.938722999999996
21
-112.126741999999993
0
LINE
8
BLACK
6
CONTINUOUS
10
76.938722999999996
20
-112.126741999999993
11
77.1291989999999998
21
-112.2219799999999879
0
LINE
8
BLACK
6
CONTINUOUS
10
77.1291989999999998
20
-112.2219799999999879
11
77.2244369999999947
21
-112.3172189999999944
0
LINE
8
BLACK
6
CONTINUOUS
10
77.2244369999999947
20
-112.3172189999999944
11
77.3196749999999895
21
-112.5076949999999982
0
LINE
8
BLACK
6
CONTINUOUS
10
77.3196749999999895
20
-112.5076949999999982
11
77.3196749999999895
21
-112.9838850000000008
0
LINE
8
BLACK
6
CONTINUOUS
10
77.3196749999999895
20
-112.9838850000000008
11
77.2244369999999947
21
-113.1743609999999904
0
LINE
8
BLACK
6
CONTINUOUS
10
77.2244369999999947
20
-113.1743609999999904
11
77.1291989999999998
21
-113.269599999999997
0
LINE
8
BLACK
6
CONTINUOUS
10
77.1291989999999998
20
-113.269599999999997
11
76.938722999999996
21
-113.3648379999999918
0
LINE
8
BLACK
6
CONTINUOUS
10
76.938722999999996
20
-113.3648379999999918
11
76.4625319999999959
21
-113.3648379999999918
0
LINE
8
BLACK
6
CONTINUOUS
10
76.4625319999999959
20
-113.3648379999999918
11
76.2720559999999921
21
-113.269599999999997
0
LINE
8
BLACK
6
CONTINUOUS
10
76.2720559999999921
20
-113.269599999999997
11
76.1768179999999973
21
-113.1743609999999904
0
LINE
8
BLACK
6
CONTINUOUS
10
77.9863419999999934
20
-111.3648379999999918
11
79.3196749999999895
21
-111.3648379999999918
0
LINE
8
BLACK
6
CONTINUOUS
10
79.3196749999999895
20
-111.3648379999999918
11
78.4625319999999959
21
-113.3648379999999918
0
LINE
8
BLACK
6
CONTINUOUS
10
79.9863419999999934
20
-111.3648379999999918
11
79.9863419999999934
21
-111.7457899999999995
0
LINE
8
BLACK
6
CONTINUOUS
10
80.7482469999999921
20
-111.3648379999999918
11
80.7482469999999921
21
-111.7457899999999995
0
LINE
8
BLACK
6
CONTINUOUS
10
83.7006289999999922
20
-114.126741999999993
11
83.6053899999999999
21
-114.0315039999999982
0
LINE
8
BLACK
6
CONTINUOUS
10
83.6053899999999999
20
-114.0315039999999982
11
83.414913999999996
21
-113.7457899999999995
0
LINE
8
BLACK
6
CONTINUOUS
10
83.414913999999996
20
-113.7457899999999995
11
83.3196760000000012
21
-113.5553139999999956
0
LINE
8
BLACK
6
CONTINUOUS
10
83.3196760000000012
20
-113.5553139999999956
11
83.2244379999999921
21
-113.269599999999997
0
LINE
8
BLACK
6
CONTINUOUS
10
83.2244379999999921
20
-113.269599999999997
11
83.1291999999999973
21
-112.7934089999999969
0
LINE
8
BLACK
6
CONTINUOUS
10
83.1291999999999973
20
-112.7934089999999969
11
83.1291999999999973
21
-112.4124569999999892
0
LINE
8
BLACK
6
CONTINUOUS
10
83.1291999999999973
20
-112.4124569999999892
11
83.2244379999999921
21
-111.9362659999999892
0
LINE
8
BLACK
6
CONTINUOUS
10
83.2244379999999921
20
-111.9362659999999892
11
83.3196760000000012
21
-111.6505519999999905
0
LINE
8
BLACK
6
CONTINUOUS
10
83.3196760000000012
20
-111.6505519999999905
11
83.414913999999996
21
-111.4600760000000008
0
LINE
8
BLACK
6
CONTINUOUS
10
83.414913999999996
20
-111.4600760000000008
11
83.6053899999999999
21
-111.1743609999999904
0
LINE
8
BLACK
6
CONTINUOUS
10
83.6053899999999999
20
-111.1743609999999904
11
83.7006289999999922
21
-111.0791229999999956
0
LINE
8
BLACK
6
CONTINUOUS
10
85.3196760000000012
20
-112.0315039999999982
11
85.3196760000000012
21
-113.3648379999999918
0
LINE
8
BLACK
6
CONTINUOUS
10
84.8434850000000012
20
-111.269599999999997
11
84.3672949999999986
21
-112.6981709999999879
0
LINE
8
BLACK
6
CONTINUOUS
10
84.3672949999999986
20
-112.6981709999999879
11
85.6053899999999999
21
-112.6981709999999879
0
LINE
8
BLACK
6
CONTINUOUS
10
86.2720569999999896
20
-111.5553139999999956
11
86.3672949999999986
21
-111.4600760000000008
0
LINE
8
BLACK
6
CONTINUOUS
10
86.3672949999999986
20
-111.4600760000000008
11
86.5577710000000025
21
-111.3648379999999918
0
LINE
8
BLACK
6
CONTINUOUS
10
86.5577710000000025
20
-111.3648379999999918
11
87.0339620000000025
21
-111.3648379999999918
0
LINE
8
BLACK
6
CONTINUOUS
10
87.0339620000000025
20
-111.3648379999999918
11
87.2244379999999921
21
-111.4600760000000008
0
LINE
8
BLACK
6
CONTINUOUS
10
87.2244379999999921
20
-111.4600760000000008
11
87.3196760000000012
21
-111.5553139999999956
0
LINE
8
BLACK
6
CONTINUOUS
10
87.3196760000000012
20
-111.5553139999999956
11
87.414913999999996
21
-111.7457899999999995
0
LINE
8
BLACK
6
CONTINUOUS
10
87.414913999999996
20
-111.7457899999999995
11
87.414913999999996
21
-111.9362659999999892
0
LINE
8
BLACK
6
CONTINUOUS
10
87.414913999999996
20
-111.9362659999999892
11
87.3196760000000012
21
-112.2219799999999879
0
LINE
8
BLACK
6
CONTINUOUS
10
87.3196760000000012
20
-112.2219799999999879
11
86.1768189999999947
21
-113.3648379999999918
0
LINE
8
BLACK
6
CONTINUOUS
10
86.1768189999999947
20
-113.3648379999999918
11
87.414913999999996
21
-113.3648379999999918
0
LINE
8
BLACK
6
CONTINUOUS
10
89.7958670000000012
20
-113.3648379999999918
11
89.7958670000000012
21
-111.3648379999999918
0
LINE
8
BLACK
6
CONTINUOUS
10
90.6530099999999948
20
-113.3648379999999918
11
90.6530099999999948
21
-112.3172189999999944
0
LINE
8
BLACK
6
CONTINUOUS
10
90.6530099999999948
20
-112.3172189999999944
11
90.5577719999999999
21
-112.126741999999993
0
LINE
8
BLACK
6
CONTINUOUS
10
90.5577719999999999
20
-112.126741999999993
11
90.3672959999999961
21
-112.0315039999999982
0
LINE
8
BLACK
6
CONTINUOUS
10
90.3672959999999961
20
-112.0315039999999982
11
90.0815809999999999
21
-112.0315039999999982
0
LINE
8
BLACK
6
CONTINUOUS
10
90.0815809999999999
20
-112.0315039999999982
11
89.891104999999996
21
-112.126741999999993
0
LINE
8
BLACK
6
CONTINUOUS
10
89.891104999999996
20
-112.126741999999993
11
89.7958670000000012
21
-112.2219799999999879
0
LINE
8
BLACK
6
CONTINUOUS
10
91.891104999999996
20
-113.3648379999999918
11
91.7006289999999922
21
-113.269599999999997
0
LINE
8
BLACK
6
CONTINUOUS
10
91.7006289999999922
20
-113.269599999999997
11
91.6053909999999973
21
-113.1743609999999904
0
LINE
8
BLACK
6
CONTINUOUS
10
91.6053909999999973
20
-113.1743609999999904
11
91.5101530000000025
21
-112.9838850000000008
0
LINE
8
BLACK
6
CONTINUOUS
10
91.5101530000000025
20
-112.9838850000000008
11
91.5101530000000025
21
-112.4124569999999892
0
LINE
8
BLACK
6
CONTINUOUS
10
91.5101530000000025
20
-112.4124569999999892
11
91.6053909999999973
21
-112.2219799999999879
0
LINE
8
BLACK
6
CONTINUOUS
10
91.6053909999999973
20
-112.2219799999999879
11
91.7006289999999922
21
-112.126741999999993
0
LINE
8
BLACK
6
CONTINUOUS
10
91.7006289999999922
20
-112.126741999999993
11
91.891104999999996
21
-112.0315039999999982
0
LINE
8
BLACK
6
CONTINUOUS
10
91.891104999999996
20
-112.0315039999999982
11
92.1768199999999922
21
-112.0315039999999982
0
LINE
8
BLACK
6
CONTINUOUS
10
92.1768199999999922
20
-112.0315039999999982
11
92.3672959999999961
21
-112.126741999999993
0
LINE
8
BLACK
6
CONTINUOUS
10
92.3672959999999961
20
-112.126741999999993
11
92.4625339999999909
21
-112.2219799999999879
0
LINE
8
BLACK
6
CONTINUOUS
10
92.4625339999999909
20
-112.2219799999999879
11
92.5577719999999999
21
-112.4124569999999892
0
LINE
8
BLACK
6
CONTINUOUS
10
92.5577719999999999
20
-112.4124569999999892
11
92.5577719999999999
21
-112.9838850000000008
0
LINE
8
BLACK
6
CONTINUOUS
10
92.5577719999999999
20
-112.9838850000000008
11
92.4625339999999909
21
-113.1743609999999904
0
LINE
8
BLACK
6
CONTINUOUS
10
92.4625339999999909
20
-113.1743609999999904
11
92.3672959999999961
21
-113.269599999999997
0
LINE
8
BLACK
6
CONTINUOUS
10
92.3672959999999961
20
-113.269599999999997
11
92.1768199999999922
21
-113.3648379999999918
0
LINE
8
BLACK
6
CONTINUOUS
10
92.1768199999999922
20
-113.3648379999999918
11
91.891104999999996
21
-113.3648379999999918
0
LINE
8
BLACK
6
CONTINUOUS
10
93.7006289999999922
20
-113.3648379999999918
11
93.5101530000000025
21
-113.269599999999997
0
LINE
8
BLACK
6
CONTINUOUS
10
93.5101530000000025
20
-113.269599999999997
11
93.4149149999999935
21
-113.0791229999999956
0
LINE
8
BLACK
6
CONTINUOUS
10
93.4149149999999935
20
-113.0791229999999956
11
93.4149149999999935
21
-111.3648379999999918
0
LINE
8
BLACK
6
CONTINUOUS
10
95.2244389999999896
20
-113.269599999999997
11
95.033963
21
-113.3648379999999918
0
LINE
8
BLACK
6
CONTINUOUS
10
95.033963
20
-113.3648379999999918
11
94.6530099999999948
21
-113.3648379999999918
0
LINE
8
BLACK
6
CONTINUOUS
10
94.6530099999999948
20
-113.3648379999999918
11
94.4625339999999909
21
-113.269599999999997
0
LINE
8
BLACK
6
CONTINUOUS
10
94.4625339999999909
20
-113.269599999999997
11
94.3672959999999961
21
-113.0791229999999956
0
LINE
8
BLACK
6
CONTINUOUS
10
94.3672959999999961
20
-113.0791229999999956
11
94.3672959999999961
21
-112.3172189999999944
0
LINE
8
BLACK
6
CONTINUOUS
10
94.3672959999999961
20
-112.3172189999999944
11
94.4625339999999909
21
-112.126741999999993
0
LINE
8
BLACK
6
CONTINUOUS
10
94.4625339999999909
20
-112.126741999999993
11
94.6530099999999948
21
-112.0315039999999982
0
LINE
8
BLACK
6
CONTINUOUS
10
94.6530099999999948
20
-112.0315039999999982
11
95.033963
21
-112.0315039999999982
0
LINE
8
BLACK
6
CONTINUOUS
10
95.033963
20
-112.0315039999999982
11
95.2244389999999896
21
-112.126741999999993
0
LINE
8
BLACK
6
CONTINUOUS
10
95.2244389999999896
20
-112.126741999999993
11
95.3196769999999987
21
-112.3172189999999944
0
LINE
8
BLACK
6
CONTINUOUS
10
95.3196769999999987
20
-112.3172189999999944
11
95.3196769999999987
21
-112.5076949999999982
0
LINE
8
BLACK
6
CONTINUOUS
10
95.3196769999999987
20
-112.5076949999999982
11
94.3672959999999961
21
-112.6981709999999879
0
LINE
8
BLACK
6
CONTINUOUS
10
96.0815819999999974
20
-113.269599999999997
11
96.2720580000000012
21
-113.3648379999999918
0
LINE
8
BLACK
6
CONTINUOUS
10
96.2720580000000012
20
-113.3648379999999918
11
96.6530099999999948
21
-113.3648379999999918
0
LINE
8
BLACK
6
CONTINUOUS
10
96.6530099999999948
20
-113.3648379999999918
11
96.8434869999999961
21
-113.269599999999997
0
LINE
8
BLACK
6
CONTINUOUS
10
96.8434869999999961
20
-113.269599999999997
11
96.9387249999999909
21
-113.0791229999999956
0
LINE
8
BLACK
6
CONTINUOUS
10
96.9387249999999909
20
-113.0791229999999956
11
96.9387249999999909
21
-112.9838850000000008
0
LINE
8
BLACK
6
CONTINUOUS
10
96.9387249999999909
20
-112.9838850000000008
11
96.8434869999999961
21
-112.7934089999999969
0
LINE
8
BLACK
6
CONTINUOUS
10
96.8434869999999961
20
-112.7934089999999969
11
96.6530099999999948
21
-112.6981709999999879
0
LINE
8
BLACK
6
CONTINUOUS
10
96.6530099999999948
20
-112.6981709999999879
11
96.3672959999999961
21
-112.6981709999999879
0
LINE
8
BLACK
6
CONTINUOUS
10
96.3672959999999961
20
-112.6981709999999879
11
96.1768199999999922
21
-112.6029329999999931
0
LINE
8
BLACK
6
CONTINUOUS
10
96.1768199999999922
20
-112.6029329999999931
11
96.0815819999999974
21
-112.4124569999999892
0
LINE
8
BLACK
6
CONTINUOUS
10
96.0815819999999974
20
-112.4124569999999892
11
96.0815819999999974
21
-112.3172189999999944
0
LINE
8
BLACK
6
CONTINUOUS
10
96.0815819999999974
20
-112.3172189999999944
11
96.1768199999999922
21
-112.126741999999993
0
LINE
8
BLACK
6
CONTINUOUS
10
96.1768199999999922
20
-112.126741999999993
11
96.3672959999999961
21
-112.0315039999999982
0
LINE
8
BLACK
6
CONTINUOUS
10
96.3672959999999961
20
-112.0315039999999982
11
96.6530099999999948
21
-112.0315039999999982
0
LINE
8
BLACK
6
CONTINUOUS
10
96.6530099999999948
20
-112.0315039999999982
11
96.8434869999999961
21
-112.126741999999993
0
LINE
8
BLACK
6
CONTINUOUS
10
97.6053919999999948
20
-114.126741999999993
11
97.7006299999999896
21
-114.0315039999999982
0
LINE
8
BLACK
6
CONTINUOUS
10
97.7006299999999896
20
-114.0315039999999982
11
97.8911059999999935
21
-113.7457899999999995
0
LINE
8
BLACK
6
CONTINUOUS
10
97.8911059999999935
20
-113.7457899999999995
11
97.9863440000000026
21
-113.5553139999999956
0
LINE
8
BLACK
6
CONTINUOUS
10
97.9863440000000026
20
-113.5553139999999956
11
98.0815819999999974
21
-113.269599999999997
0
LINE
8
BLACK
6
CONTINUOUS
10
98.0815819999999974
20
-113.269599999999997
11
98.1768199999999922
21
-112.7934089999999969
0
LINE
8
BLACK
6
CONTINUOUS
10
98.1768199999999922
20
-112.7934089999999969
11
98.1768199999999922
21
-112.4124569999999892
0
LINE
8
BLACK
6
CONTINUOUS
10
98.1768199999999922
20
-112.4124569999999892
11
98.0815819999999974
21
-111.9362659999999892
0
LINE
8
BLACK
6
CONTINUOUS
10
98.0815819999999974
20
-111.9362659999999892
11
97.9863440000000026
21
-111.6505519999999905
0
LINE
8
BLACK
6
CONTINUOUS
10
97.9863440000000026
20
-111.6505519999999905
11
97.8911059999999935
21
-111.4600760000000008
0
LINE
8
BLACK
6
CONTINUOUS
10
97.8911059999999935
20
-111.4600760000000008
11
97.7006299999999896
21
-111.1743609999999904
0
LINE
8
BLACK
6
CONTINUOUS
10
97.7006299999999896
20
-111.1743609999999904
11
97.6053919999999948
21
-111.0791229999999956
0
CIRCLE
8
BLACK
10
47.5499999999999972
20
-115.0899999999999892
40
0.4
0
LINE
8
BLACK
6
CONTINUOUS
10
50.9387199999999964
20
-114.0048379999999923
11
51.1291969999999978
21
-114.0048379999999923
0
LINE
8
BLACK
6
CONTINUOUS
10
51.1291969999999978
20
-114.0048379999999923
11
51.3196729999999945
21
-114.1000760000000014
0
LINE
8
BLACK
6
CONTINUOUS
10
51.3196729999999945
20
-114.1000760000000014
11
51.4149109999999965
21
-114.1953139999999962
0
LINE
8
BLACK
6
CONTINUOUS
10
51.4149109999999965
20
-114.1953139999999962
11
51.5101489999999984
21
-114.3857900000000001
0
LINE
8
BLACK
6
CONTINUOUS
10
51.5101489999999984
20
-114.3857900000000001
11
51.6053870000000003
21
-114.7667419999999936
0
LINE
8
BLACK
6
CONTINUOUS
10
51.6053870000000003
20
-114.7667419999999936
11
51.6053870000000003
21
-115.2429329999999936
0
LINE
8
BLACK
6
CONTINUOUS
10
51.6053870000000003
20
-115.2429329999999936
11
51.5101489999999984
21
-115.6238850000000014
0
LINE
8
BLACK
6
CONTINUOUS
10
51.5101489999999984
20
-115.6238850000000014
11
51.4149109999999965
21
-115.814360999999991
0
LINE
8
BLACK
6
CONTINUOUS
10
51.4149109999999965
20
-115.814360999999991
11
51.3196729999999945
21
-115.9095999999999975
0
LINE
8
BLACK
6
CONTINUOUS
10
51.3196729999999945
20
-115.9095999999999975
11
51.1291969999999978
21
-116.0048379999999923
0
LINE
8
BLACK
6
CONTINUOUS
10
51.1291969999999978
20
-116.0048379999999923
11
50.9387199999999964
21
-116.0048379999999923
0
LINE
8
BLACK
6
CONTINUOUS
10
50.9387199999999964
20
-116.0048379999999923
11
50.7482439999999997
21
-115.9095999999999975
0
LINE
8
BLACK
6
CONTINUOUS
10
50.7482439999999997
20
-115.9095999999999975
11
50.6530059999999978
21
-115.814360999999991
0
LINE
8
BLACK
6
CONTINUOUS
10
50.6530059999999978
20
-115.814360999999991
11
50.5577679999999958
21
-115.6238850000000014
0
LINE
8
BLACK
6
CONTINUOUS
10
50.5577679999999958
20
-115.6238850000000014
11
50.462530000000001
21
-115.2429329999999936
0
LINE
8
BLACK
6
CONTINUOUS
10
50.462530000000001
20
-115.2429329999999936
11
50.462530000000001
21
-114.7667419999999936
0
LINE
8
BLACK
6
CONTINUOUS
10
50.462530000000001
20
-114.7667419999999936
11
50.5577679999999958
21
-114.3857900000000001
0
LINE
8
BLACK
6
CONTINUOUS
10
50.5577679999999958
20
-114.3857900000000001
11
50.6530059999999978
21
-114.1953139999999962
0
LINE
8
BLACK
6
CONTINUOUS
10
50.6530059999999978
20
-114.1953139999999962
11
50.7482439999999997
21
-114.1000760000000014
0
LINE
8
BLACK
6
CONTINUOUS
10
50.7482439999999997
20
-114.1000760000000014
11
50.9387199999999964
21
-114.0048379999999923
0
LINE
8
BLACK
6
CONTINUOUS
10
52.462530000000001
20
-115.814360999999991
11
52.5577679999999958
21
-115.9095999999999975
0
LINE
8
BLACK
6
CONTINUOUS
10
52.5577679999999958
20
-115.9095999999999975
11
52.462530000000001
21
-116.0048379999999923
0
LINE
8
BLACK
6
CONTINUOUS
10
52.462530000000001
20
-116.0048379999999923
11
52.3672919999999991
21
-115.9095999999999975
0
LINE
8
BLACK
6
CONTINUOUS
10
52.3672919999999991
20
-115.9095999999999975
11
52.462530000000001
21
-115.814360999999991
0
LINE
8
BLACK
6
CONTINUOUS
10
52.462530000000001
20
-115.814360999999991
11
52.462530000000001
21
-116.0048379999999923
0
LINE
8
BLACK
6
CONTINUOUS
10
53.7006249999999952
20
-114.8619799999999884
11
53.5101489999999984
21
-114.7667419999999936
0
LINE
8
BLACK
6
CONTINUOUS
10
53.5101489999999984
20
-114.7667419999999936
11
53.4149109999999965
21
-114.6715039999999988
0
LINE
8
BLACK
6
CONTINUOUS
10
53.4149109999999965
20
-114.6715039999999988
11
53.3196729999999945
21
-114.4810279999999949
0
LINE
8
BLACK
6
CONTINUOUS
10
53.3196729999999945
20
-114.4810279999999949
11
53.3196729999999945
21
-114.3857900000000001
0
LINE
8
BLACK
6
CONTINUOUS
10
53.3196729999999945
20
-114.3857900000000001
11
53.4149109999999965
21
-114.1953139999999962
0
LINE
8
BLACK
6
CONTINUOUS
10
53.4149109999999965
20
-114.1953139999999962
11
53.5101489999999984
21
-114.1000760000000014
0
LINE
8
BLACK
6
CONTINUOUS
10
53.5101489999999984
20
-114.1000760000000014
11
53.7006249999999952
21
-114.0048379999999923
0
LINE
8
BLACK
6
CONTINUOUS
10
53.7006249999999952
20
-114.0048379999999923
11
54.0815780000000004
21
-114.0048379999999923
0
LINE
8
BLACK
6
CONTINUOUS
10
54.0815780000000004
20
-114.0048379999999923
11
54.2720539999999971
21
-114.1000760000000014
0
LINE
8
BLACK
6
CONTINUOUS
10
54.2720539999999971
20
-114.1000760000000014
11
54.3672919999999991
21
-114.1953139999999962
0
LINE
8
BLACK
6
CONTINUOUS
10
54.3672919999999991
20
-114.1953139999999962
11
54.462530000000001
21
-114.3857900000000001
0
LINE
8
BLACK
6
CONTINUOUS
10
54.462530000000001
20
-114.3857900000000001
11
54.462530000000001
21
-114.4810279999999949
0
LINE
8
BLACK
6
CONTINUOUS
10
54.462530000000001
20
-114.4810279999999949
11
54.3672919999999991
21
-114.6715039999999988
0
LINE
8
BLACK
6
CONTINUOUS
10
54.3672919999999991
20
-114.6715039999999988
11
54.2720539999999971
21
-114.7667419999999936
0
LINE
8
BLACK
6
CONTINUOUS
10
54.2720539999999971
20
-114.7667419999999936
11
54.0815780000000004
21
-114.8619799999999884
0
LINE
8
BLACK
6
CONTINUOUS
10
54.0815780000000004
20
-114.8619799999999884
11
53.7006249999999952
21
-114.8619799999999884
0
LINE
8
BLACK
6
CONTINUOUS
10
53.7006249999999952
20
-114.8619799999999884
11
53.5101489999999984
21
-114.9572189999999949
0
LINE
8
BLACK
6
CONTINUOUS
10
53.5101489999999984
20
-114.9572189999999949
11
53.4149109999999965
21
-115.0524569999999898
0
LINE
8
BLACK
6
CONTINUOUS
10
53.4149109999999965
20
-115.0524569999999898
11
53.3196729999999945
21
-115.2429329999999936
0
LINE
8
BLACK
6
CONTINUOUS
10
53.3196729999999945
20
-115.2429329999999936
11
53.3196729999999945
21
-115.6238850000000014
0
LINE
8
BLACK
6
CONTINUOUS
10
53.3196729999999945
20
-115.6238850000000014
11
53.4149109999999965
21
-115.814360999999991
0
LINE
8
BLACK
6
CONTINUOUS
10
53.4149109999999965
20
-115.814360999999991
11
53.5101489999999984
21
-115.9095999999999975
0
LINE
8
BLACK
6
CONTINUOUS
10
53.5101489999999984
20
-115.9095999999999975
11
53.7006249999999952
21
-116.0048379999999923
0
LINE
8
BLACK
6
CONTINUOUS
10
53.7006249999999952
20
-116.0048379999999923
11
54.0815780000000004
21
-116.0048379999999923
0
LINE
8
BLACK
6
CONTINUOUS
10
54.0815780000000004
20
-116.0048379999999923
11
54.2720539999999971
21
-115.9095999999999975
0
LINE
8
BLACK
6
CONTINUOUS
10
54.2720539999999971
20
-115.9095999999999975
11
54.3672919999999991
21
-115.814360999999991
0
LINE
8
BLACK
6
CONTINUOUS
10
54.3672919999999991
20
-115.814360999999991
11
54.462530000000001
21
-115.6238850000000014
0
LINE
8
BLACK
6
CONTINUOUS
10
54.462530000000001
20
-115.6238850000000014
11
54.462530000000001
21
-115.2429329999999936
0
LINE
8
BLACK
6
CONTINUOUS
10
54.462530000000001
20
-115.2429329999999936
11
54.3672919999999991
21
-115.0524569999999898
0
LINE
8
BLACK
6
CONTINUOUS
10
54.3672919999999991
20
-115.0524569999999898
11
54.2720539999999971
21
-114.9572189999999949
0
LINE
8
BLACK
6
CONTINUOUS
10
54.2720539999999971
20
-114.9572189999999949
11
54.0815780000000004
21
-114.8619799999999884
0
LINE
8
BLACK
6
CONTINUOUS
10
55.7006249999999952
20
-114.0048379999999923
11
55.8911019999999965
21
-114.0048379999999923
0
LINE
8
BLACK
6
CONTINUOUS
10
55.8911019999999965
20
-114.0048379999999923
11
56.0815780000000004
21
-114.1000760000000014
0
LINE
8
BLACK
6
CONTINUOUS
10
56.0815780000000004
20
-114.1000760000000014
11
56.1768159999999952
21
-114.1953139999999962
0
LINE
8
BLACK
6
CONTINUOUS
10
56.1768159999999952
20
-114.1953139999999962
11
56.2720539999999971
21
-114.3857900000000001
0
LINE
8
BLACK
6
CONTINUOUS
10
56.2720539999999971
20
-114.3857900000000001
11
56.3672919999999991
21
-114.7667419999999936
0
LINE
8
BLACK
6
CONTINUOUS
10
56.3672919999999991
20
-114.7667419999999936
11
56.3672919999999991
21
-115.2429329999999936
0
LINE
8
BLACK
6
CONTINUOUS
10
56.3672919999999991
20
-115.2429329999999936
11
56.2720539999999971
21
-115.6238850000000014
0
LINE
8
BLACK
6
CONTINUOUS
10
56.2720539999999971
20
-115.6238850000000014
11
56.1768159999999952
21
-115.814360999999991
0
LINE
8
BLACK
6
CONTINUOUS
10
56.1768159999999952
20
-115.814360999999991
11
56.0815780000000004
21
-115.9095999999999975
0
LINE
8
BLACK
6
CONTINUOUS
10
56.0815780000000004
20
-115.9095999999999975
11
55.8911019999999965
21
-116.0048379999999923
0
LINE
8
BLACK
6
CONTINUOUS
10
55.8911019999999965
20
-116.0048379999999923
11
55.7006249999999952
21
-116.0048379999999923
0
LINE
8
BLACK
6
CONTINUOUS
10
55.7006249999999952
20
-116.0048379999999923
11
55.5101489999999984
21
-115.9095999999999975
0
LINE
8
BLACK
6
CONTINUOUS
10
55.5101489999999984
20
-115.9095999999999975
11
55.4149109999999965
21
-115.814360999999991
0
LINE
8
BLACK
6
CONTINUOUS
10
55.4149109999999965
20
-115.814360999999991
11
55.3196729999999945
21
-115.6238850000000014
0
LINE
8
BLACK
6
CONTINUOUS
10
55.3196729999999945
20
-115.6238850000000014
11
55.2244349999999997
21
-115.2429329999999936
0
LINE
8
BLACK
6
CONTINUOUS
10
55.2244349999999997
20
-115.2429329999999936
11
55.2244349999999997
21
-114.7667419999999936
0
LINE
8
BLACK
6
CONTINUOUS
10
55.2244349999999997
20
-114.7667419999999936
11
55.3196729999999945
21
-114.3857900000000001
0
LINE
8
BLACK
6
CONTINUOUS
10
55.3196729999999945
20
-114.3857900000000001
11
55.4149109999999965
21
-114.1953139999999962
0
LINE
8
BLACK
6
CONTINUOUS
10
55.4149109999999965
20
-114.1953139999999962
11
55.5101489999999984
21
-114.1000760000000014
0
LINE
8
BLACK
6
CONTINUOUS
10
55.5101489999999984
20
-114.1000760000000014
11
55.7006249999999952
21
-114.0048379999999923
0
LINE
8
BLACK
6
CONTINUOUS
10
57.6053870000000003
20
-114.0048379999999923
11
57.7958639999999946
21
-114.0048379999999923
0
LINE
8
BLACK
6
CONTINUOUS
10
57.7958639999999946
20
-114.0048379999999923
11
57.9863399999999984
21
-114.1000760000000014
0
LINE
8
BLACK
6
CONTINUOUS
10
57.9863399999999984
20
-114.1000760000000014
11
58.0815780000000004
21
-114.1953139999999962
0
LINE
8
BLACK
6
CONTINUOUS
10
58.0815780000000004
20
-114.1953139999999962
11
58.1768159999999952
21
-114.3857900000000001
0
LINE
8
BLACK
6
CONTINUOUS
10
58.1768159999999952
20
-114.3857900000000001
11
58.2720539999999971
21
-114.7667419999999936
0
LINE
8
BLACK
6
CONTINUOUS
10
58.2720539999999971
20
-114.7667419999999936
11
58.2720539999999971
21
-115.2429329999999936
0
LINE
8
BLACK
6
CONTINUOUS
10
58.2720539999999971
20
-115.2429329999999936
11
58.1768159999999952
21
-115.6238850000000014
0
LINE
8
BLACK
6
CONTINUOUS
10
58.1768159999999952
20
-115.6238850000000014
11
58.0815780000000004
21
-115.814360999999991
0
LINE
8
BLACK
6
CONTINUOUS
10
58.0815780000000004
20
-115.814360999999991
11
57.9863399999999984
21
-115.9095999999999975
0
LINE
8
BLACK
6
CONTINUOUS
10
57.9863399999999984
20
-115.9095999999999975
11
57.7958639999999946
21
-116.0048379999999923
0
LINE
8
BLACK
6
CONTINUOUS
10
57.7958639999999946
20
-116.0048379999999923
11
57.6053870000000003
21
-116.0048379999999923
0
LINE
8
BLACK
6
CONTINUOUS
10
57.6053870000000003
20
-116.0048379999999923
11
57.4149109999999965
21
-115.9095999999999975
0
LINE
8
BLACK
6
CONTINUOUS
10
57.4149109999999965
20
-115.9095999999999975
11
57.3196729999999945
21
-115.814360999999991
0
LINE
8
BLACK
6
CONTINUOUS
10
57.3196729999999945
20
-115.814360999999991
11
57.2244349999999997
21
-115.6238850000000014
0
LINE
8
BLACK
6
CONTINUOUS
10
57.2244349999999997
20
-115.6238850000000014
11
57.1291969999999978
21
-115.2429329999999936
0
LINE
8
BLACK
6
CONTINUOUS
10
57.1291969999999978
20
-115.2429329999999936
11
57.1291969999999978
21
-114.7667419999999936
0
LINE
8
BLACK
6
CONTINUOUS
10
57.1291969999999978
20
-114.7667419999999936
11
57.2244349999999997
21
-114.3857900000000001
0
LINE
8
BLACK
6
CONTINUOUS
10
57.2244349999999997
20
-114.3857900000000001
11
57.3196729999999945
21
-114.1953139999999962
0
LINE
8
BLACK
6
CONTINUOUS
10
57.3196729999999945
20
-114.1953139999999962
11
57.4149109999999965
21
-114.1000760000000014
0
LINE
8
BLACK
6
CONTINUOUS
10
57.4149109999999965
20
-114.1000760000000014
11
57.6053870000000003
21
-114.0048379999999923
0
LINE
8
BLACK
6
CONTINUOUS
10
59.1291969999999978
20
-116.0048379999999923
11
59.1291969999999978
21
-114.6715039999999988
0
LINE
8
BLACK
6
CONTINUOUS
10
59.1291969999999978
20
-114.8619799999999884
11
59.2244349999999997
21
-114.7667419999999936
0
LINE
8
BLACK
6
CONTINUOUS
10
59.2244349999999997
20
-114.7667419999999936
11
59.4149109999999965
21
-114.6715039999999988
0
LINE
8
BLACK
6
CONTINUOUS
10
59.4149109999999965
20
-114.6715039999999988
11
59.7006259999999997
21
-114.6715039999999988
0
LINE
8
BLACK
6
CONTINUOUS
10
59.7006259999999997
20
-114.6715039999999988
11
59.8911019999999965
21
-114.7667419999999936
0
LINE
8
BLACK
6
CONTINUOUS
10
59.8911019999999965
20
-114.7667419999999936
11
59.9863399999999984
21
-114.9572189999999949
0
LINE
8
BLACK
6
CONTINUOUS
10
59.9863399999999984
20
-114.9572189999999949
11
59.9863399999999984
21
-116.0048379999999923
0
LINE
8
BLACK
6
CONTINUOUS
10
59.9863399999999984
20
-114.9572189999999949
11
60.0815780000000004
21
-114.7667419999999936
0
LINE
8
BLACK
6
CONTINUOUS
10
60.0815780000000004
20
-114.7667419999999936
11
60.2720539999999971
21
-114.6715039999999988
0
LINE
8
BLACK
6
CONTINUOUS
10
60.2720539999999971
20
-114.6715039999999988
11
60.5577679999999958
21
-114.6715039999999988
0
LINE
8
BLACK
6
CONTINUOUS
10
60.5577679999999958
20
-114.6715039999999988
11
60.7482449999999972
21
-114.7667419999999936
0
LINE
8
BLACK
6
CONTINUOUS
10
60.7482449999999972
20
-114.7667419999999936
11
60.8434829999999991
21
-114.9572189999999949
0
LINE
8
BLACK
6
CONTINUOUS
10
60.8434829999999991
20
-114.9572189999999949
11
60.8434829999999991
21
-116.0048379999999923
0
LINE
8
BLACK
6
CONTINUOUS
10
61.7958639999999946
20
-116.0048379999999923
11
61.7958639999999946
21
-114.6715039999999988
0
LINE
8
BLACK
6
CONTINUOUS
10
61.7958639999999946
20
-114.8619799999999884
11
61.8911019999999965
21
-114.7667419999999936
0
LINE
8
BLACK
6
CONTINUOUS
10
61.8911019999999965
20
-114.7667419999999936
11
62.0815780000000004
21
-114.6715039999999988
0
LINE
8
BLACK
6
CONTINUOUS
10
62.0815780000000004
20
-114.6715039999999988
11
62.3672929999999965
21
-114.6715039999999988
0
LINE
8
BLACK
6
CONTINUOUS
10
62.3672929999999965
20
-114.6715039999999988
11
62.5577690000000004
21
-114.7667419999999936
0
LINE
8
BLACK
6
CONTINUOUS
10
62.5577690000000004
20
-114.7667419999999936
11
62.6530069999999952
21
-114.9572189999999949
0
LINE
8
BLACK
6
CONTINUOUS
10
62.6530069999999952
20
-114.9572189999999949
11
62.6530069999999952
21
-116.0048379999999923
0
LINE
8
BLACK
6
CONTINUOUS
10
62.6530069999999952
20
-114.9572189999999949
11
62.7482449999999972
21
-114.7667419999999936
0
LINE
8
BLACK
6
CONTINUOUS
10
62.7482449999999972
20
-114.7667419999999936
11
62.9387209999999939
21
-114.6715039999999988
0
LINE
8
BLACK
6
CONTINUOUS
10
62.9387209999999939
20
-114.6715039999999988
11
63.2244349999999997
21
-114.6715039999999988
0
LINE
8
BLACK
6
CONTINUOUS
10
63.2244349999999997
20
-114.6715039999999988
11
63.414911999999994
21
-114.7667419999999936
0
LINE
8
BLACK
6
CONTINUOUS
10
63.414911999999994
20
-114.7667419999999936
11
63.5101499999999959
21
-114.9572189999999949
0
LINE
8
BLACK
6
CONTINUOUS
10
63.5101499999999959
20
-114.9572189999999949
11
63.5101499999999959
21
-116.0048379999999923
0
LINE
8
BLACK
6
CONTINUOUS
10
67.4149120000000011
20
-113.9095999999999975
11
65.7006269999999972
21
-116.4810279999999949
0
LINE
8
BLACK
6
CONTINUOUS
10
69.9863409999999959
20
-114.0048379999999923
11
70.1768179999999973
21
-114.0048379999999923
0
LINE
8
BLACK
6
CONTINUOUS
10
70.1768179999999973
20
-114.0048379999999923
11
70.3672940000000011
21
-114.1000760000000014
0
LINE
8
BLACK
6
CONTINUOUS
10
70.3672940000000011
20
-114.1000760000000014
11
70.4625319999999959
21
-114.1953139999999962
0
LINE
8
BLACK
6
CONTINUOUS
10
70.4625319999999959
20
-114.1953139999999962
11
70.5577699999999908
21
-114.3857900000000001
0
LINE
8
BLACK
6
CONTINUOUS
10
70.5577699999999908
20
-114.3857900000000001
11
70.6530079999999998
21
-114.7667419999999936
0
LINE
8
BLACK
6
CONTINUOUS
10
70.6530079999999998
20
-114.7667419999999936
11
70.6530079999999998
21
-115.2429329999999936
0
LINE
8
BLACK
6
CONTINUOUS
10
70.6530079999999998
20
-115.2429329999999936
11
70.5577699999999908
21
-115.6238850000000014
0
LINE
8
BLACK
6
CONTINUOUS
10
70.5577699999999908
20
-115.6238850000000014
11
70.4625319999999959
21
-115.814360999999991
0
LINE
8
BLACK
6
CONTINUOUS
10
70.4625319999999959
20
-115.814360999999991
11
70.3672940000000011
21
-115.9095999999999975
0
LINE
8
BLACK
6
CONTINUOUS
10
70.3672940000000011
20
-115.9095999999999975
11
70.1768179999999973
21
-116.0048379999999923
0
LINE
8
BLACK
6
CONTINUOUS
10
70.1768179999999973
20
-116.0048379999999923
11
69.9863409999999959
21
-116.0048379999999923
0
LINE
8
BLACK
6
CONTINUOUS
10
69.9863409999999959
20
-116.0048379999999923
11
69.7958649999999921
21
-115.9095999999999975
0
LINE
8
BLACK
6
CONTINUOUS
10
69.7958649999999921
20
-115.9095999999999975
11
69.7006269999999972
21
-115.814360999999991
0
LINE
8
BLACK
6
CONTINUOUS
10
69.7006269999999972
20
-115.814360999999991
11
69.6053890000000024
21
-115.6238850000000014
0
LINE
8
BLACK
6
CONTINUOUS
10
69.6053890000000024
20
-115.6238850000000014
11
69.5101509999999934
21
-115.2429329999999936
0
LINE
8
BLACK
6
CONTINUOUS
10
69.5101509999999934
20
-115.2429329999999936
11
69.5101509999999934
21
-114.7667419999999936
0
LINE
8
BLACK
6
CONTINUOUS
10
69.5101509999999934
20
-114.7667419999999936
11
69.6053890000000024
21
-114.3857900000000001
0
LINE
8
BLACK
6
CONTINUOUS
10
69.6053890000000024
20
-114.3857900000000001
11
69.7006269999999972
21
-114.1953139999999962
0
LINE
8
BLACK
6
CONTINUOUS
10
69.7006269999999972
20
-114.1953139999999962
11
69.7958649999999921
21
-114.1000760000000014
0
LINE
8
BLACK
6
CONTINUOUS
10
69.7958649999999921
20
-114.1000760000000014
11
69.9863409999999959
21
-114.0048379999999923
0
LINE
8
BLACK
6
CONTINUOUS
10
71.5101509999999934
20
-115.814360999999991
11
71.6053890000000024
21
-115.9095999999999975
0
LINE
8
BLACK
6
CONTINUOUS
10
71.6053890000000024
20
-115.9095999999999975
11
71.5101509999999934
21
-116.0048379999999923
0
LINE
8
BLACK
6
CONTINUOUS
10
71.5101509999999934
20
-116.0048379999999923
11
71.4149129999999985
21
-115.9095999999999975
0
LINE
8
BLACK
6
CONTINUOUS
10
71.4149129999999985
20
-115.9095999999999975
11
71.5101509999999934
21
-115.814360999999991
0
LINE
8
BLACK
6
CONTINUOUS
10
71.5101509999999934
20
-115.814360999999991
11
71.5101509999999934
21
-116.0048379999999923
0
LINE
8
BLACK
6
CONTINUOUS
10
72.8434840000000037
20
-114.0048379999999923
11
73.0339609999999908
21
-114.0048379999999923
0
LINE
8
BLACK
6
CONTINUOUS
10
73.0339609999999908
20
-114.0048379999999923
11
73.2244369999999947
21
-114.1000760000000014
0
LINE
8
BLACK
6
CONTINUOUS
10
73.2244369999999947
20
-114.1000760000000014
11
73.3196750000000037
21
-114.1953139999999962
0
LINE
8
BLACK
6
CONTINUOUS
10
73.3196750000000037
20
-114.1953139999999962
11
73.4149129999999985
21
-114.3857900000000001
0
LINE
8
BLACK
6
CONTINUOUS
10
73.4149129999999985
20
-114.3857900000000001
11
73.5101509999999934
21
-114.7667419999999936
0
LINE
8
BLACK
6
CONTINUOUS
10
73.5101509999999934
20
-114.7667419999999936
11
73.5101509999999934
21
-115.2429329999999936
0
LINE
8
BLACK
6
CONTINUOUS
10
73.5101509999999934
20
-115.2429329999999936
11
73.4149129999999985
21
-115.6238850000000014
0
LINE
8
BLACK
6
CONTINUOUS
10
73.4149129999999985
20
-115.6238850000000014
11
73.3196750000000037
21
-115.814360999999991
0
LINE
8
BLACK
6
CONTINUOUS
10
73.3196750000000037
20
-115.814360999999991
11
73.2244369999999947
21
-115.9095999999999975
0
LINE
8
BLACK
6
CONTINUOUS
10
73.2244369999999947
20
-115.9095999999999975
11
73.0339609999999908
21
-116.0048379999999923
0
LINE
8
BLACK
6
CONTINUOUS
10
73.0339609999999908
20
-116.0048379999999923
11
72.8434840000000037
21
-116.0048379999999923
0
LINE
8
BLACK
6
CONTINUOUS
10
72.8434840000000037
20
-116.0048379999999923
11
72.6530079999999998
21
-115.9095999999999975
0
LINE
8
BLACK
6
CONTINUOUS
10
72.6530079999999998
20
-115.9095999999999975
11
72.5577699999999908
21
-115.814360999999991
0
LINE
8
BLACK
6
CONTINUOUS
10
72.5577699999999908
20
-115.814360999999991
11
72.4625319999999959
21
-115.6238850000000014
0
LINE
8
BLACK
6
CONTINUOUS
10
72.4625319999999959
20
-115.6238850000000014
11
72.3672940000000011
21
-115.2429329999999936
0
LINE
8
BLACK
6
CONTINUOUS
10
72.3672940000000011
20
-115.2429329999999936
11
72.3672940000000011
21
-114.7667419999999936
0
LINE
8
BLACK
6
CONTINUOUS
10
72.3672940000000011
20
-114.7667419999999936
11
72.4625319999999959
21
-114.3857900000000001
0
LINE
8
BLACK
6
CONTINUOUS
10
72.4625319999999959
20
-114.3857900000000001
11
72.5577699999999908
21
-114.1953139999999962
0
LINE
8
BLACK
6
CONTINUOUS
10
72.5577699999999908
20
-114.1953139999999962
11
72.6530079999999998
21
-114.1000760000000014
0
LINE
8
BLACK
6
CONTINUOUS
10
72.6530079999999998
20
-114.1000760000000014
11
72.8434840000000037
21
-114.0048379999999923
0
LINE
8
BLACK
6
CONTINUOUS
10
74.1768179999999973
20
-114.0048379999999923
11
75.4149129999999985
21
-114.0048379999999923
0
LINE
8
BLACK
6
CONTINUOUS
10
75.4149129999999985
20
-114.0048379999999923
11
74.7482459999999946
21
-114.7667419999999936
0
LINE
8
BLACK
6
CONTINUOUS
10
74.7482459999999946
20
-114.7667419999999936
11
75.0339609999999908
21
-114.7667419999999936
0
LINE
8
BLACK
6
CONTINUOUS
10
75.0339609999999908
20
-114.7667419999999936
11
75.2244369999999947
21
-114.8619799999999884
0
LINE
8
BLACK
6
CONTINUOUS
10
75.2244369999999947
20
-114.8619799999999884
11
75.3196749999999895
21
-114.9572189999999949
0
LINE
8
BLACK
6
CONTINUOUS
10
75.3196749999999895
20
-114.9572189999999949
11
75.4149129999999985
21
-115.1476949999999988
0
LINE
8
BLACK
6
CONTINUOUS
10
75.4149129999999985
20
-115.1476949999999988
11
75.4149129999999985
21
-115.6238850000000014
0
LINE
8
BLACK
6
CONTINUOUS
10
75.4149129999999985
20
-115.6238850000000014
11
75.3196749999999895
21
-115.814360999999991
0
LINE
8
BLACK
6
CONTINUOUS
10
75.3196749999999895
20
-115.814360999999991
11
75.2244369999999947
21
-115.9095999999999975
0
LINE
8
BLACK
6
CONTINUOUS
10
75.2244369999999947
20
-115.9095999999999975
11
75.0339609999999908
21
-116.0048379999999923
0
LINE
8
BLACK
6
CONTINUOUS
10
75.0339609999999908
20
-116.0048379999999923
11
74.4625319999999959
21
-116.0048379999999923
0
LINE
8
BLACK
6
CONTINUOUS
10
74.4625319999999959
20
-116.0048379999999923
11
74.2720559999999921
21
-115.9095999999999975
0
LINE
8
BLACK
6
CONTINUOUS
10
74.2720559999999921
20
-115.9095999999999975
11
74.1768179999999973
21
-115.814360999999991
0
LINE
8
BLACK
6
CONTINUOUS
10
77.3196749999999895
20
-116.0048379999999923
11
76.1768179999999973
21
-116.0048379999999923
0
LINE
8
BLACK
6
CONTINUOUS
10
76.7482459999999946
20
-116.0048379999999923
11
76.7482459999999946
21
-114.0048379999999923
0
LINE
8
BLACK
6
CONTINUOUS
10
76.7482459999999946
20
-114.0048379999999923
11
76.5577699999999908
21
-114.290551999999991
0
LINE
8
BLACK
6
CONTINUOUS
10
76.5577699999999908
20
-114.290551999999991
11
76.3672940000000011
21
-114.4810279999999949
0
LINE
8
BLACK
6
CONTINUOUS
10
76.3672940000000011
20
-114.4810279999999949
11
76.1768179999999973
21
-114.5762659999999897
0
LINE
8
BLACK
6
CONTINUOUS
10
79.1291989999999998
20
-114.0048379999999923
11
78.1768179999999973
21
-114.0048379999999923
0
LINE
8
BLACK
6
CONTINUOUS
10
78.1768179999999973
20
-114.0048379999999923
11
78.0815800000000024
21
-114.9572189999999949
0
LINE
8
BLACK
6
CONTINUOUS
10
78.0815800000000024
20
-114.9572189999999949
11
78.1768179999999973
21
-114.8619799999999884
0
LINE
8
BLACK
6
CONTINUOUS
10
78.1768179999999973
20
-114.8619799999999884
11
78.3672940000000011
21
-114.7667419999999936
0
LINE
8
BLACK
6
CONTINUOUS
10
78.3672940000000011
20
-114.7667419999999936
11
78.8434850000000012
21
-114.7667419999999936
0
LINE
8
BLACK
6
CONTINUOUS
10
78.8434850000000012
20
-114.7667419999999936
11
79.0339609999999908
21
-114.8619799999999884
0
LINE
8
BLACK
6
CONTINUOUS
10
79.0339609999999908
20
-114.8619799999999884
11
79.1291989999999998
21
-114.9572189999999949
0
LINE
8
BLACK
6
CONTINUOUS
10
79.1291989999999998
20
-114.9572189999999949
11
79.2244369999999947
21
-115.1476949999999988
0
LINE
8
BLACK
6
CONTINUOUS
10
79.2244369999999947
20
-115.1476949999999988
11
79.2244369999999947
21
-115.6238850000000014
0
LINE
8
BLACK
6
CONTINUOUS
10
79.2244369999999947
20
-115.6238850000000014
11
79.1291989999999998
21
-115.814360999999991
0
LINE
8
BLACK
6
CONTINUOUS
10
79.1291989999999998
20
-115.814360999999991
11
79.0339609999999908
21
-115.9095999999999975
0
LINE
8
BLACK
6
CONTINUOUS
10
79.0339609999999908
20
-115.9095999999999975
11
78.8434850000000012
21
-116.0048379999999923
0
LINE
8
BLACK
6
CONTINUOUS
10
78.8434850000000012
20
-116.0048379999999923
11
78.3672940000000011
21
-116.0048379999999923
0
LINE
8
BLACK
6
CONTINUOUS
10
78.3672940000000011
20
-116.0048379999999923
11
78.1768179999999973
21
-115.9095999999999975
0
LINE
8
BLACK
6
CONTINUOUS
10
78.1768179999999973
20
-115.9095999999999975
11
78.0815800000000024
21
-115.814360999999991
0
LINE
8
BLACK
6
CONTINUOUS
10
79.9863419999999934
20
-114.0048379999999923
11
79.9863419999999934
21
-114.3857900000000001
0
LINE
8
BLACK
6
CONTINUOUS
10
80.7482469999999921
20
-114.0048379999999923
11
80.7482469999999921
21
-114.3857900000000001
0
LINE
8
BLACK
6
CONTINUOUS
10
83.7006289999999922
20
-116.7667419999999936
11
83.6053899999999999
21
-116.6715039999999988
0
LINE
8
BLACK
6
CONTINUOUS
10
83.6053899999999999
20
-116.6715039999999988
11
83.414913999999996
21
-116.3857900000000001
0
LINE
8
BLACK
6
CONTINUOUS
10
83.414913999999996
20
-116.3857900000000001
11
83.3196760000000012
21
-116.1953139999999962
0
LINE
8
BLACK
6
CONTINUOUS
10
83.3196760000000012
20
-116.1953139999999962
11
83.2244379999999921
21
-115.9095999999999975
0
LINE
8
BLACK
6
CONTINUOUS
10
83.2244379999999921
20
-115.9095999999999975
11
83.1291999999999973
21
-115.4334089999999975
0
LINE
8
BLACK
6
CONTINUOUS
10
83.1291999999999973
20
-115.4334089999999975
11
83.1291999999999973
21
-115.0524569999999898
0
LINE
8
BLACK
6
CONTINUOUS
10
83.1291999999999973
20
-115.0524569999999898
11
83.2244379999999921
21
-114.5762659999999897
0
LINE
8
BLACK
6
CONTINUOUS
10
83.2244379999999921
20
-114.5762659999999897
11
83.3196760000000012
21
-114.290551999999991
0
LINE
8
BLACK
6
CONTINUOUS
10
83.3196760000000012
20
-114.290551999999991
11
83.414913999999996
21
-114.1000760000000014
0
LINE
8
BLACK
6
CONTINUOUS
10
83.414913999999996
20
-114.1000760000000014
11
83.6053899999999999
21
-113.814360999999991
0
LINE
8
BLACK
6
CONTINUOUS
10
83.6053899999999999
20
-113.814360999999991
11
83.7006289999999922
21
-113.7191229999999962
0
LINE
8
BLACK
6
CONTINUOUS
10
85.5101519999999908
20
-116.0048379999999923
11
84.3672949999999986
21
-116.0048379999999923
0
LINE
8
BLACK
6
CONTINUOUS
10
84.938722999999996
20
-116.0048379999999923
11
84.938722999999996
21
-114.0048379999999923
0
LINE
8
BLACK
6
CONTINUOUS
10
84.938722999999996
20
-114.0048379999999923
11
84.7482469999999921
21
-114.290551999999991
0
LINE
8
BLACK
6
CONTINUOUS
10
84.7482469999999921
20
-114.290551999999991
11
84.5577710000000025
21
-114.4810279999999949
0
LINE
8
BLACK
6
CONTINUOUS
10
84.5577710000000025
20
-114.4810279999999949
11
84.3672949999999986
21
-114.5762659999999897
0
LINE
8
BLACK
6
CONTINUOUS
10
87.2244379999999921
20
-114.0048379999999923
11
86.8434850000000012
21
-114.0048379999999923
0
LINE
8
BLACK
6
CONTINUOUS
10
86.8434850000000012
20
-114.0048379999999923
11
86.6530089999999973
21
-114.1000760000000014
0
LINE
8
BLACK
6
CONTINUOUS
10
86.6530089999999973
20
-114.1000760000000014
11
86.5577710000000025
21
-114.1953139999999962
0
LINE
8
BLACK
6
CONTINUOUS
10
86.5577710000000025
20
-114.1953139999999962
11
86.3672949999999986
21
-114.4810279999999949
0
LINE
8
BLACK
6
CONTINUOUS
10
86.3672949999999986
20
-114.4810279999999949
11
86.2720569999999896
21
-114.8619799999999884
0
LINE
8
BLACK
6
CONTINUOUS
10
86.2720569999999896
20
-114.8619799999999884
11
86.2720569999999896
21
-115.6238850000000014
0
LINE
8
BLACK
6
CONTINUOUS
10
86.2720569999999896
20
-115.6238850000000014
11
86.3672949999999986
21
-115.814360999999991
0
LINE
8
BLACK
6
CONTINUOUS
10
86.3672949999999986
20
-115.814360999999991
11
86.4625329999999934
21
-115.9095999999999975
0
LINE
8
BLACK
6
CONTINUOUS
10
86.4625329999999934
20
-115.9095999999999975
11
86.6530089999999973
21
-116.0048379999999923
0
LINE
8
BLACK
6
CONTINUOUS
10
86.6530089999999973
20
-116.0048379999999923
11
87.0339620000000025
21
-116.0048379999999923
0
LINE
8
BLACK
6
CONTINUOUS
10
87.0339620000000025
20
-116.0048379999999923
11
87.2244379999999921
21
-115.9095999999999975
0
LINE
8
BLACK
6
CONTINUOUS
10
87.2244379999999921
20
-115.9095999999999975
11
87.3196760000000012
21
-115.814360999999991
0
LINE
8
BLACK
6
CONTINUOUS
10
87.3196760000000012
20
-115.814360999999991
11
87.414913999999996
21
-115.6238850000000014
0
LINE
8
BLACK
6
CONTINUOUS
10
87.414913999999996
20
-115.6238850000000014
11
87.414913999999996
21
-115.1476949999999988
0
LINE
8
BLACK
6
CONTINUOUS
10
87.414913999999996
20
-115.1476949999999988
11
87.3196760000000012
21
-114.9572189999999949
0
LINE
8
BLACK
6
CONTINUOUS
10
87.3196760000000012
20
-114.9572189999999949
11
87.2244379999999921
21
-114.8619799999999884
0
LINE
8
BLACK
6
CONTINUOUS
10
87.2244379999999921
20
-114.8619799999999884
11
87.0339620000000025
21
-114.7667419999999936
0
LINE
8
BLACK
6
CONTINUOUS
10
87.0339620000000025
20
-114.7667419999999936
11
86.6530089999999973
21
-114.7667419999999936
0
LINE
8
BLACK
6
CONTINUOUS
10
86.6530089999999973
20
-114.7667419999999936
11
86.4625329999999934
21
-114.8619799999999884
0
LINE
8
BLACK
6
CONTINUOUS
10
86.4625329999999934
20
-114.8619799999999884
11
86.3672949999999986
21
-114.9572189999999949
0
LINE
8
BLACK
6
CONTINUOUS
10
86.3672949999999986
20
-114.9572189999999949
11
86.2720569999999896
21
-115.1476949999999988
0
LINE
8
BLACK
6
CONTINUOUS
10
89.3196760000000012
20
-116.0048379999999923
11
88.1768189999999947
21
-116.0048379999999923
0
LINE
8
BLACK
6
CONTINUOUS
10
88.7482469999999921
20
-116.0048379999999923
11
88.7482469999999921
21
-114.0048379999999923
0
LINE
8
BLACK
6
CONTINUOUS
10
88.7482469999999921
20
-114.0048379999999923
11
88.5577710000000025
21
-114.290551999999991
0
LINE
8
BLACK
6
CONTINUOUS
10
88.5577710000000025
20
-114.290551999999991
11
88.3672949999999986
21
-114.4810279999999949
0
LINE
8
BLACK
6
CONTINUOUS
10
88.3672949999999986
20
-114.4810279999999949
11
88.1768189999999947
21
-114.5762659999999897
0
LINE
8
BLACK
6
CONTINUOUS
10
91.7006289999999922
20
-116.0048379999999923
11
91.7006289999999922
21
-114.0048379999999923
0
LINE
8
BLACK
6
CONTINUOUS
10
92.5577719999999999
20
-116.0048379999999923
11
92.5577719999999999
21
-114.9572189999999949
0
LINE
8
BLACK
6
CONTINUOUS
10
92.5577719999999999
20
-114.9572189999999949
11
92.4625339999999909
21
-114.7667419999999936
0
LINE
8
BLACK
6
CONTINUOUS
10
92.4625339999999909
20
-114.7667419999999936
11
92.2720580000000012
21
-114.6715039999999988
0
LINE
8
BLACK
6
CONTINUOUS
10
92.2720580000000012
20
-114.6715039999999988
11
91.9863429999999909
21
-114.6715039999999988
0
LINE
8
BLACK
6
CONTINUOUS
10
91.9863429999999909
20
-114.6715039999999988
11
91.7958670000000012
21
-114.7667419999999936
0
LINE
8
BLACK
6
CONTINUOUS
10
91.7958670000000012
20
-114.7667419999999936
11
91.7006289999999922
21
-114.8619799999999884
0
LINE
8
BLACK
6
CONTINUOUS
10
93.7958670000000012
20
-116.0048379999999923
11
93.6053909999999973
21
-115.9095999999999975
0
LINE
8
BLACK
6
CONTINUOUS
10
93.6053909999999973
20
-115.9095999999999975
11
93.5101530000000025
21
-115.814360999999991
0
LINE
8
BLACK
6
CONTINUOUS
10
93.5101530000000025
20
-115.814360999999991
11
93.4149149999999935
21
-115.6238850000000014
0
LINE
8
BLACK
6
CONTINUOUS
10
93.4149149999999935
20
-115.6238850000000014
11
93.4149149999999935
21
-115.0524569999999898
0
LINE
8
BLACK
6
CONTINUOUS
10
93.4149149999999935
20
-115.0524569999999898
11
93.5101530000000025
21
-114.8619799999999884
0
LINE
8
BLACK
6
CONTINUOUS
10
93.5101530000000025
20
-114.8619799999999884
11
93.6053909999999973
21
-114.7667419999999936
0
LINE
8
BLACK
6
CONTINUOUS
10
93.6053909999999973
20
-114.7667419999999936
11
93.7958670000000012
21
-114.6715039999999988
0
LINE
8
BLACK
6
CONTINUOUS
10
93.7958670000000012
20
-114.6715039999999988
11
94.0815819999999974
21
-114.6715039999999988
0
LINE
8
BLACK
6
CONTINUOUS
10
94.0815819999999974
20
-114.6715039999999988
11
94.2720580000000012
21
-114.7667419999999936
0
LINE
8
BLACK
6
CONTINUOUS
10
94.2720580000000012
20
-114.7667419999999936
11
94.3672959999999961
21
-114.8619799999999884
0
LINE
8
BLACK
6
CONTINUOUS
10
94.3672959999999961
20
-114.8619799999999884
11
94.4625339999999909
21
-115.0524569999999898
0
LINE
8
BLACK
6
CONTINUOUS
10
94.4625339999999909
20
-115.0524569999999898
11
94.4625339999999909
21
-115.6238850000000014
0
LINE
8
BLACK
6
CONTINUOUS
10
94.4625339999999909
20
-115.6238850000000014
11
94.3672959999999961
21
-115.814360999999991
0
LINE
8
BLACK
6
CONTINUOUS
10
94.3672959999999961
20
-115.814360999999991
11
94.2720580000000012
21
-115.9095999999999975
0
LINE
8
BLACK
6
CONTINUOUS
10
94.2720580000000012
20
-115.9095999999999975
11
94.0815819999999974
21
-116.0048379999999923
0
LINE
8
BLACK
6
CONTINUOUS
10
94.0815819999999974
20
-116.0048379999999923
11
93.7958670000000012
21
-116.0048379999999923
0
LINE
8
BLACK
6
CONTINUOUS
10
95.6053909999999973
20
-116.0048379999999923
11
95.4149149999999935
21
-115.9095999999999975
0
LINE
8
BLACK
6
CONTINUOUS
10
95.4149149999999935
20
-115.9095999999999975
11
95.3196769999999987
21
-115.7191229999999962
0
LINE
8
BLACK
6
CONTINUOUS
10
95.3196769999999987
20
-115.7191229999999962
11
95.3196769999999987
21
-114.0048379999999923
0
LINE
8
BLACK
6
CONTINUOUS
10
97.1292009999999948
20
-115.9095999999999975
11
96.9387249999999909
21
-116.0048379999999923
0
LINE
8
BLACK
6
CONTINUOUS
10
96.9387249999999909
20
-116.0048379999999923
11
96.5577719999999999
21
-116.0048379999999923
0
LINE
8
BLACK
6
CONTINUOUS
10
96.5577719999999999
20
-116.0048379999999923
11
96.3672959999999961
21
-115.9095999999999975
0
LINE
8
BLACK
6
CONTINUOUS
10
96.3672959999999961
20
-115.9095999999999975
11
96.2720580000000012
21
-115.7191229999999962
0
LINE
8
BLACK
6
CONTINUOUS
10
96.2720580000000012
20
-115.7191229999999962
11
96.2720580000000012
21
-114.9572189999999949
0
LINE
8
BLACK
6
CONTINUOUS
10
96.2720580000000012
20
-114.9572189999999949
11
96.3672959999999961
21
-114.7667419999999936
0
LINE
8
BLACK
6
CONTINUOUS
10
96.3672959999999961
20
-114.7667419999999936
11
96.5577719999999999
21
-114.6715039999999988
0
LINE
8
BLACK
6
CONTINUOUS
10
96.5577719999999999
20
-114.6715039999999988
11
96.9387249999999909
21
-114.6715039999999988
0
LINE
8
BLACK
6
CONTINUOUS
10
96.9387249999999909
20
-114.6715039999999988
11
97.1292009999999948
21
-114.7667419999999936
0
LINE
8
BLACK
6
CONTINUOUS
10
97.1292009999999948
20
-114.7667419999999936
11
97.2244389999999896
21
-114.9572189999999949
0
LINE
8
BLACK
6
CONTINUOUS
10
97.2244389999999896
20
-114.9572189999999949
11
97.2244389999999896
21
-115.1476949999999988
0
LINE
8
BLACK
6
CONTINUOUS
10
97.2244389999999896
20
-115.1476949999999988
11
96.2720580000000012
21
-115.3381709999999885
0
LINE
8
BLACK
6
CONTINUOUS
10
97.9863440000000026
20
-115.9095999999999975
11
98.1768199999999922
21
-116.0048379999999923
0
LINE
8
BLACK
6
CONTINUOUS
10
98.1768199999999922
20
-116.0048379999999923
11
98.5577719999999999
21
-116.0048379999999923
0
LINE
8
BLACK
6
CONTINUOUS
10
98.5577719999999999
20
-116.0048379999999923
11
98.7482490000000013
21
-115.9095999999999975
0
LINE
8
BLACK
6
CONTINUOUS
10
98.7482490000000013
20
-115.9095999999999975
11
98.8434869999999961
21
-115.7191229999999962
0
LINE
8
BLACK
6
CONTINUOUS
10
98.8434869999999961
20
-115.7191229999999962
11
98.8434869999999961
21
-115.6238850000000014
0
LINE
8
BLACK
6
CONTINUOUS
10
98.8434869999999961
20
-115.6238850000000014
11
98.7482490000000013
21
-115.4334089999999975
0
LINE
8
BLACK
6
CONTINUOUS
10
98.7482490000000013
20
-115.4334089999999975
11
98.5577719999999999
21
-115.3381709999999885
0
LINE
8
BLACK
6
CONTINUOUS
10
98.5577719999999999
20
-115.3381709999999885
11
98.2720580000000012
21
-115.3381709999999885
0
LINE
8
BLACK
6
CONTINUOUS
10
98.2720580000000012
20
-115.3381709999999885
11
98.0815819999999974
21
-115.2429329999999936
0
LINE
8
BLACK
6
CONTINUOUS
10
98.0815819999999974
20
-115.2429329999999936
11
97.9863440000000026
21
-115.0524569999999898
0
LINE
8
BLACK
6
CONTINUOUS
10
97.9863440000000026
20
-115.0524569999999898
11
97.9863440000000026
21
-114.9572189999999949
0
LINE
8
BLACK
6
CONTINUOUS
10
97.9863440000000026
20
-114.9572189999999949
11
98.0815819999999974
21
-114.7667419999999936
0
LINE
8
BLACK
6
CONTINUOUS
10
98.0815819999999974
20
-114.7667419999999936
11
98.2720580000000012
21
-114.6715039999999988
0
LINE
8
BLACK
6
CONTINUOUS
10
98.2720580000000012
20
-114.6715039999999988
11
98.5577719999999999
21
-114.6715039999999988
0
LINE
8
BLACK
6
CONTINUOUS
10
98.5577719999999999
20
-114.6715039999999988
11
98.7482490000000013
21
-114.7667419999999936
0
LINE
8
BLACK
6
CONTINUOUS
10
99.510154
20
-116.7667419999999936
11
99.6053919999999948
21
-116.6715039999999988
0
LINE
8
BLACK
6
CONTINUOUS
10
99.6053919999999948
20
-116.6715039999999988
11
99.7958679999999987
21
-116.3857900000000001
0
LINE
8
BLACK
6
CONTINUOUS
10
99.7958679999999987
20
-116.3857900000000001
11
99.8911059999999935
21
-116.1953139999999962
0
LINE
8
BLACK
6
CONTINUOUS
10
99.8911059999999935
20
-116.1953139999999962
11
99.9863440000000026
21
-115.9095999999999975
0
LINE
8
BLACK
6
CONTINUOUS
10
99.9863440000000026
20
-115.9095999999999975
11
100.0815819999999974
21
-115.4334089999999975
0
LINE
8
BLACK
6
CONTINUOUS
10
100.0815819999999974
20
-115.4334089999999975
11
100.0815819999999974
21
-115.0524569999999898
0
LINE
8
BLACK
6
CONTINUOUS
10
100.0815819999999974
20
-115.0524569999999898
11
99.9863440000000026
21
-114.5762659999999897
0
LINE
8
BLACK
6
CONTINUOUS
10
99.9863440000000026
20
-114.5762659999999897
11
99.8911059999999935
21
-114.290551999999991
0
LINE
8
BLACK
6
CONTINUOUS
10
99.8911059999999935
20
-114.290551999999991
11
99.7958679999999987
21
-114.1000760000000014
0
LINE
8
BLACK
6
CONTINUOUS
10
99.7958679999999987
20
-114.1000760000000014
11
99.6053919999999948
21
-113.814360999999991
0
LINE
8
BLACK
6
CONTINUOUS
10
99.6053919999999948
20
-113.814360999999991
11
99.510154
21
-113.7191229999999962
0
LINE
8
BLACK
6
CONTINUOUS
10
47.4499999999999957
20
-117.2299999999999898
11
47.4499999999999957
21
-118.2299999999999898
0
LINE
8
BLACK
6
CONTINUOUS
10
46.9499999999999957
20
-117.7299999999999898
11
47.9499999999999957
21
-117.7299999999999898
0
LINE
8
BLACK
6
CONTINUOUS
10
51.6053870000000003
20
-118.6448379999999929
11
50.462530000000001
21
-118.6448379999999929
0
LINE
8
BLACK
6
CONTINUOUS
10
51.0339579999999984
20
-118.6448379999999929
11
51.0339579999999984
21
-116.6448379999999929
0
LINE
8
BLACK
6
CONTINUOUS
10
51.0339579999999984
20
-116.6448379999999929
11
50.8434819999999945
21
-116.9305519999999916
0
LINE
8
BLACK
6
CONTINUOUS
10
50.8434819999999945
20
-116.9305519999999916
11
50.6530059999999978
21
-117.1210279999999955
0
LINE
8
BLACK
6
CONTINUOUS
10
50.6530059999999978
20
-117.1210279999999955
11
50.462530000000001
21
-117.2162659999999903
0
LINE
8
BLACK
6
CONTINUOUS
10
52.462530000000001
20
-118.4543609999999916
11
52.5577679999999958
21
-118.5495999999999981
0
LINE
8
BLACK
6
CONTINUOUS
10
52.5577679999999958
20
-118.5495999999999981
11
52.462530000000001
21
-118.6448379999999929
0
LINE
8
BLACK
6
CONTINUOUS
10
52.462530000000001
20
-118.6448379999999929
11
52.3672919999999991
21
-118.5495999999999981
0
LINE
8
BLACK
6
CONTINUOUS
10
52.3672919999999991
20
-118.5495999999999981
11
52.462530000000001
21
-118.4543609999999916
0
LINE
8
BLACK
6
CONTINUOUS
10
52.462530000000001
20
-118.4543609999999916
11
52.462530000000001
21
-118.6448379999999929
0
LINE
8
BLACK
6
CONTINUOUS
10
53.7958629999999971
20
-116.6448379999999929
11
53.9863399999999984
21
-116.6448379999999929
0
LINE
8
BLACK
6
CONTINUOUS
10
53.9863399999999984
20
-116.6448379999999929
11
54.1768159999999952
21
-116.7400759999999877
0
LINE
8
BLACK
6
CONTINUOUS
10
54.1768159999999952
20
-116.7400759999999877
11
54.2720539999999971
21
-116.8353139999999968
0
LINE
8
BLACK
6
CONTINUOUS
10
54.2720539999999971
20
-116.8353139999999968
11
54.3672919999999991
21
-117.0257900000000006
0
LINE
8
BLACK
6
CONTINUOUS
10
54.3672919999999991
20
-117.0257900000000006
11
54.462530000000001
21
-117.4067419999999942
0
LINE
8
BLACK
6
CONTINUOUS
10
54.462530000000001
20
-117.4067419999999942
11
54.462530000000001
21
-117.8829329999999942
0
LINE
8
BLACK
6
CONTINUOUS
10
54.462530000000001
20
-117.8829329999999942
11
54.3672919999999991
21
-118.2638849999999877
0
LINE
8
BLACK
6
CONTINUOUS
10
54.3672919999999991
20
-118.2638849999999877
11
54.2720539999999971
21
-118.4543609999999916
0
LINE
8
BLACK
6
CONTINUOUS
10
54.2720539999999971
20
-118.4543609999999916
11
54.1768159999999952
21
-118.5495999999999981
0
LINE
8
BLACK
6
CONTINUOUS
10
54.1768159999999952
20
-118.5495999999999981
11
53.9863399999999984
21
-118.6448379999999929
0
LINE
8
BLACK
6
CONTINUOUS
10
53.9863399999999984
20
-118.6448379999999929
11
53.7958629999999971
21
-118.6448379999999929
0
LINE
8
BLACK
6
CONTINUOUS
10
53.7958629999999971
20
-118.6448379999999929
11
53.6053870000000003
21
-118.5495999999999981
0
LINE
8
BLACK
6
CONTINUOUS
10
53.6053870000000003
20
-118.5495999999999981
11
53.5101489999999984
21
-118.4543609999999916
0
LINE
8
BLACK
6
CONTINUOUS
10
53.5101489999999984
20
-118.4543609999999916
11
53.4149109999999965
21
-118.2638849999999877
0
LINE
8
BLACK
6
CONTINUOUS
10
53.4149109999999965
20
-118.2638849999999877
11
53.3196729999999945
21
-117.8829329999999942
0
LINE
8
BLACK
6
CONTINUOUS
10
53.3196729999999945
20
-117.8829329999999942
11
53.3196729999999945
21
-117.4067419999999942
0
LINE
8
BLACK
6
CONTINUOUS
10
53.3196729999999945
20
-117.4067419999999942
11
53.4149109999999965
21
-117.0257900000000006
0
LINE
8
BLACK
6
CONTINUOUS
10
53.4149109999999965
20
-117.0257900000000006
11
53.5101489999999984
21
-116.8353139999999968
0
LINE
8
BLACK
6
CONTINUOUS
10
53.5101489999999984
20
-116.8353139999999968
11
53.6053870000000003
21
-116.7400759999999877
0
LINE
8
BLACK
6
CONTINUOUS
10
53.6053870000000003
20
-116.7400759999999877
11
53.7958629999999971
21
-116.6448379999999929
0
LINE
8
BLACK
6
CONTINUOUS
10
55.7006249999999952
20
-116.6448379999999929
11
55.8911019999999965
21
-116.6448379999999929
0
LINE
8
BLACK
6
CONTINUOUS
10
55.8911019999999965
20
-116.6448379999999929
11
56.0815780000000004
21
-116.7400759999999877
0
LINE
8
BLACK
6
CONTINUOUS
10
56.0815780000000004
20
-116.7400759999999877
11
56.1768159999999952
21
-116.8353139999999968
0
LINE
8
BLACK
6
CONTINUOUS
10
56.1768159999999952
20
-116.8353139999999968
11
56.2720539999999971
21
-117.0257900000000006
0
LINE
8
BLACK
6
CONTINUOUS
10
56.2720539999999971
20
-117.0257900000000006
11
56.3672919999999991
21
-117.4067419999999942
0
LINE
8
BLACK
6
CONTINUOUS
10
56.3672919999999991
20
-117.4067419999999942
11
56.3672919999999991
21
-117.8829329999999942
0
LINE
8
BLACK
6
CONTINUOUS
10
56.3672919999999991
20
-117.8829329999999942
11
56.2720539999999971
21
-118.2638849999999877
0
LINE
8
BLACK
6
CONTINUOUS
10
56.2720539999999971
20
-118.2638849999999877
11
56.1768159999999952
21
-118.4543609999999916
0
LINE
8
BLACK
6
CONTINUOUS
10
56.1768159999999952
20
-118.4543609999999916
11
56.0815780000000004
21
-118.5495999999999981
0
LINE
8
BLACK
6
CONTINUOUS
10
56.0815780000000004
20
-118.5495999999999981
11
55.8911019999999965
21
-118.6448379999999929
0
LINE
8
BLACK
6
CONTINUOUS
10
55.8911019999999965
20
-118.6448379999999929
11
55.7006249999999952
21
-118.6448379999999929
0
LINE
8
BLACK
6
CONTINUOUS
10
55.7006249999999952
20
-118.6448379999999929
11
55.5101489999999984
21
-118.5495999999999981
0
LINE
8
BLACK
6
CONTINUOUS
10
55.5101489999999984
20
-118.5495999999999981
11
55.4149109999999965
21
-118.4543609999999916
0
LINE
8
BLACK
6
CONTINUOUS
10
55.4149109999999965
20
-118.4543609999999916
11
55.3196729999999945
21
-118.2638849999999877
0
LINE
8
BLACK
6
CONTINUOUS
10
55.3196729999999945
20
-118.2638849999999877
11
55.2244349999999997
21
-117.8829329999999942
0
LINE
8
BLACK
6
CONTINUOUS
10
55.2244349999999997
20
-117.8829329999999942
11
55.2244349999999997
21
-117.4067419999999942
0
LINE
8
BLACK
6
CONTINUOUS
10
55.2244349999999997
20
-117.4067419999999942
11
55.3196729999999945
21
-117.0257900000000006
0
LINE
8
BLACK
6
CONTINUOUS
10
55.3196729999999945
20
-117.0257900000000006
11
55.4149109999999965
21
-116.8353139999999968
0
LINE
8
BLACK
6
CONTINUOUS
10
55.4149109999999965
20
-116.8353139999999968
11
55.5101489999999984
21
-116.7400759999999877
0
LINE
8
BLACK
6
CONTINUOUS
10
55.5101489999999984
20
-116.7400759999999877
11
55.7006249999999952
21
-116.6448379999999929
0
LINE
8
BLACK
6
CONTINUOUS
10
57.6053870000000003
20
-116.6448379999999929
11
57.7958639999999946
21
-116.6448379999999929
0
LINE
8
BLACK
6
CONTINUOUS
10
57.7958639999999946
20
-116.6448379999999929
11
57.9863399999999984
21
-116.7400759999999877
0
LINE
8
BLACK
6
CONTINUOUS
10
57.9863399999999984
20
-116.7400759999999877
11
58.0815780000000004
21
-116.8353139999999968
0
LINE
8
BLACK
6
CONTINUOUS
10
58.0815780000000004
20
-116.8353139999999968
11
58.1768159999999952
21
-117.0257900000000006
0
LINE
8
BLACK
6
CONTINUOUS
10
58.1768159999999952
20
-117.0257900000000006
11
58.2720539999999971
21
-117.4067419999999942
0
LINE
8
BLACK
6
CONTINUOUS
10
58.2720539999999971
20
-117.4067419999999942
11
58.2720539999999971
21
-117.8829329999999942
0
LINE
8
BLACK
6
CONTINUOUS
10
58.2720539999999971
20
-117.8829329999999942
11
58.1768159999999952
21
-118.2638849999999877
0
LINE
8
BLACK
6
CONTINUOUS
10
58.1768159999999952
20
-118.2638849999999877
11
58.0815780000000004
21
-118.4543609999999916
0
LINE
8
BLACK
6
CONTINUOUS
10
58.0815780000000004
20
-118.4543609999999916
11
57.9863399999999984
21
-118.5495999999999981
0
LINE
8
BLACK
6
CONTINUOUS
10
57.9863399999999984
20
-118.5495999999999981
11
57.7958639999999946
21
-118.6448379999999929
0
LINE
8
BLACK
6
CONTINUOUS
10
57.7958639999999946
20
-118.6448379999999929
11
57.6053870000000003
21
-118.6448379999999929
0
LINE
8
BLACK
6
CONTINUOUS
10
57.6053870000000003
20
-118.6448379999999929
11
57.4149109999999965
21
-118.5495999999999981
0
LINE
8
BLACK
6
CONTINUOUS
10
57.4149109999999965
20
-118.5495999999999981
11
57.3196729999999945
21
-118.4543609999999916
0
LINE
8
BLACK
6
CONTINUOUS
10
57.3196729999999945
20
-118.4543609999999916
11
57.2244349999999997
21
-118.2638849999999877
0
LINE
8
BLACK
6
CONTINUOUS
10
57.2244349999999997
20
-118.2638849999999877
11
57.1291969999999978
21
-117.8829329999999942
0
LINE
8
BLACK
6
CONTINUOUS
10
57.1291969999999978
20
-117.8829329999999942
11
57.1291969999999978
21
-117.4067419999999942
0
LINE
8
BLACK
6
CONTINUOUS
10
57.1291969999999978
20
-117.4067419999999942
11
57.2244349999999997
21
-117.0257900000000006
0
LINE
8
BLACK
6
CONTINUOUS
10
57.2244349999999997
20
-117.0257900000000006
11
57.3196729999999945
21
-116.8353139999999968
0
LINE
8
BLACK
6
CONTINUOUS
10
57.3196729999999945
20
-116.8353139999999968
11
57.4149109999999965
21
-116.7400759999999877
0
LINE
8
BLACK
6
CONTINUOUS
10
57.4149109999999965
20
-116.7400759999999877
11
57.6053870000000003
21
-116.6448379999999929
0
LINE
8
BLACK
6
CONTINUOUS
10
59.1291969999999978
20
-118.6448379999999929
11
59.1291969999999978
21
-117.3115039999999993
0
LINE
8
BLACK
6
CONTINUOUS
10
59.1291969999999978
20
-117.501979999999989
11
59.2244349999999997
21
-117.4067419999999942
0
LINE
8
BLACK
6
CONTINUOUS
10
59.2244349999999997
20
-117.4067419999999942
11
59.4149109999999965
21
-117.3115039999999993
0
LINE
8
BLACK
6
CONTINUOUS
10
59.4149109999999965
20
-117.3115039999999993
11
59.7006259999999997
21
-117.3115039999999993
0
LINE
8
BLACK
6
CONTINUOUS
10
59.7006259999999997
20
-117.3115039999999993
11
59.8911019999999965
21
-117.4067419999999942
0
LINE
8
BLACK
6
CONTINUOUS
10
59.8911019999999965
20
-117.4067419999999942
11
59.9863399999999984
21
-117.5972189999999955
0
LINE
8
BLACK
6
CONTINUOUS
10
59.9863399999999984
20
-117.5972189999999955
11
59.9863399999999984
21
-118.6448379999999929
0
LINE
8
BLACK
6
CONTINUOUS
10
59.9863399999999984
20
-117.5972189999999955
11
60.0815780000000004
21
-117.4067419999999942
0
LINE
8
BLACK
6
CONTINUOUS
10
60.0815780000000004
20
-117.4067419999999942
11
60.2720539999999971
21
-117.3115039999999993
0
LINE
8
BLACK
6
CONTINUOUS
10
60.2720539999999971
20
-117.3115039999999993
11
60.5577679999999958
21
-117.3115039999999993
0
LINE
8
BLACK
6
CONTINUOUS
10
60.5577679999999958
20
-117.3115039999999993
11
60.7482449999999972
21
-117.4067419999999942
0
LINE
8
BLACK
6
CONTINUOUS
10
60.7482449999999972
20
-117.4067419999999942
11
60.8434829999999991
21
-117.5972189999999955
0
LINE
8
BLACK
6
CONTINUOUS
10
60.8434829999999991
20
-117.5972189999999955
11
60.8434829999999991
21
-118.6448379999999929
0
LINE
8
BLACK
6
CONTINUOUS
10
61.7958639999999946
20
-118.6448379999999929
11
61.7958639999999946
21
-117.3115039999999993
0
LINE
8
BLACK
6
CONTINUOUS
10
61.7958639999999946
20
-117.501979999999989
11
61.8911019999999965
21
-117.4067419999999942
0
LINE
8
BLACK
6
CONTINUOUS
10
61.8911019999999965
20
-117.4067419999999942
11
62.0815780000000004
21
-117.3115039999999993
0
LINE
8
BLACK
6
CONTINUOUS
10
62.0815780000000004
20
-117.3115039999999993
11
62.3672929999999965
21
-117.3115039999999993
0
LINE
8
BLACK
6
CONTINUOUS
10
62.3672929999999965
20
-117.3115039999999993
11
62.5577690000000004
21
-117.4067419999999942
0
LINE
8
BLACK
6
CONTINUOUS
10
62.5577690000000004
20
-117.4067419999999942
11
62.6530069999999952
21
-117.5972189999999955
0
LINE
8
BLACK
6
CONTINUOUS
10
62.6530069999999952
20
-117.5972189999999955
11
62.6530069999999952
21
-118.6448379999999929
0
LINE
8
BLACK
6
CONTINUOUS
10
62.6530069999999952
20
-117.5972189999999955
11
62.7482449999999972
21
-117.4067419999999942
0
LINE
8
BLACK
6
CONTINUOUS
10
62.7482449999999972
20
-117.4067419999999942
11
62.9387209999999939
21
-117.3115039999999993
0
LINE
8
BLACK
6
CONTINUOUS
10
62.9387209999999939
20
-117.3115039999999993
11
63.2244349999999997
21
-117.3115039999999993
0
LINE
8
BLACK
6
CONTINUOUS
10
63.2244349999999997
20
-117.3115039999999993
11
63.414911999999994
21
-117.4067419999999942
0
LINE
8
BLACK
6
CONTINUOUS
10
63.414911999999994
20
-117.4067419999999942
11
63.5101499999999959
21
-117.5972189999999955
0
LINE
8
BLACK
6
CONTINUOUS
10
63.5101499999999959
20
-117.5972189999999955
11
63.5101499999999959
21
-118.6448379999999929
0
LINE
8
BLACK
6
CONTINUOUS
10
67.4149120000000011
20
-116.5495999999999981
11
65.7006269999999972
21
-119.1210279999999955
0
LINE
8
BLACK
6
CONTINUOUS
10
69.9863409999999959
20
-116.6448379999999929
11
70.1768179999999973
21
-116.6448379999999929
0
LINE
8
BLACK
6
CONTINUOUS
10
70.1768179999999973
20
-116.6448379999999929
11
70.3672940000000011
21
-116.7400759999999877
0
LINE
8
BLACK
6
CONTINUOUS
10
70.3672940000000011
20
-116.7400759999999877
11
70.4625319999999959
21
-116.8353139999999968
0
LINE
8
BLACK
6
CONTINUOUS
10
70.4625319999999959
20
-116.8353139999999968
11
70.5577699999999908
21
-117.0257900000000006
0
LINE
8
BLACK
6
CONTINUOUS
10
70.5577699999999908
20
-117.0257900000000006
11
70.6530079999999998
21
-117.4067419999999942
0
LINE
8
BLACK
6
CONTINUOUS
10
70.6530079999999998
20
-117.4067419999999942
11
70.6530079999999998
21
-117.8829329999999942
0
LINE
8
BLACK
6
CONTINUOUS
10
70.6530079999999998
20
-117.8829329999999942
11
70.5577699999999908
21
-118.2638849999999877
0
LINE
8
BLACK
6
CONTINUOUS
10
70.5577699999999908
20
-118.2638849999999877
11
70.4625319999999959
21
-118.4543609999999916
0
LINE
8
BLACK
6
CONTINUOUS
10
70.4625319999999959
20
-118.4543609999999916
11
70.3672940000000011
21
-118.5495999999999981
0
LINE
8
BLACK
6
CONTINUOUS
10
70.3672940000000011
20
-118.5495999999999981
11
70.1768179999999973
21
-118.6448379999999929
0
LINE
8
BLACK
6
CONTINUOUS
10
70.1768179999999973
20
-118.6448379999999929
11
69.9863409999999959
21
-118.6448379999999929
0
LINE
8
BLACK
6
CONTINUOUS
10
69.9863409999999959
20
-118.6448379999999929
11
69.7958649999999921
21
-118.5495999999999981
0
LINE
8
BLACK
6
CONTINUOUS
10
69.7958649999999921
20
-118.5495999999999981
11
69.7006269999999972
21
-118.4543609999999916
0
LINE
8
BLACK
6
CONTINUOUS
10
69.7006269999999972
20
-118.4543609999999916
11
69.6053890000000024
21
-118.2638849999999877
0
LINE
8
BLACK
6
CONTINUOUS
10
69.6053890000000024
20
-118.2638849999999877
11
69.5101509999999934
21
-117.8829329999999942
0
LINE
8
BLACK
6
CONTINUOUS
10
69.5101509999999934
20
-117.8829329999999942
11
69.5101509999999934
21
-117.4067419999999942
0
LINE
8
BLACK
6
CONTINUOUS
10
69.5101509999999934
20
-117.4067419999999942
11
69.6053890000000024
21
-117.0257900000000006
0
LINE
8
BLACK
6
CONTINUOUS
10
69.6053890000000024
20
-117.0257900000000006
11
69.7006269999999972
21
-116.8353139999999968
0
LINE
8
BLACK
6
CONTINUOUS
10
69.7006269999999972
20
-116.8353139999999968
11
69.7958649999999921
21
-116.7400759999999877
0
LINE
8
BLACK
6
CONTINUOUS
10
69.7958649999999921
20
-116.7400759999999877
11
69.9863409999999959
21
-116.6448379999999929
0
LINE
8
BLACK
6
CONTINUOUS
10
71.5101509999999934
20
-118.4543609999999916
11
71.6053890000000024
21
-118.5495999999999981
0
LINE
8
BLACK
6
CONTINUOUS
10
71.6053890000000024
20
-118.5495999999999981
11
71.5101509999999934
21
-118.6448379999999929
0
LINE
8
BLACK
6
CONTINUOUS
10
71.5101509999999934
20
-118.6448379999999929
11
71.4149129999999985
21
-118.5495999999999981
0
LINE
8
BLACK
6
CONTINUOUS
10
71.4149129999999985
20
-118.5495999999999981
11
71.5101509999999934
21
-118.4543609999999916
0
LINE
8
BLACK
6
CONTINUOUS
10
71.5101509999999934
20
-118.4543609999999916
11
71.5101509999999934
21
-118.6448379999999929
0
LINE
8
BLACK
6
CONTINUOUS
10
72.8434840000000037
20
-116.6448379999999929
11
73.0339609999999908
21
-116.6448379999999929
0
LINE
8
BLACK
6
CONTINUOUS
10
73.0339609999999908
20
-116.6448379999999929
11
73.2244369999999947
21
-116.7400759999999877
0
LINE
8
BLACK
6
CONTINUOUS
10
73.2244369999999947
20
-116.7400759999999877
11
73.3196750000000037
21
-116.8353139999999968
0
LINE
8
BLACK
6
CONTINUOUS
10
73.3196750000000037
20
-116.8353139999999968
11
73.4149129999999985
21
-117.0257900000000006
0
LINE
8
BLACK
6
CONTINUOUS
10
73.4149129999999985
20
-117.0257900000000006
11
73.5101509999999934
21
-117.4067419999999942
0
LINE
8
BLACK
6
CONTINUOUS
10
73.5101509999999934
20
-117.4067419999999942
11
73.5101509999999934
21
-117.8829329999999942
0
LINE
8
BLACK
6
CONTINUOUS
10
73.5101509999999934
20
-117.8829329999999942
11
73.4149129999999985
21
-118.2638849999999877
0
LINE
8
BLACK
6
CONTINUOUS
10
73.4149129999999985
20
-118.2638849999999877
11
73.3196750000000037
21
-118.4543609999999916
0
LINE
8
BLACK
6
CONTINUOUS
10
73.3196750000000037
20
-118.4543609999999916
11
73.2244369999999947
21
-118.5495999999999981
0
LINE
8
BLACK
6
CONTINUOUS
10
73.2244369999999947
20
-118.5495999999999981
11
73.0339609999999908
21
-118.6448379999999929
0
LINE
8
BLACK
6
CONTINUOUS
10
73.0339609999999908
20
-118.6448379999999929
11
72.8434840000000037
21
-118.6448379999999929
0
LINE
8
BLACK
6
CONTINUOUS
10
72.8434840000000037
20
-118.6448379999999929
11
72.6530079999999998
21
-118.5495999999999981
0
LINE
8
BLACK
6
CONTINUOUS
10
72.6530079999999998
20
-118.5495999999999981
11
72.5577699999999908
21
-118.4543609999999916
0
LINE
8
BLACK
6
CONTINUOUS
10
72.5577699999999908
20
-118.4543609999999916
11
72.4625319999999959
21
-118.2638849999999877
0
LINE
8
BLACK
6
CONTINUOUS
10
72.4625319999999959
20
-118.2638849999999877
11
72.3672940000000011
21
-117.8829329999999942
0
LINE
8
BLACK
6
CONTINUOUS
10
72.3672940000000011
20
-117.8829329999999942
11
72.3672940000000011
21
-117.4067419999999942
0
LINE
8
BLACK
6
CONTINUOUS
10
72.3672940000000011
20
-117.4067419999999942
11
72.4625319999999959
21
-117.0257900000000006
0
LINE
8
BLACK
6
CONTINUOUS
10
72.4625319999999959
20
-117.0257900000000006
11
72.5577699999999908
21
-116.8353139999999968
0
LINE
8
BLACK
6
CONTINUOUS
10
72.5577699999999908
20
-116.8353139999999968
11
72.6530079999999998
21
-116.7400759999999877
0
LINE
8
BLACK
6
CONTINUOUS
10
72.6530079999999998
20
-116.7400759999999877
11
72.8434840000000037
21
-116.6448379999999929
0
LINE
8
BLACK
6
CONTINUOUS
10
74.1768179999999973
20
-116.6448379999999929
11
75.4149129999999985
21
-116.6448379999999929
0
LINE
8
BLACK
6
CONTINUOUS
10
75.4149129999999985
20
-116.6448379999999929
11
74.7482459999999946
21
-117.4067419999999942
0
LINE
8
BLACK
6
CONTINUOUS
10
74.7482459999999946
20
-117.4067419999999942
11
75.0339609999999908
21
-117.4067419999999942
0
LINE
8
BLACK
6
CONTINUOUS
10
75.0339609999999908
20
-117.4067419999999942
11
75.2244369999999947
21
-117.501979999999989
0
LINE
8
BLACK
6
CONTINUOUS
10
75.2244369999999947
20
-117.501979999999989
11
75.3196749999999895
21
-117.5972189999999955
0
LINE
8
BLACK
6
CONTINUOUS
10
75.3196749999999895
20
-117.5972189999999955
11
75.4149129999999985
21
-117.7876949999999994
0
LINE
8
BLACK
6
CONTINUOUS
10
75.4149129999999985
20
-117.7876949999999994
11
75.4149129999999985
21
-118.2638849999999877
0
LINE
8
BLACK
6
CONTINUOUS
10
75.4149129999999985
20
-118.2638849999999877
11
75.3196749999999895
21
-118.4543609999999916
0
LINE
8
BLACK
6
CONTINUOUS
10
75.3196749999999895
20
-118.4543609999999916
11
75.2244369999999947
21
-118.5495999999999981
0
LINE
8
BLACK
6
CONTINUOUS
10
75.2244369999999947
20
-118.5495999999999981
11
75.0339609999999908
21
-118.6448379999999929
0
LINE
8
BLACK
6
CONTINUOUS
10
75.0339609999999908
20
-118.6448379999999929
11
74.4625319999999959
21
-118.6448379999999929
0
LINE
8
BLACK
6
CONTINUOUS
10
74.4625319999999959
20
-118.6448379999999929
11
74.2720559999999921
21
-118.5495999999999981
0
LINE
8
BLACK
6
CONTINUOUS
10
74.2720559999999921
20
-118.5495999999999981
11
74.1768179999999973
21
-118.4543609999999916
0
LINE
8
BLACK
6
CONTINUOUS
10
76.3672940000000011
20
-118.6448379999999929
11
76.7482459999999946
21
-118.6448379999999929
0
LINE
8
BLACK
6
CONTINUOUS
10
76.7482459999999946
20
-118.6448379999999929
11
76.938722999999996
21
-118.5495999999999981
0
LINE
8
BLACK
6
CONTINUOUS
10
76.938722999999996
20
-118.5495999999999981
11
77.0339609999999908
21
-118.4543609999999916
0
LINE
8
BLACK
6
CONTINUOUS
10
77.0339609999999908
20
-118.4543609999999916
11
77.2244369999999947
21
-118.1686469999999929
0
LINE
8
BLACK
6
CONTINUOUS
10
77.2244369999999947
20
-118.1686469999999929
11
77.3196749999999895
21
-117.7876949999999994
0
LINE
8
BLACK
6
CONTINUOUS
10
77.3196749999999895
20
-117.7876949999999994
11
77.3196749999999895
21
-117.0257900000000006
0
LINE
8
BLACK
6
CONTINUOUS
10
77.3196749999999895
20
-117.0257900000000006
11
77.2244369999999947
21
-116.8353139999999968
0
LINE
8
BLACK
6
CONTINUOUS
10
77.2244369999999947
20
-116.8353139999999968
11
77.1291989999999998
21
-116.7400759999999877
0
LINE
8
BLACK
6
CONTINUOUS
10
77.1291989999999998
20
-116.7400759999999877
11
76.938722999999996
21
-116.6448379999999929
0
LINE
8
BLACK
6
CONTINUOUS
10
76.938722999999996
20
-116.6448379999999929
11
76.5577699999999908
21
-116.6448379999999929
0
LINE
8
BLACK
6
CONTINUOUS
10
76.5577699999999908
20
-116.6448379999999929
11
76.3672940000000011
21
-116.7400759999999877
0
LINE
8
BLACK
6
CONTINUOUS
10
76.3672940000000011
20
-116.7400759999999877
11
76.2720559999999921
21
-116.8353139999999968
0
LINE
8
BLACK
6
CONTINUOUS
10
76.2720559999999921
20
-116.8353139999999968
11
76.1768179999999973
21
-117.0257900000000006
0
LINE
8
BLACK
6
CONTINUOUS
10
76.1768179999999973
20
-117.0257900000000006
11
76.1768179999999973
21
-117.501979999999989
0
LINE
8
BLACK
6
CONTINUOUS
10
76.1768179999999973
20
-117.501979999999989
11
76.2720559999999921
21
-117.6924569999999903
0
LINE
8
BLACK
6
CONTINUOUS
10
76.2720559999999921
20
-117.6924569999999903
11
76.3672940000000011
21
-117.7876949999999994
0
LINE
8
BLACK
6
CONTINUOUS
10
76.3672940000000011
20
-117.7876949999999994
11
76.5577699999999908
21
-117.8829329999999942
0
LINE
8
BLACK
6
CONTINUOUS
10
76.5577699999999908
20
-117.8829329999999942
11
76.938722999999996
21
-117.8829329999999942
0
LINE
8
BLACK
6
CONTINUOUS
10
76.938722999999996
20
-117.8829329999999942
11
77.1291989999999998
21
-117.7876949999999994
0
LINE
8
BLACK
6
CONTINUOUS
10
77.1291989999999998
20
-117.7876949999999994
11
77.2244369999999947
21
-117.6924569999999903
0
LINE
8
BLACK
6
CONTINUOUS
10
77.2244369999999947
20
-117.6924569999999903
11
77.3196749999999895
21
-117.501979999999989
0
LINE
8
BLACK
6
CONTINUOUS
10
79.0339609999999908
20
-117.3115039999999993
11
79.0339609999999908
21
-118.6448379999999929
0
LINE
8
BLACK
6
CONTINUOUS
10
78.5577699999999908
20
-116.5495999999999981
11
78.0815800000000024
21
-117.978170999999989
0
LINE
8
BLACK
6
CONTINUOUS
10
78.0815800000000024
20
-117.978170999999989
11
79.3196749999999895
21
-117.978170999999989
0
LINE
8
BLACK
6
CONTINUOUS
10
79.9863419999999934
20
-116.6448379999999929
11
79.9863419999999934
21
-117.0257900000000006
0
LINE
8
BLACK
6
CONTINUOUS
10
80.7482469999999921
20
-116.6448379999999929
11
80.7482469999999921
21
-117.0257900000000006
0
LINE
8
BLACK
6
CONTINUOUS
10
83.7006289999999922
20
-119.4067419999999942
11
83.6053899999999999
21
-119.3115039999999993
0
LINE
8
BLACK
6
CONTINUOUS
10
83.6053899999999999
20
-119.3115039999999993
11
83.414913999999996
21
-119.0257900000000006
0
LINE
8
BLACK
6
CONTINUOUS
10
83.414913999999996
20
-119.0257900000000006
11
83.3196760000000012
21
-118.8353139999999968
0
LINE
8
BLACK
6
CONTINUOUS
10
83.3196760000000012
20
-118.8353139999999968
11
83.2244379999999921
21
-118.5495999999999981
0
LINE
8
BLACK
6
CONTINUOUS
10
83.2244379999999921
20
-118.5495999999999981
11
83.1291999999999973
21
-118.0734089999999981
0
LINE
8
BLACK
6
CONTINUOUS
10
83.1291999999999973
20
-118.0734089999999981
11
83.1291999999999973
21
-117.6924569999999903
0
LINE
8
BLACK
6
CONTINUOUS
10
83.1291999999999973
20
-117.6924569999999903
11
83.2244379999999921
21
-117.2162659999999903
0
LINE
8
BLACK
6
CONTINUOUS
10
83.2244379999999921
20
-117.2162659999999903
11
83.3196760000000012
21
-116.9305519999999916
0
LINE
8
BLACK
6
CONTINUOUS
10
83.3196760000000012
20
-116.9305519999999916
11
83.414913999999996
21
-116.7400759999999877
0
LINE
8
BLACK
6
CONTINUOUS
10
83.414913999999996
20
-116.7400759999999877
11
83.6053899999999999
21
-116.4543609999999916
0
LINE
8
BLACK
6
CONTINUOUS
10
83.6053899999999999
20
-116.4543609999999916
11
83.7006289999999922
21
-116.3591229999999968
0
LINE
8
BLACK
6
CONTINUOUS
10
85.3196760000000012
20
-116.6448379999999929
11
84.938722999999996
21
-116.6448379999999929
0
LINE
8
BLACK
6
CONTINUOUS
10
84.938722999999996
20
-116.6448379999999929
11
84.7482469999999921
21
-116.7400759999999877
0
LINE
8
BLACK
6
CONTINUOUS
10
84.7482469999999921
20
-116.7400759999999877
11
84.6530089999999973
21
-116.8353139999999968
0
LINE
8
BLACK
6
CONTINUOUS
10
84.6530089999999973
20
-116.8353139999999968
11
84.4625329999999934
21
-117.1210279999999955
0
LINE
8
BLACK
6
CONTINUOUS
10
84.4625329999999934
20
-117.1210279999999955
11
84.3672949999999986
21
-117.501979999999989
0
LINE
8
BLACK
6
CONTINUOUS
10
84.3672949999999986
20
-117.501979999999989
11
84.3672949999999986
21
-118.2638849999999877
0
LINE
8
BLACK
6
CONTINUOUS
10
84.3672949999999986
20
-118.2638849999999877
11
84.4625329999999934
21
-118.4543609999999916
0
LINE
8
BLACK
6
CONTINUOUS
10
84.4625329999999934
20
-118.4543609999999916
11
84.5577710000000025
21
-118.5495999999999981
0
LINE
8
BLACK
6
CONTINUOUS
10
84.5577710000000025
20
-118.5495999999999981
11
84.7482469999999921
21
-118.6448379999999929
0
LINE
8
BLACK
6
CONTINUOUS
10
84.7482469999999921
20
-118.6448379999999929
11
85.1291999999999973
21
-118.6448379999999929
0
LINE
8
BLACK
6
CONTINUOUS
10
85.1291999999999973
20
-118.6448379999999929
11
85.3196760000000012
21
-118.5495999999999981
0
LINE
8
BLACK
6
CONTINUOUS
10
85.3196760000000012
20
-118.5495999999999981
11
85.414913999999996
21
-118.4543609999999916
0
LINE
8
BLACK
6
CONTINUOUS
10
85.414913999999996
20
-118.4543609999999916
11
85.5101519999999908
21
-118.2638849999999877
0
LINE
8
BLACK
6
CONTINUOUS
10
85.5101519999999908
20
-118.2638849999999877
11
85.5101519999999908
21
-117.7876949999999994
0
LINE
8
BLACK
6
CONTINUOUS
10
85.5101519999999908
20
-117.7876949999999994
11
85.414913999999996
21
-117.5972189999999955
0
LINE
8
BLACK
6
CONTINUOUS
10
85.414913999999996
20
-117.5972189999999955
11
85.3196760000000012
21
-117.501979999999989
0
LINE
8
BLACK
6
CONTINUOUS
10
85.3196760000000012
20
-117.501979999999989
11
85.1291999999999973
21
-117.4067419999999942
0
LINE
8
BLACK
6
CONTINUOUS
10
85.1291999999999973
20
-117.4067419999999942
11
84.7482469999999921
21
-117.4067419999999942
0
LINE
8
BLACK
6
CONTINUOUS
10
84.7482469999999921
20
-117.4067419999999942
11
84.5577710000000025
21
-117.501979999999989
0
LINE
8
BLACK
6
CONTINUOUS
10
84.5577710000000025
20
-117.501979999999989
11
84.4625329999999934
21
-117.5972189999999955
0
LINE
8
BLACK
6
CONTINUOUS
10
84.4625329999999934
20
-117.5972189999999955
11
84.3672949999999986
21
-117.7876949999999994
0
LINE
8
BLACK
6
CONTINUOUS
10
87.2244379999999921
20
-117.3115039999999993
11
87.2244379999999921
21
-118.6448379999999929
0
LINE
8
BLACK
6
CONTINUOUS
10
86.7482469999999921
20
-116.5495999999999981
11
86.2720569999999896
21
-117.978170999999989
0
LINE
8
BLACK
6
CONTINUOUS
10
86.2720569999999896
20
-117.978170999999989
11
87.5101519999999908
21
-117.978170999999989
0
LINE
8
BLACK
6
CONTINUOUS
10
89.7958670000000012
20
-118.6448379999999929
11
89.7958670000000012
21
-116.6448379999999929
0
LINE
8
BLACK
6
CONTINUOUS
10
90.6530099999999948
20
-118.6448379999999929
11
90.6530099999999948
21
-117.5972189999999955
0
LINE
8
BLACK
6
CONTINUOUS
10
90.6530099999999948
20
-117.5972189999999955
11
90.5577719999999999
21
-117.4067419999999942
0
LINE
8
BLACK
6
CONTINUOUS
10
90.5577719999999999
20
-117.4067419999999942
11
90.3672959999999961
21
-117.3115039999999993
0
LINE
8
BLACK
6
CONTINUOUS
10
90.3672959999999961
20
-117.3115039999999993
11
90.0815809999999999
21
-117.3115039999999993
0
LINE
8
BLACK
6
CONTINUOUS
10
90.0815809999999999
20
-117.3115039999999993
11
89.891104999999996
21
-117.4067419999999942
0
LINE
8
BLACK
6
CONTINUOUS
10
89.891104999999996
20
-117.4067419999999942
11
89.7958670000000012
21
-117.501979999999989
0
LINE
8
BLACK
6
CONTINUOUS
10
91.891104999999996
20
-118.6448379999999929
11
91.7006289999999922
21
-118.5495999999999981
0
LINE
8
BLACK
6
CONTINUOUS
10
91.7006289999999922
20
-118.5495999999999981
11
91.6053909999999973
21
-118.4543609999999916
0
LINE
8
BLACK
6
CONTINUOUS
10
91.6053909999999973
20
-118.4543609999999916
11
91.5101530000000025
21
-118.2638849999999877
0
LINE
8
BLACK
6
CONTINUOUS
10
91.5101530000000025
20
-118.2638849999999877
11
91.5101530000000025
21
-117.6924569999999903
0
LINE
8
BLACK
6
CONTINUOUS
10
91.5101530000000025
20
-117.6924569999999903
11
91.6053909999999973
21
-117.501979999999989
0
LINE
8
BLACK
6
CONTINUOUS
10
91.6053909999999973
20
-117.501979999999989
11
91.7006289999999922
21
-117.4067419999999942
0
LINE
8
BLACK
6
CONTINUOUS
10
91.7006289999999922
20
-117.4067419999999942
11
91.891104999999996
21
-117.3115039999999993
0
LINE
8
BLACK
6
CONTINUOUS
10
91.891104999999996
20
-117.3115039999999993
11
92.1768199999999922
21
-117.3115039999999993
0
LINE
8
BLACK
6
CONTINUOUS
10
92.1768199999999922
20
-117.3115039999999993
11
92.3672959999999961
21
-117.4067419999999942
0
LINE
8
BLACK
6
CONTINUOUS
10
92.3672959999999961
20
-117.4067419999999942
11
92.4625339999999909
21
-117.501979999999989
0
LINE
8
BLACK
6
CONTINUOUS
10
92.4625339999999909
20
-117.501979999999989
11
92.5577719999999999
21
-117.6924569999999903
0
LINE
8
BLACK
6
CONTINUOUS
10
92.5577719999999999
20
-117.6924569999999903
11
92.5577719999999999
21
-118.2638849999999877
0
LINE
8
BLACK
6
CONTINUOUS
10
92.5577719999999999
20
-118.2638849999999877
11
92.4625339999999909
21
-118.4543609999999916
0
LINE
8
BLACK
6
CONTINUOUS
10
92.4625339999999909
20
-118.4543609999999916
11
92.3672959999999961
21
-118.5495999999999981
0
LINE
8
BLACK
6
CONTINUOUS
10
92.3672959999999961
20
-118.5495999999999981
11
92.1768199999999922
21
-118.6448379999999929
0
LINE
8
BLACK
6
CONTINUOUS
10
92.1768199999999922
20
-118.6448379999999929
11
91.891104999999996
21
-118.6448379999999929
0
LINE
8
BLACK
6
CONTINUOUS
10
93.7006289999999922
20
-118.6448379999999929
11
93.5101530000000025
21
-118.5495999999999981
0
LINE
8
BLACK
6
CONTINUOUS
10
93.5101530000000025
20
-118.5495999999999981
11
93.4149149999999935
21
-118.3591229999999968
0
LINE
8
BLACK
6
CONTINUOUS
10
93.4149149999999935
20
-118.3591229999999968
11
93.4149149999999935
21
-116.6448379999999929
0
LINE
8
BLACK
6
CONTINUOUS
10
95.2244389999999896
20
-118.5495999999999981
11
95.033963
21
-118.6448379999999929
0
LINE
8
BLACK
6
CONTINUOUS
10
95.033963
20
-118.6448379999999929
11
94.6530099999999948
21
-118.6448379999999929
0
LINE
8
BLACK
6
CONTINUOUS
10
94.6530099999999948
20
-118.6448379999999929
11
94.4625339999999909
21
-118.5495999999999981
0
LINE
8
BLACK
6
CONTINUOUS
10
94.4625339999999909
20
-118.5495999999999981
11
94.3672959999999961
21
-118.3591229999999968
0
LINE
8
BLACK
6
CONTINUOUS
10
94.3672959999999961
20
-118.3591229999999968
11
94.3672959999999961
21
-117.5972189999999955
0
LINE
8
BLACK
6
CONTINUOUS
10
94.3672959999999961
20
-117.5972189999999955
11
94.4625339999999909
21
-117.4067419999999942
0
LINE
8
BLACK
6
CONTINUOUS
10
94.4625339999999909
20
-117.4067419999999942
11
94.6530099999999948
21
-117.3115039999999993
0
LINE
8
BLACK
6
CONTINUOUS
10
94.6530099999999948
20
-117.3115039999999993
11
95.033963
21
-117.3115039999999993
0
LINE
8
BLACK
6
CONTINUOUS
10
95.033963
20
-117.3115039999999993
11
95.2244389999999896
21
-117.4067419999999942
0
LINE
8
BLACK
6
CONTINUOUS
10
95.2244389999999896
20
-117.4067419999999942
11
95.3196769999999987
21
-117.5972189999999955
0
LINE
8
BLACK
6
CONTINUOUS
10
95.3196769999999987
20
-117.5972189999999955
11
95.3196769999999987
21
-117.7876949999999994
0
LINE
8
BLACK
6
CONTINUOUS
10
95.3196769999999987
20
-117.7876949999999994
11
94.3672959999999961
21
-117.978170999999989
0
LINE
8
BLACK
6
CONTINUOUS
10
96.0815819999999974
20
-118.5495999999999981
11
96.2720580000000012
21
-118.6448379999999929
0
LINE
8
BLACK
6
CONTINUOUS
10
96.2720580000000012
20
-118.6448379999999929
11
96.6530099999999948
21
-118.6448379999999929
0
LINE
8
BLACK
6
CONTINUOUS
10
96.6530099999999948
20
-118.6448379999999929
11
96.8434869999999961
21
-118.5495999999999981
0
LINE
8
BLACK
6
CONTINUOUS
10
96.8434869999999961
20
-118.5495999999999981
11
96.9387249999999909
21
-118.3591229999999968
0
LINE
8
BLACK
6
CONTINUOUS
10
96.9387249999999909
20
-118.3591229999999968
11
96.9387249999999909
21
-118.2638849999999877
0
LINE
8
BLACK
6
CONTINUOUS
10
96.9387249999999909
20
-118.2638849999999877
11
96.8434869999999961
21
-118.0734089999999981
0
LINE
8
BLACK
6
CONTINUOUS
10
96.8434869999999961
20
-118.0734089999999981
11
96.6530099999999948
21
-117.978170999999989
0
LINE
8
BLACK
6
CONTINUOUS
10
96.6530099999999948
20
-117.978170999999989
11
96.3672959999999961
21
-117.978170999999989
0
LINE
8
BLACK
6
CONTINUOUS
10
96.3672959999999961
20
-117.978170999999989
11
96.1768199999999922
21
-117.8829329999999942
0
LINE
8
BLACK
6
CONTINUOUS
10
96.1768199999999922
20
-117.8829329999999942
11
96.0815819999999974
21
-117.6924569999999903
0
LINE
8
BLACK
6
CONTINUOUS
10
96.0815819999999974
20
-117.6924569999999903
11
96.0815819999999974
21
-117.5972189999999955
0
LINE
8
BLACK
6
CONTINUOUS
10
96.0815819999999974
20
-117.5972189999999955
11
96.1768199999999922
21
-117.4067419999999942
0
LINE
8
BLACK
6
CONTINUOUS
10
96.1768199999999922
20
-117.4067419999999942
11
96.3672959999999961
21
-117.3115039999999993
0
LINE
8
BLACK
6
CONTINUOUS
10
96.3672959999999961
20
-117.3115039999999993
11
96.6530099999999948
21
-117.3115039999999993
0
LINE
8
BLACK
6
CONTINUOUS
10
96.6530099999999948
20
-117.3115039999999993
11
96.8434869999999961
21
-117.4067419999999942
0
LINE
8
BLACK
6
CONTINUOUS
10
97.6053919999999948
20
-119.4067419999999942
11
97.7006299999999896
21
-119.3115039999999993
0
LINE
8
BLACK
6
CONTINUOUS
10
97.7006299999999896
20
-119.3115039999999993
11
97.8911059999999935
21
-119.0257900000000006
0
LINE
8
BLACK
6
CONTINUOUS
10
97.8911059999999935
20
-119.0257900000000006
11
97.9863440000000026
21
-118.8353139999999968
0
LINE
8
BLACK
6
CONTINUOUS
10
97.9863440000000026
20
-118.8353139999999968
11
98.0815819999999974
21
-118.5495999999999981
0
LINE
8
BLACK
6
CONTINUOUS
10
98.0815819999999974
20
-118.5495999999999981
11
98.1768199999999922
21
-118.0734089999999981
0
LINE
8
BLACK
6
CONTINUOUS
10
98.1768199999999922
20
-118.0734089999999981
11
98.1768199999999922
21
-117.6924569999999903
0
LINE
8
BLACK
6
CONTINUOUS
10
98.1768199999999922
20
-117.6924569999999903
11
98.0815819999999974
21
-117.2162659999999903
0
LINE
8
BLACK
6
CONTINUOUS
10
98.0815819999999974
20
-117.2162659999999903
11
97.9863440000000026
21
-116.9305519999999916
0
LINE
8
BLACK
6
CONTINUOUS
10
97.9863440000000026
20
-116.9305519999999916
11
97.8911059999999935
21
-116.7400759999999877
0
LINE
8
BLACK
6
CONTINUOUS
10
97.8911059999999935
20
-116.7400759999999877
11
97.7006299999999896
21
-116.4543609999999916
0
LINE
8
BLACK
6
CONTINUOUS
10
97.7006299999999896
20
-116.4543609999999916
11
97.6053919999999948
21
-116.3591229999999968
  0
ENDSEC
  0
EOF
