%TF.GenerationSoftware,KiCad,Pcbnew,8.0.3*%
%TF.CreationDate,2024-07-15T19:17:30+01:00*%
%TF.ProjectId,OPD-Computer-One-Disk-Interface,4f50442d-436f-46d7-9075-7465722d4f6e,rev?*%
%TF.SameCoordinates,Original*%
%TF.FileFunction,Legend,Bot*%
%TF.FilePolarity,Positive*%
%FSLAX46Y46*%
G04 Gerber Fmt 4.6, Leading zero omitted, Abs format (unit mm)*
G04 Created by KiCad (PCBNEW 8.0.3) date 2024-07-15 19:17:30*
%MOMM*%
%LPD*%
G01*
G04 APERTURE LIST*
%ADD10C,0.150000*%
%ADD11C,0.300000*%
%ADD12C,0.375000*%
%ADD13C,0.120000*%
G04 APERTURE END LIST*
D10*
X104430180Y-88606077D02*
X103430180Y-88272744D01*
X103430180Y-88272744D02*
X104430180Y-87939411D01*
X103477800Y-87225125D02*
X103430180Y-87320363D01*
X103430180Y-87320363D02*
X103430180Y-87510839D01*
X103430180Y-87510839D02*
X103477800Y-87606077D01*
X103477800Y-87606077D02*
X103573038Y-87653696D01*
X103573038Y-87653696D02*
X103953990Y-87653696D01*
X103953990Y-87653696D02*
X104049228Y-87606077D01*
X104049228Y-87606077D02*
X104096847Y-87510839D01*
X104096847Y-87510839D02*
X104096847Y-87320363D01*
X104096847Y-87320363D02*
X104049228Y-87225125D01*
X104049228Y-87225125D02*
X103953990Y-87177506D01*
X103953990Y-87177506D02*
X103858752Y-87177506D01*
X103858752Y-87177506D02*
X103763514Y-87653696D01*
X103430180Y-86748934D02*
X104096847Y-86748934D01*
X103906371Y-86748934D02*
X104001609Y-86701315D01*
X104001609Y-86701315D02*
X104049228Y-86653696D01*
X104049228Y-86653696D02*
X104096847Y-86558458D01*
X104096847Y-86558458D02*
X104096847Y-86463220D01*
X103477800Y-86177505D02*
X103430180Y-86082267D01*
X103430180Y-86082267D02*
X103430180Y-85891791D01*
X103430180Y-85891791D02*
X103477800Y-85796553D01*
X103477800Y-85796553D02*
X103573038Y-85748934D01*
X103573038Y-85748934D02*
X103620657Y-85748934D01*
X103620657Y-85748934D02*
X103715895Y-85796553D01*
X103715895Y-85796553D02*
X103763514Y-85891791D01*
X103763514Y-85891791D02*
X103763514Y-86034648D01*
X103763514Y-86034648D02*
X103811133Y-86129886D01*
X103811133Y-86129886D02*
X103906371Y-86177505D01*
X103906371Y-86177505D02*
X103953990Y-86177505D01*
X103953990Y-86177505D02*
X104049228Y-86129886D01*
X104049228Y-86129886D02*
X104096847Y-86034648D01*
X104096847Y-86034648D02*
X104096847Y-85891791D01*
X104096847Y-85891791D02*
X104049228Y-85796553D01*
X103430180Y-85320362D02*
X104096847Y-85320362D01*
X104430180Y-85320362D02*
X104382561Y-85367981D01*
X104382561Y-85367981D02*
X104334942Y-85320362D01*
X104334942Y-85320362D02*
X104382561Y-85272743D01*
X104382561Y-85272743D02*
X104430180Y-85320362D01*
X104430180Y-85320362D02*
X104334942Y-85320362D01*
X103430180Y-84701315D02*
X103477800Y-84796553D01*
X103477800Y-84796553D02*
X103525419Y-84844172D01*
X103525419Y-84844172D02*
X103620657Y-84891791D01*
X103620657Y-84891791D02*
X103906371Y-84891791D01*
X103906371Y-84891791D02*
X104001609Y-84844172D01*
X104001609Y-84844172D02*
X104049228Y-84796553D01*
X104049228Y-84796553D02*
X104096847Y-84701315D01*
X104096847Y-84701315D02*
X104096847Y-84558458D01*
X104096847Y-84558458D02*
X104049228Y-84463220D01*
X104049228Y-84463220D02*
X104001609Y-84415601D01*
X104001609Y-84415601D02*
X103906371Y-84367982D01*
X103906371Y-84367982D02*
X103620657Y-84367982D01*
X103620657Y-84367982D02*
X103525419Y-84415601D01*
X103525419Y-84415601D02*
X103477800Y-84463220D01*
X103477800Y-84463220D02*
X103430180Y-84558458D01*
X103430180Y-84558458D02*
X103430180Y-84701315D01*
X104096847Y-83939410D02*
X103430180Y-83939410D01*
X104001609Y-83939410D02*
X104049228Y-83891791D01*
X104049228Y-83891791D02*
X104096847Y-83796553D01*
X104096847Y-83796553D02*
X104096847Y-83653696D01*
X104096847Y-83653696D02*
X104049228Y-83558458D01*
X104049228Y-83558458D02*
X103953990Y-83510839D01*
X103953990Y-83510839D02*
X103430180Y-83510839D01*
X103430180Y-81748934D02*
X103430180Y-82320362D01*
X103430180Y-82034648D02*
X104430180Y-82034648D01*
X104430180Y-82034648D02*
X104287323Y-82129886D01*
X104287323Y-82129886D02*
X104192085Y-82225124D01*
X104192085Y-82225124D02*
X104144466Y-82320362D01*
X103525419Y-81320362D02*
X103477800Y-81272743D01*
X103477800Y-81272743D02*
X103430180Y-81320362D01*
X103430180Y-81320362D02*
X103477800Y-81367981D01*
X103477800Y-81367981D02*
X103525419Y-81320362D01*
X103525419Y-81320362D02*
X103430180Y-81320362D01*
X104430180Y-80653696D02*
X104430180Y-80558458D01*
X104430180Y-80558458D02*
X104382561Y-80463220D01*
X104382561Y-80463220D02*
X104334942Y-80415601D01*
X104334942Y-80415601D02*
X104239704Y-80367982D01*
X104239704Y-80367982D02*
X104049228Y-80320363D01*
X104049228Y-80320363D02*
X103811133Y-80320363D01*
X103811133Y-80320363D02*
X103620657Y-80367982D01*
X103620657Y-80367982D02*
X103525419Y-80415601D01*
X103525419Y-80415601D02*
X103477800Y-80463220D01*
X103477800Y-80463220D02*
X103430180Y-80558458D01*
X103430180Y-80558458D02*
X103430180Y-80653696D01*
X103430180Y-80653696D02*
X103477800Y-80748934D01*
X103477800Y-80748934D02*
X103525419Y-80796553D01*
X103525419Y-80796553D02*
X103620657Y-80844172D01*
X103620657Y-80844172D02*
X103811133Y-80891791D01*
X103811133Y-80891791D02*
X104049228Y-80891791D01*
X104049228Y-80891791D02*
X104239704Y-80844172D01*
X104239704Y-80844172D02*
X104334942Y-80796553D01*
X104334942Y-80796553D02*
X104382561Y-80748934D01*
X104382561Y-80748934D02*
X104430180Y-80653696D01*
D11*
X112629003Y-99859774D02*
X112629003Y-99574060D01*
X112629003Y-99574060D02*
X112557574Y-99431203D01*
X112557574Y-99431203D02*
X112414717Y-99288346D01*
X112414717Y-99288346D02*
X112129003Y-99216917D01*
X112129003Y-99216917D02*
X111629003Y-99216917D01*
X111629003Y-99216917D02*
X111343289Y-99288346D01*
X111343289Y-99288346D02*
X111200432Y-99431203D01*
X111200432Y-99431203D02*
X111129003Y-99574060D01*
X111129003Y-99574060D02*
X111129003Y-99859774D01*
X111129003Y-99859774D02*
X111200432Y-100002632D01*
X111200432Y-100002632D02*
X111343289Y-100145489D01*
X111343289Y-100145489D02*
X111629003Y-100216917D01*
X111629003Y-100216917D02*
X112129003Y-100216917D01*
X112129003Y-100216917D02*
X112414717Y-100145489D01*
X112414717Y-100145489D02*
X112557574Y-100002632D01*
X112557574Y-100002632D02*
X112629003Y-99859774D01*
X111129003Y-98574060D02*
X112629003Y-98574060D01*
X112629003Y-98574060D02*
X112629003Y-98002631D01*
X112629003Y-98002631D02*
X112557574Y-97859774D01*
X112557574Y-97859774D02*
X112486146Y-97788345D01*
X112486146Y-97788345D02*
X112343289Y-97716917D01*
X112343289Y-97716917D02*
X112129003Y-97716917D01*
X112129003Y-97716917D02*
X111986146Y-97788345D01*
X111986146Y-97788345D02*
X111914717Y-97859774D01*
X111914717Y-97859774D02*
X111843289Y-98002631D01*
X111843289Y-98002631D02*
X111843289Y-98574060D01*
X111129003Y-97074060D02*
X112629003Y-97074060D01*
X112629003Y-97074060D02*
X112629003Y-96716917D01*
X112629003Y-96716917D02*
X112557574Y-96502631D01*
X112557574Y-96502631D02*
X112414717Y-96359774D01*
X112414717Y-96359774D02*
X112271860Y-96288345D01*
X112271860Y-96288345D02*
X111986146Y-96216917D01*
X111986146Y-96216917D02*
X111771860Y-96216917D01*
X111771860Y-96216917D02*
X111486146Y-96288345D01*
X111486146Y-96288345D02*
X111343289Y-96359774D01*
X111343289Y-96359774D02*
X111200432Y-96502631D01*
X111200432Y-96502631D02*
X111129003Y-96716917D01*
X111129003Y-96716917D02*
X111129003Y-97074060D01*
X111271860Y-93574060D02*
X111200432Y-93645488D01*
X111200432Y-93645488D02*
X111129003Y-93859774D01*
X111129003Y-93859774D02*
X111129003Y-94002631D01*
X111129003Y-94002631D02*
X111200432Y-94216917D01*
X111200432Y-94216917D02*
X111343289Y-94359774D01*
X111343289Y-94359774D02*
X111486146Y-94431203D01*
X111486146Y-94431203D02*
X111771860Y-94502631D01*
X111771860Y-94502631D02*
X111986146Y-94502631D01*
X111986146Y-94502631D02*
X112271860Y-94431203D01*
X112271860Y-94431203D02*
X112414717Y-94359774D01*
X112414717Y-94359774D02*
X112557574Y-94216917D01*
X112557574Y-94216917D02*
X112629003Y-94002631D01*
X112629003Y-94002631D02*
X112629003Y-93859774D01*
X112629003Y-93859774D02*
X112557574Y-93645488D01*
X112557574Y-93645488D02*
X112486146Y-93574060D01*
X111129003Y-92716917D02*
X111200432Y-92859774D01*
X111200432Y-92859774D02*
X111271860Y-92931203D01*
X111271860Y-92931203D02*
X111414717Y-93002631D01*
X111414717Y-93002631D02*
X111843289Y-93002631D01*
X111843289Y-93002631D02*
X111986146Y-92931203D01*
X111986146Y-92931203D02*
X112057574Y-92859774D01*
X112057574Y-92859774D02*
X112129003Y-92716917D01*
X112129003Y-92716917D02*
X112129003Y-92502631D01*
X112129003Y-92502631D02*
X112057574Y-92359774D01*
X112057574Y-92359774D02*
X111986146Y-92288346D01*
X111986146Y-92288346D02*
X111843289Y-92216917D01*
X111843289Y-92216917D02*
X111414717Y-92216917D01*
X111414717Y-92216917D02*
X111271860Y-92288346D01*
X111271860Y-92288346D02*
X111200432Y-92359774D01*
X111200432Y-92359774D02*
X111129003Y-92502631D01*
X111129003Y-92502631D02*
X111129003Y-92716917D01*
X111129003Y-91574060D02*
X112129003Y-91574060D01*
X111986146Y-91574060D02*
X112057574Y-91502631D01*
X112057574Y-91502631D02*
X112129003Y-91359774D01*
X112129003Y-91359774D02*
X112129003Y-91145488D01*
X112129003Y-91145488D02*
X112057574Y-91002631D01*
X112057574Y-91002631D02*
X111914717Y-90931203D01*
X111914717Y-90931203D02*
X111129003Y-90931203D01*
X111914717Y-90931203D02*
X112057574Y-90859774D01*
X112057574Y-90859774D02*
X112129003Y-90716917D01*
X112129003Y-90716917D02*
X112129003Y-90502631D01*
X112129003Y-90502631D02*
X112057574Y-90359774D01*
X112057574Y-90359774D02*
X111914717Y-90288345D01*
X111914717Y-90288345D02*
X111129003Y-90288345D01*
X112129003Y-89574060D02*
X110629003Y-89574060D01*
X112057574Y-89574060D02*
X112129003Y-89431203D01*
X112129003Y-89431203D02*
X112129003Y-89145488D01*
X112129003Y-89145488D02*
X112057574Y-89002631D01*
X112057574Y-89002631D02*
X111986146Y-88931203D01*
X111986146Y-88931203D02*
X111843289Y-88859774D01*
X111843289Y-88859774D02*
X111414717Y-88859774D01*
X111414717Y-88859774D02*
X111271860Y-88931203D01*
X111271860Y-88931203D02*
X111200432Y-89002631D01*
X111200432Y-89002631D02*
X111129003Y-89145488D01*
X111129003Y-89145488D02*
X111129003Y-89431203D01*
X111129003Y-89431203D02*
X111200432Y-89574060D01*
X112129003Y-87574060D02*
X111129003Y-87574060D01*
X112129003Y-88216917D02*
X111343289Y-88216917D01*
X111343289Y-88216917D02*
X111200432Y-88145488D01*
X111200432Y-88145488D02*
X111129003Y-88002631D01*
X111129003Y-88002631D02*
X111129003Y-87788345D01*
X111129003Y-87788345D02*
X111200432Y-87645488D01*
X111200432Y-87645488D02*
X111271860Y-87574060D01*
X112129003Y-87074059D02*
X112129003Y-86502631D01*
X112629003Y-86859774D02*
X111343289Y-86859774D01*
X111343289Y-86859774D02*
X111200432Y-86788345D01*
X111200432Y-86788345D02*
X111129003Y-86645488D01*
X111129003Y-86645488D02*
X111129003Y-86502631D01*
X111200432Y-85431202D02*
X111129003Y-85574059D01*
X111129003Y-85574059D02*
X111129003Y-85859774D01*
X111129003Y-85859774D02*
X111200432Y-86002631D01*
X111200432Y-86002631D02*
X111343289Y-86074059D01*
X111343289Y-86074059D02*
X111914717Y-86074059D01*
X111914717Y-86074059D02*
X112057574Y-86002631D01*
X112057574Y-86002631D02*
X112129003Y-85859774D01*
X112129003Y-85859774D02*
X112129003Y-85574059D01*
X112129003Y-85574059D02*
X112057574Y-85431202D01*
X112057574Y-85431202D02*
X111914717Y-85359774D01*
X111914717Y-85359774D02*
X111771860Y-85359774D01*
X111771860Y-85359774D02*
X111629003Y-86074059D01*
X111129003Y-84716917D02*
X112129003Y-84716917D01*
X111843289Y-84716917D02*
X111986146Y-84645488D01*
X111986146Y-84645488D02*
X112057574Y-84574060D01*
X112057574Y-84574060D02*
X112129003Y-84431202D01*
X112129003Y-84431202D02*
X112129003Y-84288345D01*
X112629003Y-82359774D02*
X112629003Y-82074060D01*
X112629003Y-82074060D02*
X112557574Y-81931203D01*
X112557574Y-81931203D02*
X112414717Y-81788346D01*
X112414717Y-81788346D02*
X112129003Y-81716917D01*
X112129003Y-81716917D02*
X111629003Y-81716917D01*
X111629003Y-81716917D02*
X111343289Y-81788346D01*
X111343289Y-81788346D02*
X111200432Y-81931203D01*
X111200432Y-81931203D02*
X111129003Y-82074060D01*
X111129003Y-82074060D02*
X111129003Y-82359774D01*
X111129003Y-82359774D02*
X111200432Y-82502632D01*
X111200432Y-82502632D02*
X111343289Y-82645489D01*
X111343289Y-82645489D02*
X111629003Y-82716917D01*
X111629003Y-82716917D02*
X112129003Y-82716917D01*
X112129003Y-82716917D02*
X112414717Y-82645489D01*
X112414717Y-82645489D02*
X112557574Y-82502632D01*
X112557574Y-82502632D02*
X112629003Y-82359774D01*
X112129003Y-81074060D02*
X111129003Y-81074060D01*
X111986146Y-81074060D02*
X112057574Y-81002631D01*
X112057574Y-81002631D02*
X112129003Y-80859774D01*
X112129003Y-80859774D02*
X112129003Y-80645488D01*
X112129003Y-80645488D02*
X112057574Y-80502631D01*
X112057574Y-80502631D02*
X111914717Y-80431203D01*
X111914717Y-80431203D02*
X111129003Y-80431203D01*
X111200432Y-79145488D02*
X111129003Y-79288345D01*
X111129003Y-79288345D02*
X111129003Y-79574060D01*
X111129003Y-79574060D02*
X111200432Y-79716917D01*
X111200432Y-79716917D02*
X111343289Y-79788345D01*
X111343289Y-79788345D02*
X111914717Y-79788345D01*
X111914717Y-79788345D02*
X112057574Y-79716917D01*
X112057574Y-79716917D02*
X112129003Y-79574060D01*
X112129003Y-79574060D02*
X112129003Y-79288345D01*
X112129003Y-79288345D02*
X112057574Y-79145488D01*
X112057574Y-79145488D02*
X111914717Y-79074060D01*
X111914717Y-79074060D02*
X111771860Y-79074060D01*
X111771860Y-79074060D02*
X111629003Y-79788345D01*
X109499801Y-99645489D02*
X109499801Y-100145489D01*
X108714087Y-100145489D02*
X110214087Y-100145489D01*
X110214087Y-100145489D02*
X110214087Y-99431203D01*
X108714087Y-98645489D02*
X108785516Y-98788346D01*
X108785516Y-98788346D02*
X108928373Y-98859775D01*
X108928373Y-98859775D02*
X110214087Y-98859775D01*
X108714087Y-97859775D02*
X108785516Y-98002632D01*
X108785516Y-98002632D02*
X108856944Y-98074061D01*
X108856944Y-98074061D02*
X108999801Y-98145489D01*
X108999801Y-98145489D02*
X109428373Y-98145489D01*
X109428373Y-98145489D02*
X109571230Y-98074061D01*
X109571230Y-98074061D02*
X109642658Y-98002632D01*
X109642658Y-98002632D02*
X109714087Y-97859775D01*
X109714087Y-97859775D02*
X109714087Y-97645489D01*
X109714087Y-97645489D02*
X109642658Y-97502632D01*
X109642658Y-97502632D02*
X109571230Y-97431204D01*
X109571230Y-97431204D02*
X109428373Y-97359775D01*
X109428373Y-97359775D02*
X108999801Y-97359775D01*
X108999801Y-97359775D02*
X108856944Y-97431204D01*
X108856944Y-97431204D02*
X108785516Y-97502632D01*
X108785516Y-97502632D02*
X108714087Y-97645489D01*
X108714087Y-97645489D02*
X108714087Y-97859775D01*
X109714087Y-96716918D02*
X108214087Y-96716918D01*
X109642658Y-96716918D02*
X109714087Y-96574061D01*
X109714087Y-96574061D02*
X109714087Y-96288346D01*
X109714087Y-96288346D02*
X109642658Y-96145489D01*
X109642658Y-96145489D02*
X109571230Y-96074061D01*
X109571230Y-96074061D02*
X109428373Y-96002632D01*
X109428373Y-96002632D02*
X108999801Y-96002632D01*
X108999801Y-96002632D02*
X108856944Y-96074061D01*
X108856944Y-96074061D02*
X108785516Y-96145489D01*
X108785516Y-96145489D02*
X108714087Y-96288346D01*
X108714087Y-96288346D02*
X108714087Y-96574061D01*
X108714087Y-96574061D02*
X108785516Y-96716918D01*
X109714087Y-95359775D02*
X108214087Y-95359775D01*
X109642658Y-95359775D02*
X109714087Y-95216918D01*
X109714087Y-95216918D02*
X109714087Y-94931203D01*
X109714087Y-94931203D02*
X109642658Y-94788346D01*
X109642658Y-94788346D02*
X109571230Y-94716918D01*
X109571230Y-94716918D02*
X109428373Y-94645489D01*
X109428373Y-94645489D02*
X108999801Y-94645489D01*
X108999801Y-94645489D02*
X108856944Y-94716918D01*
X108856944Y-94716918D02*
X108785516Y-94788346D01*
X108785516Y-94788346D02*
X108714087Y-94931203D01*
X108714087Y-94931203D02*
X108714087Y-95216918D01*
X108714087Y-95216918D02*
X108785516Y-95359775D01*
X109714087Y-94145489D02*
X108714087Y-93788346D01*
X109714087Y-93431203D02*
X108714087Y-93788346D01*
X108714087Y-93788346D02*
X108356944Y-93931203D01*
X108356944Y-93931203D02*
X108285516Y-94002632D01*
X108285516Y-94002632D02*
X108214087Y-94145489D01*
X108714087Y-91716918D02*
X110214087Y-91716918D01*
X109714087Y-91002632D02*
X108714087Y-91002632D01*
X109571230Y-91002632D02*
X109642658Y-90931203D01*
X109642658Y-90931203D02*
X109714087Y-90788346D01*
X109714087Y-90788346D02*
X109714087Y-90574060D01*
X109714087Y-90574060D02*
X109642658Y-90431203D01*
X109642658Y-90431203D02*
X109499801Y-90359775D01*
X109499801Y-90359775D02*
X108714087Y-90359775D01*
X109714087Y-89859774D02*
X109714087Y-89288346D01*
X110214087Y-89645489D02*
X108928373Y-89645489D01*
X108928373Y-89645489D02*
X108785516Y-89574060D01*
X108785516Y-89574060D02*
X108714087Y-89431203D01*
X108714087Y-89431203D02*
X108714087Y-89288346D01*
X108785516Y-88216917D02*
X108714087Y-88359774D01*
X108714087Y-88359774D02*
X108714087Y-88645489D01*
X108714087Y-88645489D02*
X108785516Y-88788346D01*
X108785516Y-88788346D02*
X108928373Y-88859774D01*
X108928373Y-88859774D02*
X109499801Y-88859774D01*
X109499801Y-88859774D02*
X109642658Y-88788346D01*
X109642658Y-88788346D02*
X109714087Y-88645489D01*
X109714087Y-88645489D02*
X109714087Y-88359774D01*
X109714087Y-88359774D02*
X109642658Y-88216917D01*
X109642658Y-88216917D02*
X109499801Y-88145489D01*
X109499801Y-88145489D02*
X109356944Y-88145489D01*
X109356944Y-88145489D02*
X109214087Y-88859774D01*
X108714087Y-87502632D02*
X109714087Y-87502632D01*
X109428373Y-87502632D02*
X109571230Y-87431203D01*
X109571230Y-87431203D02*
X109642658Y-87359775D01*
X109642658Y-87359775D02*
X109714087Y-87216917D01*
X109714087Y-87216917D02*
X109714087Y-87074060D01*
X109714087Y-86788346D02*
X109714087Y-86216918D01*
X108714087Y-86574061D02*
X109999801Y-86574061D01*
X109999801Y-86574061D02*
X110142658Y-86502632D01*
X110142658Y-86502632D02*
X110214087Y-86359775D01*
X110214087Y-86359775D02*
X110214087Y-86216918D01*
X108714087Y-85074061D02*
X109499801Y-85074061D01*
X109499801Y-85074061D02*
X109642658Y-85145489D01*
X109642658Y-85145489D02*
X109714087Y-85288346D01*
X109714087Y-85288346D02*
X109714087Y-85574061D01*
X109714087Y-85574061D02*
X109642658Y-85716918D01*
X108785516Y-85074061D02*
X108714087Y-85216918D01*
X108714087Y-85216918D02*
X108714087Y-85574061D01*
X108714087Y-85574061D02*
X108785516Y-85716918D01*
X108785516Y-85716918D02*
X108928373Y-85788346D01*
X108928373Y-85788346D02*
X109071230Y-85788346D01*
X109071230Y-85788346D02*
X109214087Y-85716918D01*
X109214087Y-85716918D02*
X109285516Y-85574061D01*
X109285516Y-85574061D02*
X109285516Y-85216918D01*
X109285516Y-85216918D02*
X109356944Y-85074061D01*
X108785516Y-83716918D02*
X108714087Y-83859775D01*
X108714087Y-83859775D02*
X108714087Y-84145489D01*
X108714087Y-84145489D02*
X108785516Y-84288346D01*
X108785516Y-84288346D02*
X108856944Y-84359775D01*
X108856944Y-84359775D02*
X108999801Y-84431203D01*
X108999801Y-84431203D02*
X109428373Y-84431203D01*
X109428373Y-84431203D02*
X109571230Y-84359775D01*
X109571230Y-84359775D02*
X109642658Y-84288346D01*
X109642658Y-84288346D02*
X109714087Y-84145489D01*
X109714087Y-84145489D02*
X109714087Y-83859775D01*
X109714087Y-83859775D02*
X109642658Y-83716918D01*
X108785516Y-82502632D02*
X108714087Y-82645489D01*
X108714087Y-82645489D02*
X108714087Y-82931204D01*
X108714087Y-82931204D02*
X108785516Y-83074061D01*
X108785516Y-83074061D02*
X108928373Y-83145489D01*
X108928373Y-83145489D02*
X109499801Y-83145489D01*
X109499801Y-83145489D02*
X109642658Y-83074061D01*
X109642658Y-83074061D02*
X109714087Y-82931204D01*
X109714087Y-82931204D02*
X109714087Y-82645489D01*
X109714087Y-82645489D02*
X109642658Y-82502632D01*
X109642658Y-82502632D02*
X109499801Y-82431204D01*
X109499801Y-82431204D02*
X109356944Y-82431204D01*
X109356944Y-82431204D02*
X109214087Y-83145489D01*
X108714087Y-79788347D02*
X109428373Y-80288347D01*
X108714087Y-80645490D02*
X110214087Y-80645490D01*
X110214087Y-80645490D02*
X110214087Y-80074061D01*
X110214087Y-80074061D02*
X110142658Y-79931204D01*
X110142658Y-79931204D02*
X110071230Y-79859775D01*
X110071230Y-79859775D02*
X109928373Y-79788347D01*
X109928373Y-79788347D02*
X109714087Y-79788347D01*
X109714087Y-79788347D02*
X109571230Y-79859775D01*
X109571230Y-79859775D02*
X109499801Y-79931204D01*
X109499801Y-79931204D02*
X109428373Y-80074061D01*
X109428373Y-80074061D02*
X109428373Y-80645490D01*
X108785516Y-78574061D02*
X108714087Y-78716918D01*
X108714087Y-78716918D02*
X108714087Y-79002633D01*
X108714087Y-79002633D02*
X108785516Y-79145490D01*
X108785516Y-79145490D02*
X108928373Y-79216918D01*
X108928373Y-79216918D02*
X109499801Y-79216918D01*
X109499801Y-79216918D02*
X109642658Y-79145490D01*
X109642658Y-79145490D02*
X109714087Y-79002633D01*
X109714087Y-79002633D02*
X109714087Y-78716918D01*
X109714087Y-78716918D02*
X109642658Y-78574061D01*
X109642658Y-78574061D02*
X109499801Y-78502633D01*
X109499801Y-78502633D02*
X109356944Y-78502633D01*
X109356944Y-78502633D02*
X109214087Y-79216918D01*
X108785516Y-77216919D02*
X108714087Y-77359776D01*
X108714087Y-77359776D02*
X108714087Y-77645490D01*
X108714087Y-77645490D02*
X108785516Y-77788347D01*
X108785516Y-77788347D02*
X108856944Y-77859776D01*
X108856944Y-77859776D02*
X108999801Y-77931204D01*
X108999801Y-77931204D02*
X109428373Y-77931204D01*
X109428373Y-77931204D02*
X109571230Y-77859776D01*
X109571230Y-77859776D02*
X109642658Y-77788347D01*
X109642658Y-77788347D02*
X109714087Y-77645490D01*
X109714087Y-77645490D02*
X109714087Y-77359776D01*
X109714087Y-77359776D02*
X109642658Y-77216919D01*
X108714087Y-76574062D02*
X109714087Y-76574062D01*
X109428373Y-76574062D02*
X109571230Y-76502633D01*
X109571230Y-76502633D02*
X109642658Y-76431205D01*
X109642658Y-76431205D02*
X109714087Y-76288347D01*
X109714087Y-76288347D02*
X109714087Y-76145490D01*
X108785516Y-75074062D02*
X108714087Y-75216919D01*
X108714087Y-75216919D02*
X108714087Y-75502634D01*
X108714087Y-75502634D02*
X108785516Y-75645491D01*
X108785516Y-75645491D02*
X108928373Y-75716919D01*
X108928373Y-75716919D02*
X109499801Y-75716919D01*
X109499801Y-75716919D02*
X109642658Y-75645491D01*
X109642658Y-75645491D02*
X109714087Y-75502634D01*
X109714087Y-75502634D02*
X109714087Y-75216919D01*
X109714087Y-75216919D02*
X109642658Y-75074062D01*
X109642658Y-75074062D02*
X109499801Y-75002634D01*
X109499801Y-75002634D02*
X109356944Y-75002634D01*
X109356944Y-75002634D02*
X109214087Y-75716919D01*
X108714087Y-73716920D02*
X109499801Y-73716920D01*
X109499801Y-73716920D02*
X109642658Y-73788348D01*
X109642658Y-73788348D02*
X109714087Y-73931205D01*
X109714087Y-73931205D02*
X109714087Y-74216920D01*
X109714087Y-74216920D02*
X109642658Y-74359777D01*
X108785516Y-73716920D02*
X108714087Y-73859777D01*
X108714087Y-73859777D02*
X108714087Y-74216920D01*
X108714087Y-74216920D02*
X108785516Y-74359777D01*
X108785516Y-74359777D02*
X108928373Y-74431205D01*
X108928373Y-74431205D02*
X109071230Y-74431205D01*
X109071230Y-74431205D02*
X109214087Y-74359777D01*
X109214087Y-74359777D02*
X109285516Y-74216920D01*
X109285516Y-74216920D02*
X109285516Y-73859777D01*
X109285516Y-73859777D02*
X109356944Y-73716920D01*
X109714087Y-73216919D02*
X109714087Y-72645491D01*
X110214087Y-73002634D02*
X108928373Y-73002634D01*
X108928373Y-73002634D02*
X108785516Y-72931205D01*
X108785516Y-72931205D02*
X108714087Y-72788348D01*
X108714087Y-72788348D02*
X108714087Y-72645491D01*
X108714087Y-72145491D02*
X109714087Y-72145491D01*
X110214087Y-72145491D02*
X110142658Y-72216919D01*
X110142658Y-72216919D02*
X110071230Y-72145491D01*
X110071230Y-72145491D02*
X110142658Y-72074062D01*
X110142658Y-72074062D02*
X110214087Y-72145491D01*
X110214087Y-72145491D02*
X110071230Y-72145491D01*
X108714087Y-71216919D02*
X108785516Y-71359776D01*
X108785516Y-71359776D02*
X108856944Y-71431205D01*
X108856944Y-71431205D02*
X108999801Y-71502633D01*
X108999801Y-71502633D02*
X109428373Y-71502633D01*
X109428373Y-71502633D02*
X109571230Y-71431205D01*
X109571230Y-71431205D02*
X109642658Y-71359776D01*
X109642658Y-71359776D02*
X109714087Y-71216919D01*
X109714087Y-71216919D02*
X109714087Y-71002633D01*
X109714087Y-71002633D02*
X109642658Y-70859776D01*
X109642658Y-70859776D02*
X109571230Y-70788348D01*
X109571230Y-70788348D02*
X109428373Y-70716919D01*
X109428373Y-70716919D02*
X108999801Y-70716919D01*
X108999801Y-70716919D02*
X108856944Y-70788348D01*
X108856944Y-70788348D02*
X108785516Y-70859776D01*
X108785516Y-70859776D02*
X108714087Y-71002633D01*
X108714087Y-71002633D02*
X108714087Y-71216919D01*
X109714087Y-70074062D02*
X108714087Y-70074062D01*
X109571230Y-70074062D02*
X109642658Y-70002633D01*
X109642658Y-70002633D02*
X109714087Y-69859776D01*
X109714087Y-69859776D02*
X109714087Y-69645490D01*
X109714087Y-69645490D02*
X109642658Y-69502633D01*
X109642658Y-69502633D02*
X109499801Y-69431205D01*
X109499801Y-69431205D02*
X108714087Y-69431205D01*
X107442028Y-98931203D02*
X107513457Y-99074060D01*
X107513457Y-99074060D02*
X107513457Y-99359774D01*
X107513457Y-99359774D02*
X107442028Y-99502632D01*
X107442028Y-99502632D02*
X107299171Y-99645489D01*
X107299171Y-99645489D02*
X107156314Y-99716917D01*
X107156314Y-99716917D02*
X106870600Y-99716917D01*
X106870600Y-99716917D02*
X106727742Y-99645489D01*
X106727742Y-99645489D02*
X106584885Y-99502632D01*
X106584885Y-99502632D02*
X106513457Y-99359774D01*
X106513457Y-99359774D02*
X106513457Y-99074060D01*
X106513457Y-99074060D02*
X106584885Y-98931203D01*
X108013457Y-99216917D02*
X107942028Y-99574060D01*
X107942028Y-99574060D02*
X107727742Y-99931203D01*
X107727742Y-99931203D02*
X107370600Y-100145489D01*
X107370600Y-100145489D02*
X107013457Y-100216917D01*
X107013457Y-100216917D02*
X106656314Y-100145489D01*
X106656314Y-100145489D02*
X106299171Y-99931203D01*
X106299171Y-99931203D02*
X106084885Y-99574060D01*
X106084885Y-99574060D02*
X106013457Y-99216917D01*
X106013457Y-99216917D02*
X106084885Y-98859774D01*
X106084885Y-98859774D02*
X106299171Y-98502632D01*
X106299171Y-98502632D02*
X106656314Y-98288346D01*
X106656314Y-98288346D02*
X107013457Y-98216917D01*
X107013457Y-98216917D02*
X107370600Y-98288346D01*
X107370600Y-98288346D02*
X107727742Y-98502632D01*
X107727742Y-98502632D02*
X107942028Y-98859774D01*
X107942028Y-98859774D02*
X108013457Y-99216917D01*
X107656314Y-97645488D02*
X107727742Y-97574060D01*
X107727742Y-97574060D02*
X107799171Y-97431203D01*
X107799171Y-97431203D02*
X107799171Y-97074060D01*
X107799171Y-97074060D02*
X107727742Y-96931203D01*
X107727742Y-96931203D02*
X107656314Y-96859774D01*
X107656314Y-96859774D02*
X107513457Y-96788345D01*
X107513457Y-96788345D02*
X107370600Y-96788345D01*
X107370600Y-96788345D02*
X107156314Y-96859774D01*
X107156314Y-96859774D02*
X106299171Y-97716917D01*
X106299171Y-97716917D02*
X106299171Y-96788345D01*
X107799171Y-95859774D02*
X107799171Y-95716917D01*
X107799171Y-95716917D02*
X107727742Y-95574060D01*
X107727742Y-95574060D02*
X107656314Y-95502632D01*
X107656314Y-95502632D02*
X107513457Y-95431203D01*
X107513457Y-95431203D02*
X107227742Y-95359774D01*
X107227742Y-95359774D02*
X106870600Y-95359774D01*
X106870600Y-95359774D02*
X106584885Y-95431203D01*
X106584885Y-95431203D02*
X106442028Y-95502632D01*
X106442028Y-95502632D02*
X106370600Y-95574060D01*
X106370600Y-95574060D02*
X106299171Y-95716917D01*
X106299171Y-95716917D02*
X106299171Y-95859774D01*
X106299171Y-95859774D02*
X106370600Y-96002632D01*
X106370600Y-96002632D02*
X106442028Y-96074060D01*
X106442028Y-96074060D02*
X106584885Y-96145489D01*
X106584885Y-96145489D02*
X106870600Y-96216917D01*
X106870600Y-96216917D02*
X107227742Y-96216917D01*
X107227742Y-96216917D02*
X107513457Y-96145489D01*
X107513457Y-96145489D02*
X107656314Y-96074060D01*
X107656314Y-96074060D02*
X107727742Y-96002632D01*
X107727742Y-96002632D02*
X107799171Y-95859774D01*
X107656314Y-94788346D02*
X107727742Y-94716918D01*
X107727742Y-94716918D02*
X107799171Y-94574061D01*
X107799171Y-94574061D02*
X107799171Y-94216918D01*
X107799171Y-94216918D02*
X107727742Y-94074061D01*
X107727742Y-94074061D02*
X107656314Y-94002632D01*
X107656314Y-94002632D02*
X107513457Y-93931203D01*
X107513457Y-93931203D02*
X107370600Y-93931203D01*
X107370600Y-93931203D02*
X107156314Y-94002632D01*
X107156314Y-94002632D02*
X106299171Y-94859775D01*
X106299171Y-94859775D02*
X106299171Y-93931203D01*
X107299171Y-92645490D02*
X106299171Y-92645490D01*
X107870600Y-93002632D02*
X106799171Y-93359775D01*
X106799171Y-93359775D02*
X106799171Y-92431204D01*
X106370600Y-90788347D02*
X106299171Y-90574062D01*
X106299171Y-90574062D02*
X106299171Y-90216919D01*
X106299171Y-90216919D02*
X106370600Y-90074062D01*
X106370600Y-90074062D02*
X106442028Y-90002633D01*
X106442028Y-90002633D02*
X106584885Y-89931204D01*
X106584885Y-89931204D02*
X106727742Y-89931204D01*
X106727742Y-89931204D02*
X106870600Y-90002633D01*
X106870600Y-90002633D02*
X106942028Y-90074062D01*
X106942028Y-90074062D02*
X107013457Y-90216919D01*
X107013457Y-90216919D02*
X107084885Y-90502633D01*
X107084885Y-90502633D02*
X107156314Y-90645490D01*
X107156314Y-90645490D02*
X107227742Y-90716919D01*
X107227742Y-90716919D02*
X107370600Y-90788347D01*
X107370600Y-90788347D02*
X107513457Y-90788347D01*
X107513457Y-90788347D02*
X107656314Y-90716919D01*
X107656314Y-90716919D02*
X107727742Y-90645490D01*
X107727742Y-90645490D02*
X107799171Y-90502633D01*
X107799171Y-90502633D02*
X107799171Y-90145490D01*
X107799171Y-90145490D02*
X107727742Y-89931204D01*
X107299171Y-89502633D02*
X107299171Y-88931205D01*
X107799171Y-89288348D02*
X106513457Y-89288348D01*
X106513457Y-89288348D02*
X106370600Y-89216919D01*
X106370600Y-89216919D02*
X106299171Y-89074062D01*
X106299171Y-89074062D02*
X106299171Y-88931205D01*
X106370600Y-87859776D02*
X106299171Y-88002633D01*
X106299171Y-88002633D02*
X106299171Y-88288348D01*
X106299171Y-88288348D02*
X106370600Y-88431205D01*
X106370600Y-88431205D02*
X106513457Y-88502633D01*
X106513457Y-88502633D02*
X107084885Y-88502633D01*
X107084885Y-88502633D02*
X107227742Y-88431205D01*
X107227742Y-88431205D02*
X107299171Y-88288348D01*
X107299171Y-88288348D02*
X107299171Y-88002633D01*
X107299171Y-88002633D02*
X107227742Y-87859776D01*
X107227742Y-87859776D02*
X107084885Y-87788348D01*
X107084885Y-87788348D02*
X106942028Y-87788348D01*
X106942028Y-87788348D02*
X106799171Y-88502633D01*
X107299171Y-87145491D02*
X105799171Y-87145491D01*
X107227742Y-87145491D02*
X107299171Y-87002634D01*
X107299171Y-87002634D02*
X107299171Y-86716919D01*
X107299171Y-86716919D02*
X107227742Y-86574062D01*
X107227742Y-86574062D02*
X107156314Y-86502634D01*
X107156314Y-86502634D02*
X107013457Y-86431205D01*
X107013457Y-86431205D02*
X106584885Y-86431205D01*
X106584885Y-86431205D02*
X106442028Y-86502634D01*
X106442028Y-86502634D02*
X106370600Y-86574062D01*
X106370600Y-86574062D02*
X106299171Y-86716919D01*
X106299171Y-86716919D02*
X106299171Y-87002634D01*
X106299171Y-87002634D02*
X106370600Y-87145491D01*
X106299171Y-85788348D02*
X107799171Y-85788348D01*
X106299171Y-85145491D02*
X107084885Y-85145491D01*
X107084885Y-85145491D02*
X107227742Y-85216919D01*
X107227742Y-85216919D02*
X107299171Y-85359776D01*
X107299171Y-85359776D02*
X107299171Y-85574062D01*
X107299171Y-85574062D02*
X107227742Y-85716919D01*
X107227742Y-85716919D02*
X107156314Y-85788348D01*
X106370600Y-83859776D02*
X106299171Y-84002633D01*
X106299171Y-84002633D02*
X106299171Y-84288348D01*
X106299171Y-84288348D02*
X106370600Y-84431205D01*
X106370600Y-84431205D02*
X106513457Y-84502633D01*
X106513457Y-84502633D02*
X107084885Y-84502633D01*
X107084885Y-84502633D02*
X107227742Y-84431205D01*
X107227742Y-84431205D02*
X107299171Y-84288348D01*
X107299171Y-84288348D02*
X107299171Y-84002633D01*
X107299171Y-84002633D02*
X107227742Y-83859776D01*
X107227742Y-83859776D02*
X107084885Y-83788348D01*
X107084885Y-83788348D02*
X106942028Y-83788348D01*
X106942028Y-83788348D02*
X106799171Y-84502633D01*
X107299171Y-83145491D02*
X106299171Y-83145491D01*
X107156314Y-83145491D02*
X107227742Y-83074062D01*
X107227742Y-83074062D02*
X107299171Y-82931205D01*
X107299171Y-82931205D02*
X107299171Y-82716919D01*
X107299171Y-82716919D02*
X107227742Y-82574062D01*
X107227742Y-82574062D02*
X107084885Y-82502634D01*
X107084885Y-82502634D02*
X106299171Y-82502634D01*
X107799171Y-80645491D02*
X106584885Y-80645491D01*
X106584885Y-80645491D02*
X106442028Y-80574062D01*
X106442028Y-80574062D02*
X106370600Y-80502634D01*
X106370600Y-80502634D02*
X106299171Y-80359776D01*
X106299171Y-80359776D02*
X106299171Y-80074062D01*
X106299171Y-80074062D02*
X106370600Y-79931205D01*
X106370600Y-79931205D02*
X106442028Y-79859776D01*
X106442028Y-79859776D02*
X106584885Y-79788348D01*
X106584885Y-79788348D02*
X107799171Y-79788348D01*
X106370600Y-79145490D02*
X106299171Y-79002633D01*
X106299171Y-79002633D02*
X106299171Y-78716919D01*
X106299171Y-78716919D02*
X106370600Y-78574062D01*
X106370600Y-78574062D02*
X106513457Y-78502633D01*
X106513457Y-78502633D02*
X106584885Y-78502633D01*
X106584885Y-78502633D02*
X106727742Y-78574062D01*
X106727742Y-78574062D02*
X106799171Y-78716919D01*
X106799171Y-78716919D02*
X106799171Y-78931205D01*
X106799171Y-78931205D02*
X106870600Y-79074062D01*
X106870600Y-79074062D02*
X107013457Y-79145490D01*
X107013457Y-79145490D02*
X107084885Y-79145490D01*
X107084885Y-79145490D02*
X107227742Y-79074062D01*
X107227742Y-79074062D02*
X107299171Y-78931205D01*
X107299171Y-78931205D02*
X107299171Y-78716919D01*
X107299171Y-78716919D02*
X107227742Y-78574062D01*
X106299171Y-77859776D02*
X107799171Y-77859776D01*
X106299171Y-77216919D02*
X107084885Y-77216919D01*
X107084885Y-77216919D02*
X107227742Y-77288347D01*
X107227742Y-77288347D02*
X107299171Y-77431204D01*
X107299171Y-77431204D02*
X107299171Y-77645490D01*
X107299171Y-77645490D02*
X107227742Y-77788347D01*
X107227742Y-77788347D02*
X107156314Y-77859776D01*
X106370600Y-75931204D02*
X106299171Y-76074061D01*
X106299171Y-76074061D02*
X106299171Y-76359776D01*
X106299171Y-76359776D02*
X106370600Y-76502633D01*
X106370600Y-76502633D02*
X106513457Y-76574061D01*
X106513457Y-76574061D02*
X107084885Y-76574061D01*
X107084885Y-76574061D02*
X107227742Y-76502633D01*
X107227742Y-76502633D02*
X107299171Y-76359776D01*
X107299171Y-76359776D02*
X107299171Y-76074061D01*
X107299171Y-76074061D02*
X107227742Y-75931204D01*
X107227742Y-75931204D02*
X107084885Y-75859776D01*
X107084885Y-75859776D02*
X106942028Y-75859776D01*
X106942028Y-75859776D02*
X106799171Y-76574061D01*
X106299171Y-75216919D02*
X107299171Y-75216919D01*
X107013457Y-75216919D02*
X107156314Y-75145490D01*
X107156314Y-75145490D02*
X107227742Y-75074062D01*
X107227742Y-75074062D02*
X107299171Y-74931204D01*
X107299171Y-74931204D02*
X107299171Y-74788347D01*
D12*
X88603071Y-100910432D02*
X88603071Y-100053290D01*
X87103071Y-100481861D02*
X88603071Y-100481861D01*
X87103071Y-99553290D02*
X88603071Y-99553290D01*
X87888785Y-99553290D02*
X87888785Y-98696147D01*
X87103071Y-98696147D02*
X88603071Y-98696147D01*
X87103071Y-97981861D02*
X88603071Y-97981861D01*
X87174500Y-97339003D02*
X87103071Y-97124718D01*
X87103071Y-97124718D02*
X87103071Y-96767575D01*
X87103071Y-96767575D02*
X87174500Y-96624718D01*
X87174500Y-96624718D02*
X87245928Y-96553289D01*
X87245928Y-96553289D02*
X87388785Y-96481860D01*
X87388785Y-96481860D02*
X87531642Y-96481860D01*
X87531642Y-96481860D02*
X87674500Y-96553289D01*
X87674500Y-96553289D02*
X87745928Y-96624718D01*
X87745928Y-96624718D02*
X87817357Y-96767575D01*
X87817357Y-96767575D02*
X87888785Y-97053289D01*
X87888785Y-97053289D02*
X87960214Y-97196146D01*
X87960214Y-97196146D02*
X88031642Y-97267575D01*
X88031642Y-97267575D02*
X88174500Y-97339003D01*
X88174500Y-97339003D02*
X88317357Y-97339003D01*
X88317357Y-97339003D02*
X88460214Y-97267575D01*
X88460214Y-97267575D02*
X88531642Y-97196146D01*
X88531642Y-97196146D02*
X88603071Y-97053289D01*
X88603071Y-97053289D02*
X88603071Y-96696146D01*
X88603071Y-96696146D02*
X88531642Y-96481860D01*
X87174500Y-94767575D02*
X87103071Y-94553290D01*
X87103071Y-94553290D02*
X87103071Y-94196147D01*
X87103071Y-94196147D02*
X87174500Y-94053290D01*
X87174500Y-94053290D02*
X87245928Y-93981861D01*
X87245928Y-93981861D02*
X87388785Y-93910432D01*
X87388785Y-93910432D02*
X87531642Y-93910432D01*
X87531642Y-93910432D02*
X87674500Y-93981861D01*
X87674500Y-93981861D02*
X87745928Y-94053290D01*
X87745928Y-94053290D02*
X87817357Y-94196147D01*
X87817357Y-94196147D02*
X87888785Y-94481861D01*
X87888785Y-94481861D02*
X87960214Y-94624718D01*
X87960214Y-94624718D02*
X88031642Y-94696147D01*
X88031642Y-94696147D02*
X88174500Y-94767575D01*
X88174500Y-94767575D02*
X88317357Y-94767575D01*
X88317357Y-94767575D02*
X88460214Y-94696147D01*
X88460214Y-94696147D02*
X88531642Y-94624718D01*
X88531642Y-94624718D02*
X88603071Y-94481861D01*
X88603071Y-94481861D02*
X88603071Y-94124718D01*
X88603071Y-94124718D02*
X88531642Y-93910432D01*
X87103071Y-93267576D02*
X88603071Y-93267576D01*
X87103071Y-92553290D02*
X88603071Y-92553290D01*
X88603071Y-92553290D02*
X88603071Y-92196147D01*
X88603071Y-92196147D02*
X88531642Y-91981861D01*
X88531642Y-91981861D02*
X88388785Y-91839004D01*
X88388785Y-91839004D02*
X88245928Y-91767575D01*
X88245928Y-91767575D02*
X87960214Y-91696147D01*
X87960214Y-91696147D02*
X87745928Y-91696147D01*
X87745928Y-91696147D02*
X87460214Y-91767575D01*
X87460214Y-91767575D02*
X87317357Y-91839004D01*
X87317357Y-91839004D02*
X87174500Y-91981861D01*
X87174500Y-91981861D02*
X87103071Y-92196147D01*
X87103071Y-92196147D02*
X87103071Y-92553290D01*
X87888785Y-91053290D02*
X87888785Y-90553290D01*
X87103071Y-90339004D02*
X87103071Y-91053290D01*
X87103071Y-91053290D02*
X88603071Y-91053290D01*
X88603071Y-91053290D02*
X88603071Y-90339004D01*
X88603071Y-88767575D02*
X88603071Y-87910433D01*
X87103071Y-88339004D02*
X88603071Y-88339004D01*
X88603071Y-87124718D02*
X88603071Y-86839004D01*
X88603071Y-86839004D02*
X88531642Y-86696147D01*
X88531642Y-86696147D02*
X88388785Y-86553290D01*
X88388785Y-86553290D02*
X88103071Y-86481861D01*
X88103071Y-86481861D02*
X87603071Y-86481861D01*
X87603071Y-86481861D02*
X87317357Y-86553290D01*
X87317357Y-86553290D02*
X87174500Y-86696147D01*
X87174500Y-86696147D02*
X87103071Y-86839004D01*
X87103071Y-86839004D02*
X87103071Y-87124718D01*
X87103071Y-87124718D02*
X87174500Y-87267576D01*
X87174500Y-87267576D02*
X87317357Y-87410433D01*
X87317357Y-87410433D02*
X87603071Y-87481861D01*
X87603071Y-87481861D02*
X88103071Y-87481861D01*
X88103071Y-87481861D02*
X88388785Y-87410433D01*
X88388785Y-87410433D02*
X88531642Y-87267576D01*
X88531642Y-87267576D02*
X88603071Y-87124718D01*
X88603071Y-85981861D02*
X87103071Y-85624718D01*
X87103071Y-85624718D02*
X88174500Y-85339004D01*
X88174500Y-85339004D02*
X87103071Y-85053289D01*
X87103071Y-85053289D02*
X88603071Y-84696147D01*
X87531642Y-84196146D02*
X87531642Y-83481861D01*
X87103071Y-84339003D02*
X88603071Y-83839003D01*
X88603071Y-83839003D02*
X87103071Y-83339003D01*
X87103071Y-81981861D02*
X87817357Y-82481861D01*
X87103071Y-82839004D02*
X88603071Y-82839004D01*
X88603071Y-82839004D02*
X88603071Y-82267575D01*
X88603071Y-82267575D02*
X88531642Y-82124718D01*
X88531642Y-82124718D02*
X88460214Y-82053289D01*
X88460214Y-82053289D02*
X88317357Y-81981861D01*
X88317357Y-81981861D02*
X88103071Y-81981861D01*
X88103071Y-81981861D02*
X87960214Y-82053289D01*
X87960214Y-82053289D02*
X87888785Y-82124718D01*
X87888785Y-82124718D02*
X87817357Y-82267575D01*
X87817357Y-82267575D02*
X87817357Y-82839004D01*
X87103071Y-81339004D02*
X88603071Y-81339004D01*
X88603071Y-81339004D02*
X88603071Y-80981861D01*
X88603071Y-80981861D02*
X88531642Y-80767575D01*
X88531642Y-80767575D02*
X88388785Y-80624718D01*
X88388785Y-80624718D02*
X88245928Y-80553289D01*
X88245928Y-80553289D02*
X87960214Y-80481861D01*
X87960214Y-80481861D02*
X87745928Y-80481861D01*
X87745928Y-80481861D02*
X87460214Y-80553289D01*
X87460214Y-80553289D02*
X87317357Y-80624718D01*
X87317357Y-80624718D02*
X87174500Y-80767575D01*
X87174500Y-80767575D02*
X87103071Y-80981861D01*
X87103071Y-80981861D02*
X87103071Y-81339004D01*
X87174500Y-79910432D02*
X87103071Y-79696147D01*
X87103071Y-79696147D02*
X87103071Y-79339004D01*
X87103071Y-79339004D02*
X87174500Y-79196147D01*
X87174500Y-79196147D02*
X87245928Y-79124718D01*
X87245928Y-79124718D02*
X87388785Y-79053289D01*
X87388785Y-79053289D02*
X87531642Y-79053289D01*
X87531642Y-79053289D02*
X87674500Y-79124718D01*
X87674500Y-79124718D02*
X87745928Y-79196147D01*
X87745928Y-79196147D02*
X87817357Y-79339004D01*
X87817357Y-79339004D02*
X87888785Y-79624718D01*
X87888785Y-79624718D02*
X87960214Y-79767575D01*
X87960214Y-79767575D02*
X88031642Y-79839004D01*
X88031642Y-79839004D02*
X88174500Y-79910432D01*
X88174500Y-79910432D02*
X88317357Y-79910432D01*
X88317357Y-79910432D02*
X88460214Y-79839004D01*
X88460214Y-79839004D02*
X88531642Y-79767575D01*
X88531642Y-79767575D02*
X88603071Y-79624718D01*
X88603071Y-79624718D02*
X88603071Y-79267575D01*
X88603071Y-79267575D02*
X88531642Y-79053289D01*
X87888785Y-76767576D02*
X87888785Y-77267576D01*
X87103071Y-77267576D02*
X88603071Y-77267576D01*
X88603071Y-77267576D02*
X88603071Y-76553290D01*
X87103071Y-75124719D02*
X87817357Y-75624719D01*
X87103071Y-75981862D02*
X88603071Y-75981862D01*
X88603071Y-75981862D02*
X88603071Y-75410433D01*
X88603071Y-75410433D02*
X88531642Y-75267576D01*
X88531642Y-75267576D02*
X88460214Y-75196147D01*
X88460214Y-75196147D02*
X88317357Y-75124719D01*
X88317357Y-75124719D02*
X88103071Y-75124719D01*
X88103071Y-75124719D02*
X87960214Y-75196147D01*
X87960214Y-75196147D02*
X87888785Y-75267576D01*
X87888785Y-75267576D02*
X87817357Y-75410433D01*
X87817357Y-75410433D02*
X87817357Y-75981862D01*
X88603071Y-74196147D02*
X88603071Y-73910433D01*
X88603071Y-73910433D02*
X88531642Y-73767576D01*
X88531642Y-73767576D02*
X88388785Y-73624719D01*
X88388785Y-73624719D02*
X88103071Y-73553290D01*
X88103071Y-73553290D02*
X87603071Y-73553290D01*
X87603071Y-73553290D02*
X87317357Y-73624719D01*
X87317357Y-73624719D02*
X87174500Y-73767576D01*
X87174500Y-73767576D02*
X87103071Y-73910433D01*
X87103071Y-73910433D02*
X87103071Y-74196147D01*
X87103071Y-74196147D02*
X87174500Y-74339005D01*
X87174500Y-74339005D02*
X87317357Y-74481862D01*
X87317357Y-74481862D02*
X87603071Y-74553290D01*
X87603071Y-74553290D02*
X88103071Y-74553290D01*
X88103071Y-74553290D02*
X88388785Y-74481862D01*
X88388785Y-74481862D02*
X88531642Y-74339005D01*
X88531642Y-74339005D02*
X88603071Y-74196147D01*
X87103071Y-72910433D02*
X88603071Y-72910433D01*
X88603071Y-72910433D02*
X87103071Y-72053290D01*
X87103071Y-72053290D02*
X88603071Y-72053290D01*
X88603071Y-71553289D02*
X88603071Y-70696147D01*
X87103071Y-71124718D02*
X88603071Y-71124718D01*
D10*
X96766666Y-38259580D02*
X96814285Y-38307200D01*
X96814285Y-38307200D02*
X96957142Y-38354819D01*
X96957142Y-38354819D02*
X97052380Y-38354819D01*
X97052380Y-38354819D02*
X97195237Y-38307200D01*
X97195237Y-38307200D02*
X97290475Y-38211961D01*
X97290475Y-38211961D02*
X97338094Y-38116723D01*
X97338094Y-38116723D02*
X97385713Y-37926247D01*
X97385713Y-37926247D02*
X97385713Y-37783390D01*
X97385713Y-37783390D02*
X97338094Y-37592914D01*
X97338094Y-37592914D02*
X97290475Y-37497676D01*
X97290475Y-37497676D02*
X97195237Y-37402438D01*
X97195237Y-37402438D02*
X97052380Y-37354819D01*
X97052380Y-37354819D02*
X96957142Y-37354819D01*
X96957142Y-37354819D02*
X96814285Y-37402438D01*
X96814285Y-37402438D02*
X96766666Y-37450057D01*
X96338094Y-38354819D02*
X96338094Y-37354819D01*
X96338094Y-37354819D02*
X96099999Y-37354819D01*
X96099999Y-37354819D02*
X95957142Y-37402438D01*
X95957142Y-37402438D02*
X95861904Y-37497676D01*
X95861904Y-37497676D02*
X95814285Y-37592914D01*
X95814285Y-37592914D02*
X95766666Y-37783390D01*
X95766666Y-37783390D02*
X95766666Y-37926247D01*
X95766666Y-37926247D02*
X95814285Y-38116723D01*
X95814285Y-38116723D02*
X95861904Y-38211961D01*
X95861904Y-38211961D02*
X95957142Y-38307200D01*
X95957142Y-38307200D02*
X96099999Y-38354819D01*
X96099999Y-38354819D02*
X96338094Y-38354819D01*
X95433332Y-37354819D02*
X94766666Y-37354819D01*
X94766666Y-37354819D02*
X95195237Y-38354819D01*
X91771428Y-38254819D02*
X92342856Y-38254819D01*
X92057142Y-38254819D02*
X92057142Y-37254819D01*
X92057142Y-37254819D02*
X92152380Y-37397676D01*
X92152380Y-37397676D02*
X92247618Y-37492914D01*
X92247618Y-37492914D02*
X92342856Y-37540533D01*
X91152380Y-37254819D02*
X91057142Y-37254819D01*
X91057142Y-37254819D02*
X90961904Y-37302438D01*
X90961904Y-37302438D02*
X90914285Y-37350057D01*
X90914285Y-37350057D02*
X90866666Y-37445295D01*
X90866666Y-37445295D02*
X90819047Y-37635771D01*
X90819047Y-37635771D02*
X90819047Y-37873866D01*
X90819047Y-37873866D02*
X90866666Y-38064342D01*
X90866666Y-38064342D02*
X90914285Y-38159580D01*
X90914285Y-38159580D02*
X90961904Y-38207200D01*
X90961904Y-38207200D02*
X91057142Y-38254819D01*
X91057142Y-38254819D02*
X91152380Y-38254819D01*
X91152380Y-38254819D02*
X91247618Y-38207200D01*
X91247618Y-38207200D02*
X91295237Y-38159580D01*
X91295237Y-38159580D02*
X91342856Y-38064342D01*
X91342856Y-38064342D02*
X91390475Y-37873866D01*
X91390475Y-37873866D02*
X91390475Y-37635771D01*
X91390475Y-37635771D02*
X91342856Y-37445295D01*
X91342856Y-37445295D02*
X91295237Y-37350057D01*
X91295237Y-37350057D02*
X91247618Y-37302438D01*
X91247618Y-37302438D02*
X91152380Y-37254819D01*
X90390475Y-37588152D02*
X90390475Y-38254819D01*
X90390475Y-37683390D02*
X90342856Y-37635771D01*
X90342856Y-37635771D02*
X90247618Y-37588152D01*
X90247618Y-37588152D02*
X90104761Y-37588152D01*
X90104761Y-37588152D02*
X90009523Y-37635771D01*
X90009523Y-37635771D02*
X89961904Y-37731009D01*
X89961904Y-37731009D02*
X89961904Y-38254819D01*
X89152380Y-37731009D02*
X89485713Y-37731009D01*
X89485713Y-38254819D02*
X89485713Y-37254819D01*
X89485713Y-37254819D02*
X89009523Y-37254819D01*
X119116666Y-61659580D02*
X119164285Y-61707200D01*
X119164285Y-61707200D02*
X119307142Y-61754819D01*
X119307142Y-61754819D02*
X119402380Y-61754819D01*
X119402380Y-61754819D02*
X119545237Y-61707200D01*
X119545237Y-61707200D02*
X119640475Y-61611961D01*
X119640475Y-61611961D02*
X119688094Y-61516723D01*
X119688094Y-61516723D02*
X119735713Y-61326247D01*
X119735713Y-61326247D02*
X119735713Y-61183390D01*
X119735713Y-61183390D02*
X119688094Y-60992914D01*
X119688094Y-60992914D02*
X119640475Y-60897676D01*
X119640475Y-60897676D02*
X119545237Y-60802438D01*
X119545237Y-60802438D02*
X119402380Y-60754819D01*
X119402380Y-60754819D02*
X119307142Y-60754819D01*
X119307142Y-60754819D02*
X119164285Y-60802438D01*
X119164285Y-60802438D02*
X119116666Y-60850057D01*
X118688094Y-61754819D02*
X118688094Y-60754819D01*
X118688094Y-60754819D02*
X118449999Y-60754819D01*
X118449999Y-60754819D02*
X118307142Y-60802438D01*
X118307142Y-60802438D02*
X118211904Y-60897676D01*
X118211904Y-60897676D02*
X118164285Y-60992914D01*
X118164285Y-60992914D02*
X118116666Y-61183390D01*
X118116666Y-61183390D02*
X118116666Y-61326247D01*
X118116666Y-61326247D02*
X118164285Y-61516723D01*
X118164285Y-61516723D02*
X118211904Y-61611961D01*
X118211904Y-61611961D02*
X118307142Y-61707200D01*
X118307142Y-61707200D02*
X118449999Y-61754819D01*
X118449999Y-61754819D02*
X118688094Y-61754819D01*
X117259523Y-60754819D02*
X117449999Y-60754819D01*
X117449999Y-60754819D02*
X117545237Y-60802438D01*
X117545237Y-60802438D02*
X117592856Y-60850057D01*
X117592856Y-60850057D02*
X117688094Y-60992914D01*
X117688094Y-60992914D02*
X117735713Y-61183390D01*
X117735713Y-61183390D02*
X117735713Y-61564342D01*
X117735713Y-61564342D02*
X117688094Y-61659580D01*
X117688094Y-61659580D02*
X117640475Y-61707200D01*
X117640475Y-61707200D02*
X117545237Y-61754819D01*
X117545237Y-61754819D02*
X117354761Y-61754819D01*
X117354761Y-61754819D02*
X117259523Y-61707200D01*
X117259523Y-61707200D02*
X117211904Y-61659580D01*
X117211904Y-61659580D02*
X117164285Y-61564342D01*
X117164285Y-61564342D02*
X117164285Y-61326247D01*
X117164285Y-61326247D02*
X117211904Y-61231009D01*
X117211904Y-61231009D02*
X117259523Y-61183390D01*
X117259523Y-61183390D02*
X117354761Y-61135771D01*
X117354761Y-61135771D02*
X117545237Y-61135771D01*
X117545237Y-61135771D02*
X117640475Y-61183390D01*
X117640475Y-61183390D02*
X117688094Y-61231009D01*
X117688094Y-61231009D02*
X117735713Y-61326247D01*
X114271428Y-61704819D02*
X114842856Y-61704819D01*
X114557142Y-61704819D02*
X114557142Y-60704819D01*
X114557142Y-60704819D02*
X114652380Y-60847676D01*
X114652380Y-60847676D02*
X114747618Y-60942914D01*
X114747618Y-60942914D02*
X114842856Y-60990533D01*
X113652380Y-60704819D02*
X113557142Y-60704819D01*
X113557142Y-60704819D02*
X113461904Y-60752438D01*
X113461904Y-60752438D02*
X113414285Y-60800057D01*
X113414285Y-60800057D02*
X113366666Y-60895295D01*
X113366666Y-60895295D02*
X113319047Y-61085771D01*
X113319047Y-61085771D02*
X113319047Y-61323866D01*
X113319047Y-61323866D02*
X113366666Y-61514342D01*
X113366666Y-61514342D02*
X113414285Y-61609580D01*
X113414285Y-61609580D02*
X113461904Y-61657200D01*
X113461904Y-61657200D02*
X113557142Y-61704819D01*
X113557142Y-61704819D02*
X113652380Y-61704819D01*
X113652380Y-61704819D02*
X113747618Y-61657200D01*
X113747618Y-61657200D02*
X113795237Y-61609580D01*
X113795237Y-61609580D02*
X113842856Y-61514342D01*
X113842856Y-61514342D02*
X113890475Y-61323866D01*
X113890475Y-61323866D02*
X113890475Y-61085771D01*
X113890475Y-61085771D02*
X113842856Y-60895295D01*
X113842856Y-60895295D02*
X113795237Y-60800057D01*
X113795237Y-60800057D02*
X113747618Y-60752438D01*
X113747618Y-60752438D02*
X113652380Y-60704819D01*
X112890475Y-61038152D02*
X112890475Y-61704819D01*
X112890475Y-61133390D02*
X112842856Y-61085771D01*
X112842856Y-61085771D02*
X112747618Y-61038152D01*
X112747618Y-61038152D02*
X112604761Y-61038152D01*
X112604761Y-61038152D02*
X112509523Y-61085771D01*
X112509523Y-61085771D02*
X112461904Y-61181009D01*
X112461904Y-61181009D02*
X112461904Y-61704819D01*
X111652380Y-61181009D02*
X111985713Y-61181009D01*
X111985713Y-61704819D02*
X111985713Y-60704819D01*
X111985713Y-60704819D02*
X111509523Y-60704819D01*
X98666666Y-50659580D02*
X98714285Y-50707200D01*
X98714285Y-50707200D02*
X98857142Y-50754819D01*
X98857142Y-50754819D02*
X98952380Y-50754819D01*
X98952380Y-50754819D02*
X99095237Y-50707200D01*
X99095237Y-50707200D02*
X99190475Y-50611961D01*
X99190475Y-50611961D02*
X99238094Y-50516723D01*
X99238094Y-50516723D02*
X99285713Y-50326247D01*
X99285713Y-50326247D02*
X99285713Y-50183390D01*
X99285713Y-50183390D02*
X99238094Y-49992914D01*
X99238094Y-49992914D02*
X99190475Y-49897676D01*
X99190475Y-49897676D02*
X99095237Y-49802438D01*
X99095237Y-49802438D02*
X98952380Y-49754819D01*
X98952380Y-49754819D02*
X98857142Y-49754819D01*
X98857142Y-49754819D02*
X98714285Y-49802438D01*
X98714285Y-49802438D02*
X98666666Y-49850057D01*
X98238094Y-50754819D02*
X98238094Y-49754819D01*
X98238094Y-49754819D02*
X97999999Y-49754819D01*
X97999999Y-49754819D02*
X97857142Y-49802438D01*
X97857142Y-49802438D02*
X97761904Y-49897676D01*
X97761904Y-49897676D02*
X97714285Y-49992914D01*
X97714285Y-49992914D02*
X97666666Y-50183390D01*
X97666666Y-50183390D02*
X97666666Y-50326247D01*
X97666666Y-50326247D02*
X97714285Y-50516723D01*
X97714285Y-50516723D02*
X97761904Y-50611961D01*
X97761904Y-50611961D02*
X97857142Y-50707200D01*
X97857142Y-50707200D02*
X97999999Y-50754819D01*
X97999999Y-50754819D02*
X98238094Y-50754819D01*
X96809523Y-50088152D02*
X96809523Y-50754819D01*
X97047618Y-49707200D02*
X97285713Y-50421485D01*
X97285713Y-50421485D02*
X96666666Y-50421485D01*
X94071428Y-50504819D02*
X94642856Y-50504819D01*
X94357142Y-50504819D02*
X94357142Y-49504819D01*
X94357142Y-49504819D02*
X94452380Y-49647676D01*
X94452380Y-49647676D02*
X94547618Y-49742914D01*
X94547618Y-49742914D02*
X94642856Y-49790533D01*
X93452380Y-49504819D02*
X93357142Y-49504819D01*
X93357142Y-49504819D02*
X93261904Y-49552438D01*
X93261904Y-49552438D02*
X93214285Y-49600057D01*
X93214285Y-49600057D02*
X93166666Y-49695295D01*
X93166666Y-49695295D02*
X93119047Y-49885771D01*
X93119047Y-49885771D02*
X93119047Y-50123866D01*
X93119047Y-50123866D02*
X93166666Y-50314342D01*
X93166666Y-50314342D02*
X93214285Y-50409580D01*
X93214285Y-50409580D02*
X93261904Y-50457200D01*
X93261904Y-50457200D02*
X93357142Y-50504819D01*
X93357142Y-50504819D02*
X93452380Y-50504819D01*
X93452380Y-50504819D02*
X93547618Y-50457200D01*
X93547618Y-50457200D02*
X93595237Y-50409580D01*
X93595237Y-50409580D02*
X93642856Y-50314342D01*
X93642856Y-50314342D02*
X93690475Y-50123866D01*
X93690475Y-50123866D02*
X93690475Y-49885771D01*
X93690475Y-49885771D02*
X93642856Y-49695295D01*
X93642856Y-49695295D02*
X93595237Y-49600057D01*
X93595237Y-49600057D02*
X93547618Y-49552438D01*
X93547618Y-49552438D02*
X93452380Y-49504819D01*
X92690475Y-49838152D02*
X92690475Y-50504819D01*
X92690475Y-49933390D02*
X92642856Y-49885771D01*
X92642856Y-49885771D02*
X92547618Y-49838152D01*
X92547618Y-49838152D02*
X92404761Y-49838152D01*
X92404761Y-49838152D02*
X92309523Y-49885771D01*
X92309523Y-49885771D02*
X92261904Y-49981009D01*
X92261904Y-49981009D02*
X92261904Y-50504819D01*
X91452380Y-49981009D02*
X91785713Y-49981009D01*
X91785713Y-50504819D02*
X91785713Y-49504819D01*
X91785713Y-49504819D02*
X91309523Y-49504819D01*
X126516666Y-50809580D02*
X126564285Y-50857200D01*
X126564285Y-50857200D02*
X126707142Y-50904819D01*
X126707142Y-50904819D02*
X126802380Y-50904819D01*
X126802380Y-50904819D02*
X126945237Y-50857200D01*
X126945237Y-50857200D02*
X127040475Y-50761961D01*
X127040475Y-50761961D02*
X127088094Y-50666723D01*
X127088094Y-50666723D02*
X127135713Y-50476247D01*
X127135713Y-50476247D02*
X127135713Y-50333390D01*
X127135713Y-50333390D02*
X127088094Y-50142914D01*
X127088094Y-50142914D02*
X127040475Y-50047676D01*
X127040475Y-50047676D02*
X126945237Y-49952438D01*
X126945237Y-49952438D02*
X126802380Y-49904819D01*
X126802380Y-49904819D02*
X126707142Y-49904819D01*
X126707142Y-49904819D02*
X126564285Y-49952438D01*
X126564285Y-49952438D02*
X126516666Y-50000057D01*
X126088094Y-50904819D02*
X126088094Y-49904819D01*
X126088094Y-49904819D02*
X125849999Y-49904819D01*
X125849999Y-49904819D02*
X125707142Y-49952438D01*
X125707142Y-49952438D02*
X125611904Y-50047676D01*
X125611904Y-50047676D02*
X125564285Y-50142914D01*
X125564285Y-50142914D02*
X125516666Y-50333390D01*
X125516666Y-50333390D02*
X125516666Y-50476247D01*
X125516666Y-50476247D02*
X125564285Y-50666723D01*
X125564285Y-50666723D02*
X125611904Y-50761961D01*
X125611904Y-50761961D02*
X125707142Y-50857200D01*
X125707142Y-50857200D02*
X125849999Y-50904819D01*
X125849999Y-50904819D02*
X126088094Y-50904819D01*
X124611904Y-49904819D02*
X125088094Y-49904819D01*
X125088094Y-49904819D02*
X125135713Y-50381009D01*
X125135713Y-50381009D02*
X125088094Y-50333390D01*
X125088094Y-50333390D02*
X124992856Y-50285771D01*
X124992856Y-50285771D02*
X124754761Y-50285771D01*
X124754761Y-50285771D02*
X124659523Y-50333390D01*
X124659523Y-50333390D02*
X124611904Y-50381009D01*
X124611904Y-50381009D02*
X124564285Y-50476247D01*
X124564285Y-50476247D02*
X124564285Y-50714342D01*
X124564285Y-50714342D02*
X124611904Y-50809580D01*
X124611904Y-50809580D02*
X124659523Y-50857200D01*
X124659523Y-50857200D02*
X124754761Y-50904819D01*
X124754761Y-50904819D02*
X124992856Y-50904819D01*
X124992856Y-50904819D02*
X125088094Y-50857200D01*
X125088094Y-50857200D02*
X125135713Y-50809580D01*
X121821428Y-50854819D02*
X122392856Y-50854819D01*
X122107142Y-50854819D02*
X122107142Y-49854819D01*
X122107142Y-49854819D02*
X122202380Y-49997676D01*
X122202380Y-49997676D02*
X122297618Y-50092914D01*
X122297618Y-50092914D02*
X122392856Y-50140533D01*
X121202380Y-49854819D02*
X121107142Y-49854819D01*
X121107142Y-49854819D02*
X121011904Y-49902438D01*
X121011904Y-49902438D02*
X120964285Y-49950057D01*
X120964285Y-49950057D02*
X120916666Y-50045295D01*
X120916666Y-50045295D02*
X120869047Y-50235771D01*
X120869047Y-50235771D02*
X120869047Y-50473866D01*
X120869047Y-50473866D02*
X120916666Y-50664342D01*
X120916666Y-50664342D02*
X120964285Y-50759580D01*
X120964285Y-50759580D02*
X121011904Y-50807200D01*
X121011904Y-50807200D02*
X121107142Y-50854819D01*
X121107142Y-50854819D02*
X121202380Y-50854819D01*
X121202380Y-50854819D02*
X121297618Y-50807200D01*
X121297618Y-50807200D02*
X121345237Y-50759580D01*
X121345237Y-50759580D02*
X121392856Y-50664342D01*
X121392856Y-50664342D02*
X121440475Y-50473866D01*
X121440475Y-50473866D02*
X121440475Y-50235771D01*
X121440475Y-50235771D02*
X121392856Y-50045295D01*
X121392856Y-50045295D02*
X121345237Y-49950057D01*
X121345237Y-49950057D02*
X121297618Y-49902438D01*
X121297618Y-49902438D02*
X121202380Y-49854819D01*
X120440475Y-50188152D02*
X120440475Y-50854819D01*
X120440475Y-50283390D02*
X120392856Y-50235771D01*
X120392856Y-50235771D02*
X120297618Y-50188152D01*
X120297618Y-50188152D02*
X120154761Y-50188152D01*
X120154761Y-50188152D02*
X120059523Y-50235771D01*
X120059523Y-50235771D02*
X120011904Y-50331009D01*
X120011904Y-50331009D02*
X120011904Y-50854819D01*
X119202380Y-50331009D02*
X119535713Y-50331009D01*
X119535713Y-50854819D02*
X119535713Y-49854819D01*
X119535713Y-49854819D02*
X119059523Y-49854819D01*
X92416666Y-69129580D02*
X92464285Y-69177200D01*
X92464285Y-69177200D02*
X92607142Y-69224819D01*
X92607142Y-69224819D02*
X92702380Y-69224819D01*
X92702380Y-69224819D02*
X92845237Y-69177200D01*
X92845237Y-69177200D02*
X92940475Y-69081961D01*
X92940475Y-69081961D02*
X92988094Y-68986723D01*
X92988094Y-68986723D02*
X93035713Y-68796247D01*
X93035713Y-68796247D02*
X93035713Y-68653390D01*
X93035713Y-68653390D02*
X92988094Y-68462914D01*
X92988094Y-68462914D02*
X92940475Y-68367676D01*
X92940475Y-68367676D02*
X92845237Y-68272438D01*
X92845237Y-68272438D02*
X92702380Y-68224819D01*
X92702380Y-68224819D02*
X92607142Y-68224819D01*
X92607142Y-68224819D02*
X92464285Y-68272438D01*
X92464285Y-68272438D02*
X92416666Y-68320057D01*
X91988094Y-69224819D02*
X91988094Y-68224819D01*
X91988094Y-68224819D02*
X91749999Y-68224819D01*
X91749999Y-68224819D02*
X91607142Y-68272438D01*
X91607142Y-68272438D02*
X91511904Y-68367676D01*
X91511904Y-68367676D02*
X91464285Y-68462914D01*
X91464285Y-68462914D02*
X91416666Y-68653390D01*
X91416666Y-68653390D02*
X91416666Y-68796247D01*
X91416666Y-68796247D02*
X91464285Y-68986723D01*
X91464285Y-68986723D02*
X91511904Y-69081961D01*
X91511904Y-69081961D02*
X91607142Y-69177200D01*
X91607142Y-69177200D02*
X91749999Y-69224819D01*
X91749999Y-69224819D02*
X91988094Y-69224819D01*
X91035713Y-68320057D02*
X90988094Y-68272438D01*
X90988094Y-68272438D02*
X90892856Y-68224819D01*
X90892856Y-68224819D02*
X90654761Y-68224819D01*
X90654761Y-68224819D02*
X90559523Y-68272438D01*
X90559523Y-68272438D02*
X90511904Y-68320057D01*
X90511904Y-68320057D02*
X90464285Y-68415295D01*
X90464285Y-68415295D02*
X90464285Y-68510533D01*
X90464285Y-68510533D02*
X90511904Y-68653390D01*
X90511904Y-68653390D02*
X91083332Y-69224819D01*
X91083332Y-69224819D02*
X90464285Y-69224819D01*
X92821428Y-72584819D02*
X93392856Y-72584819D01*
X93107142Y-72584819D02*
X93107142Y-71584819D01*
X93107142Y-71584819D02*
X93202380Y-71727676D01*
X93202380Y-71727676D02*
X93297618Y-71822914D01*
X93297618Y-71822914D02*
X93392856Y-71870533D01*
X92202380Y-71584819D02*
X92107142Y-71584819D01*
X92107142Y-71584819D02*
X92011904Y-71632438D01*
X92011904Y-71632438D02*
X91964285Y-71680057D01*
X91964285Y-71680057D02*
X91916666Y-71775295D01*
X91916666Y-71775295D02*
X91869047Y-71965771D01*
X91869047Y-71965771D02*
X91869047Y-72203866D01*
X91869047Y-72203866D02*
X91916666Y-72394342D01*
X91916666Y-72394342D02*
X91964285Y-72489580D01*
X91964285Y-72489580D02*
X92011904Y-72537200D01*
X92011904Y-72537200D02*
X92107142Y-72584819D01*
X92107142Y-72584819D02*
X92202380Y-72584819D01*
X92202380Y-72584819D02*
X92297618Y-72537200D01*
X92297618Y-72537200D02*
X92345237Y-72489580D01*
X92345237Y-72489580D02*
X92392856Y-72394342D01*
X92392856Y-72394342D02*
X92440475Y-72203866D01*
X92440475Y-72203866D02*
X92440475Y-71965771D01*
X92440475Y-71965771D02*
X92392856Y-71775295D01*
X92392856Y-71775295D02*
X92345237Y-71680057D01*
X92345237Y-71680057D02*
X92297618Y-71632438D01*
X92297618Y-71632438D02*
X92202380Y-71584819D01*
X91440475Y-71918152D02*
X91440475Y-72584819D01*
X91440475Y-72013390D02*
X91392856Y-71965771D01*
X91392856Y-71965771D02*
X91297618Y-71918152D01*
X91297618Y-71918152D02*
X91154761Y-71918152D01*
X91154761Y-71918152D02*
X91059523Y-71965771D01*
X91059523Y-71965771D02*
X91011904Y-72061009D01*
X91011904Y-72061009D02*
X91011904Y-72584819D01*
X90202380Y-72061009D02*
X90535713Y-72061009D01*
X90535713Y-72584819D02*
X90535713Y-71584819D01*
X90535713Y-71584819D02*
X90059523Y-71584819D01*
X111016666Y-101929580D02*
X111064285Y-101977200D01*
X111064285Y-101977200D02*
X111207142Y-102024819D01*
X111207142Y-102024819D02*
X111302380Y-102024819D01*
X111302380Y-102024819D02*
X111445237Y-101977200D01*
X111445237Y-101977200D02*
X111540475Y-101881961D01*
X111540475Y-101881961D02*
X111588094Y-101786723D01*
X111588094Y-101786723D02*
X111635713Y-101596247D01*
X111635713Y-101596247D02*
X111635713Y-101453390D01*
X111635713Y-101453390D02*
X111588094Y-101262914D01*
X111588094Y-101262914D02*
X111540475Y-101167676D01*
X111540475Y-101167676D02*
X111445237Y-101072438D01*
X111445237Y-101072438D02*
X111302380Y-101024819D01*
X111302380Y-101024819D02*
X111207142Y-101024819D01*
X111207142Y-101024819D02*
X111064285Y-101072438D01*
X111064285Y-101072438D02*
X111016666Y-101120057D01*
X110588094Y-102024819D02*
X110588094Y-101024819D01*
X110588094Y-101024819D02*
X110349999Y-101024819D01*
X110349999Y-101024819D02*
X110207142Y-101072438D01*
X110207142Y-101072438D02*
X110111904Y-101167676D01*
X110111904Y-101167676D02*
X110064285Y-101262914D01*
X110064285Y-101262914D02*
X110016666Y-101453390D01*
X110016666Y-101453390D02*
X110016666Y-101596247D01*
X110016666Y-101596247D02*
X110064285Y-101786723D01*
X110064285Y-101786723D02*
X110111904Y-101881961D01*
X110111904Y-101881961D02*
X110207142Y-101977200D01*
X110207142Y-101977200D02*
X110349999Y-102024819D01*
X110349999Y-102024819D02*
X110588094Y-102024819D01*
X109064285Y-102024819D02*
X109635713Y-102024819D01*
X109349999Y-102024819D02*
X109349999Y-101024819D01*
X109349999Y-101024819D02*
X109445237Y-101167676D01*
X109445237Y-101167676D02*
X109540475Y-101262914D01*
X109540475Y-101262914D02*
X109635713Y-101310533D01*
X111421428Y-105384819D02*
X111992856Y-105384819D01*
X111707142Y-105384819D02*
X111707142Y-104384819D01*
X111707142Y-104384819D02*
X111802380Y-104527676D01*
X111802380Y-104527676D02*
X111897618Y-104622914D01*
X111897618Y-104622914D02*
X111992856Y-104670533D01*
X110802380Y-104384819D02*
X110707142Y-104384819D01*
X110707142Y-104384819D02*
X110611904Y-104432438D01*
X110611904Y-104432438D02*
X110564285Y-104480057D01*
X110564285Y-104480057D02*
X110516666Y-104575295D01*
X110516666Y-104575295D02*
X110469047Y-104765771D01*
X110469047Y-104765771D02*
X110469047Y-105003866D01*
X110469047Y-105003866D02*
X110516666Y-105194342D01*
X110516666Y-105194342D02*
X110564285Y-105289580D01*
X110564285Y-105289580D02*
X110611904Y-105337200D01*
X110611904Y-105337200D02*
X110707142Y-105384819D01*
X110707142Y-105384819D02*
X110802380Y-105384819D01*
X110802380Y-105384819D02*
X110897618Y-105337200D01*
X110897618Y-105337200D02*
X110945237Y-105289580D01*
X110945237Y-105289580D02*
X110992856Y-105194342D01*
X110992856Y-105194342D02*
X111040475Y-105003866D01*
X111040475Y-105003866D02*
X111040475Y-104765771D01*
X111040475Y-104765771D02*
X110992856Y-104575295D01*
X110992856Y-104575295D02*
X110945237Y-104480057D01*
X110945237Y-104480057D02*
X110897618Y-104432438D01*
X110897618Y-104432438D02*
X110802380Y-104384819D01*
X110040475Y-104718152D02*
X110040475Y-105384819D01*
X110040475Y-104813390D02*
X109992856Y-104765771D01*
X109992856Y-104765771D02*
X109897618Y-104718152D01*
X109897618Y-104718152D02*
X109754761Y-104718152D01*
X109754761Y-104718152D02*
X109659523Y-104765771D01*
X109659523Y-104765771D02*
X109611904Y-104861009D01*
X109611904Y-104861009D02*
X109611904Y-105384819D01*
X108802380Y-104861009D02*
X109135713Y-104861009D01*
X109135713Y-105384819D02*
X109135713Y-104384819D01*
X109135713Y-104384819D02*
X108659523Y-104384819D01*
X72266666Y-105389580D02*
X72314285Y-105437200D01*
X72314285Y-105437200D02*
X72457142Y-105484819D01*
X72457142Y-105484819D02*
X72552380Y-105484819D01*
X72552380Y-105484819D02*
X72695237Y-105437200D01*
X72695237Y-105437200D02*
X72790475Y-105341961D01*
X72790475Y-105341961D02*
X72838094Y-105246723D01*
X72838094Y-105246723D02*
X72885713Y-105056247D01*
X72885713Y-105056247D02*
X72885713Y-104913390D01*
X72885713Y-104913390D02*
X72838094Y-104722914D01*
X72838094Y-104722914D02*
X72790475Y-104627676D01*
X72790475Y-104627676D02*
X72695237Y-104532438D01*
X72695237Y-104532438D02*
X72552380Y-104484819D01*
X72552380Y-104484819D02*
X72457142Y-104484819D01*
X72457142Y-104484819D02*
X72314285Y-104532438D01*
X72314285Y-104532438D02*
X72266666Y-104580057D01*
X71838094Y-105484819D02*
X71838094Y-104484819D01*
X71838094Y-104484819D02*
X71599999Y-104484819D01*
X71599999Y-104484819D02*
X71457142Y-104532438D01*
X71457142Y-104532438D02*
X71361904Y-104627676D01*
X71361904Y-104627676D02*
X71314285Y-104722914D01*
X71314285Y-104722914D02*
X71266666Y-104913390D01*
X71266666Y-104913390D02*
X71266666Y-105056247D01*
X71266666Y-105056247D02*
X71314285Y-105246723D01*
X71314285Y-105246723D02*
X71361904Y-105341961D01*
X71361904Y-105341961D02*
X71457142Y-105437200D01*
X71457142Y-105437200D02*
X71599999Y-105484819D01*
X71599999Y-105484819D02*
X71838094Y-105484819D01*
X70933332Y-104484819D02*
X70314285Y-104484819D01*
X70314285Y-104484819D02*
X70647618Y-104865771D01*
X70647618Y-104865771D02*
X70504761Y-104865771D01*
X70504761Y-104865771D02*
X70409523Y-104913390D01*
X70409523Y-104913390D02*
X70361904Y-104961009D01*
X70361904Y-104961009D02*
X70314285Y-105056247D01*
X70314285Y-105056247D02*
X70314285Y-105294342D01*
X70314285Y-105294342D02*
X70361904Y-105389580D01*
X70361904Y-105389580D02*
X70409523Y-105437200D01*
X70409523Y-105437200D02*
X70504761Y-105484819D01*
X70504761Y-105484819D02*
X70790475Y-105484819D01*
X70790475Y-105484819D02*
X70885713Y-105437200D01*
X70885713Y-105437200D02*
X70933332Y-105389580D01*
X72671428Y-102124819D02*
X73242856Y-102124819D01*
X72957142Y-102124819D02*
X72957142Y-101124819D01*
X72957142Y-101124819D02*
X73052380Y-101267676D01*
X73052380Y-101267676D02*
X73147618Y-101362914D01*
X73147618Y-101362914D02*
X73242856Y-101410533D01*
X72052380Y-101124819D02*
X71957142Y-101124819D01*
X71957142Y-101124819D02*
X71861904Y-101172438D01*
X71861904Y-101172438D02*
X71814285Y-101220057D01*
X71814285Y-101220057D02*
X71766666Y-101315295D01*
X71766666Y-101315295D02*
X71719047Y-101505771D01*
X71719047Y-101505771D02*
X71719047Y-101743866D01*
X71719047Y-101743866D02*
X71766666Y-101934342D01*
X71766666Y-101934342D02*
X71814285Y-102029580D01*
X71814285Y-102029580D02*
X71861904Y-102077200D01*
X71861904Y-102077200D02*
X71957142Y-102124819D01*
X71957142Y-102124819D02*
X72052380Y-102124819D01*
X72052380Y-102124819D02*
X72147618Y-102077200D01*
X72147618Y-102077200D02*
X72195237Y-102029580D01*
X72195237Y-102029580D02*
X72242856Y-101934342D01*
X72242856Y-101934342D02*
X72290475Y-101743866D01*
X72290475Y-101743866D02*
X72290475Y-101505771D01*
X72290475Y-101505771D02*
X72242856Y-101315295D01*
X72242856Y-101315295D02*
X72195237Y-101220057D01*
X72195237Y-101220057D02*
X72147618Y-101172438D01*
X72147618Y-101172438D02*
X72052380Y-101124819D01*
X71290475Y-101458152D02*
X71290475Y-102124819D01*
X71290475Y-101553390D02*
X71242856Y-101505771D01*
X71242856Y-101505771D02*
X71147618Y-101458152D01*
X71147618Y-101458152D02*
X71004761Y-101458152D01*
X71004761Y-101458152D02*
X70909523Y-101505771D01*
X70909523Y-101505771D02*
X70861904Y-101601009D01*
X70861904Y-101601009D02*
X70861904Y-102124819D01*
X70052380Y-101601009D02*
X70385713Y-101601009D01*
X70385713Y-102124819D02*
X70385713Y-101124819D01*
X70385713Y-101124819D02*
X69909523Y-101124819D01*
D13*
%TO.C,CD7*%
X92565000Y-37501248D02*
X92565000Y-38023752D01*
X94035000Y-37501248D02*
X94035000Y-38023752D01*
%TO.C,CD6*%
X114915000Y-60801248D02*
X114915000Y-61323752D01*
X116385000Y-60801248D02*
X116385000Y-61323752D01*
%TO.C,CD4*%
X94715000Y-49988748D02*
X94715000Y-50511252D01*
X96185000Y-49988748D02*
X96185000Y-50511252D01*
%TO.C,CD5*%
X122465000Y-50101248D02*
X122465000Y-50623752D01*
X123935000Y-50101248D02*
X123935000Y-50623752D01*
%TO.C,CD2*%
X91488748Y-69715000D02*
X92011252Y-69715000D01*
X91488748Y-71185000D02*
X92011252Y-71185000D01*
%TO.C,CD1*%
X110088748Y-102515000D02*
X110611252Y-102515000D01*
X110088748Y-103985000D02*
X110611252Y-103985000D01*
%TO.C,CD3*%
X71861252Y-102615000D02*
X71338748Y-102615000D01*
X71861252Y-104085000D02*
X71338748Y-104085000D01*
%TD*%
M02*
